<?xml version="1.0" encoding="utf-8"?>
<!-- Generator: Adobe Illustrator 24.0.0, SVG Export Plug-In . SVG Version: 6.00 Build 0)  -->
<svg version="1.1" id="Capa_1" xmlns="http://www.w3.org/2000/svg" xmlns:xlink="http://www.w3.org/1999/xlink" x="0px" y="0px"
	 viewBox="0 0 574 320.6" style="enable-background:new 0 0 574 320.6;" xml:space="preserve">
<style type="text/css">
	.st0{fill:#A5A5A5;}
	.st1{fill:#7C7C7C;}
	.st2{fill:#898888;}
</style>
<title>logo-pucv</title>
<path class="st0" d="M275.3,122.5c-0.7,0-1.4-0.1-2.1-0.3v-0.6h0.7c0.7,0,1.5-0.2,2.1-0.6c1-0.7,1.5-2.1,1.5-4.1
	c0-4.4-2.5-4.5-4.1-4.5h-1.3v13.4c0,2.4,0,3.4,0.5,4c0.6,0.7,1.4,1,2.3,0.9v0.6l-4.9-0.2c-1.4,0-2.7,0-4.1,0.2v-0.6
	c0.6,0,1.1-0.2,1.5-0.7c0.5-0.5,0.6-1.4,0.6-4v-10.4c0-2-0.1-2.6-0.4-3.1c-0.4-0.4-1-0.7-1.6-0.8v-0.5h8.3c1.2,0,2.3,0.1,3.5,0.3
	c2.5,0.4,4.3,2.6,4.2,5.1C282,120.7,278.9,122.5,275.3,122.5"/>
<path class="st0" d="M294.7,131.6c-6.3,0-10.1-3.8-10.1-10S288.7,111,295,111s10.1,3.9,10.1,10C305.1,127.1,301.1,131.6,294.7,131.6
	 M294.9,112.4c-4.2,0-5.7,3.9-5.7,8.8s1.8,9.1,5.7,9.1c3.9,0,5.6-4,5.6-8.9S298.8,112.4,294.9,112.4"/>
<path class="st0" d="M327.1,112.4c-0.5,0.6-0.6,1.4-0.6,4.1v15h-1.7L313.2,116l-0.8-1.2V127c0,1.9,0.1,2.6,0.4,3
	c0.4,0.5,1,0.8,1.6,0.8v0.6l-2.9-0.2c-1,0-2,0-3,0.2v-0.6c0.6,0,1.1-0.2,1.5-0.7c0.5-0.5,0.5-1.4,0.5-4v-10.5c0-2-0.1-2.6-0.4-3.1
	c-0.4-0.5-0.9-0.8-1.5-0.8v-0.5h6.2l8.8,11.8c0.4,0.5,0.7,1,1,1.5v-8.9c0-2-0.1-2.6-0.4-3.1c-0.4-0.5-0.9-0.8-1.5-0.8v-0.5h5.9v0.5
	C328,111.7,327.5,111.9,327.1,112.4"/>
<path class="st0" d="M345.7,115.2c0-0.8-0.4-1.6-1.1-2.1c-0.6-0.4-1.2-0.4-3.1-0.4h-1.2V127c0,1.9,0.1,2.6,0.4,3s1.9,0.8,2.2,0.8
	v0.6l-4.7-0.2l-4.7,0.2v-0.6c0.8,0,1.5-0.3,2.1-0.7c0.5-0.6,0.5-1.4,0.5-4v-13.4H335c-1.9,0-2.5,0-3.2,0.4c-0.7,0.5-1.1,1.3-1,2.1
	h-0.7c0.1-1.4,0.1-3.9,0.1-3.9h16c0,0,0,2.5,0.1,3.9C346.3,115.2,345.7,115.2,345.7,115.2z"/>
<path class="st0" d="M355,112.4c-0.5,0.6-0.6,1.4-0.6,4.1V127c0,1.9,0.1,2.6,0.4,3c0.4,0.5,1,0.8,1.6,0.8v0.6l-4.1-0.2l-4.1,0.2
	v-0.6c0.6,0,1.1-0.2,1.5-0.7c0.5-0.5,0.5-1.4,0.5-4v-10.5c0-2-0.1-2.6-0.4-3.1c-0.4-0.5-0.9-0.8-1.5-0.8v-0.5h8.2v0.5
	C355.9,111.7,355.4,111.9,355,112.4"/>
<path class="st0" d="M372.8,115.2c0.1-0.8-0.3-1.6-1-2.1c-0.7-0.4-1.3-0.4-3.2-0.4h-2.5v7.5h2.6c0.9,0.1,1.8-0.1,2.5-0.6
	c0.5-0.5,0.8-1.1,0.8-1.8h0.6c0,0.7-0.1,1.1-0.1,3.1s0.1,2.2,0.1,2.9H372c0-0.6-0.3-1.2-0.7-1.6c-0.8-0.5-1.8-0.7-2.7-0.6h-2.5v5.4
	c0,1.9,0.1,2.6,0.4,3s1.9,0.8,2.2,0.8v0.6l-4.7-0.2l-4.2,0.2v-0.6c0.6,0,1.1-0.2,1.5-0.7c0.6-0.5,0.6-1.4,0.6-4v-10.5
	c0-2-0.1-2.6-0.4-3.1c-0.4-0.5-1-0.8-1.6-0.8v-0.5h13.5c0,0,0,2.5,0.1,3.9L372.8,115.2z"/>
<path class="st0" d="M383.1,112.4c-0.6,0.6-0.6,1.4-0.6,4.1V127c0,1.9,0.1,2.6,0.4,3c0.3,0.5,1,0.9,1.6,0.8v0.6l-4.2-0.2l-4.1,0.2
	v-0.6c0.6,0,1.1-0.2,1.5-0.7c0.6-0.5,0.6-1.4,0.6-4v-10.5c0-2-0.1-2.6-0.4-3.1c-0.4-0.5-1-0.7-1.6-0.8v-0.5h8.3v0.5
	C384,111.7,383.5,111.9,383.1,112.4"/>
<path class="st0" d="M403.6,115.2c0-0.7-0.3-1.4-0.8-1.8c-1-0.7-2.3-1-3.5-0.9c-2.7,0-6.8,0.5-6.8,8.9c0,5.1,1.7,8.6,6.9,8.6
	c1.1,0,2.6-0.1,3.4-1.1c0.5-0.5,0.7-1.2,0.7-1.9h0.6c-0.1,1.1-0.1,2.2-0.1,3.3v0.5c-1.7,0.5-3.4,0.7-5.2,0.7c-3.8,0-7.1-1.1-9-3.5
	c-1.3-1.8-2-4-1.9-6.3c-0.2-4.5,2.6-8.6,6.9-10c1.5-0.5,3.1-0.7,4.7-0.7s3.2,0.2,4.8,0.4c-0.1,0.6-0.1,1.3-0.1,1.9s0,1.3,0.1,1.9
	L403.6,115.2z"/>
<path class="st0" d="M414.5,112.4c-0.6,0.6-0.6,1.4-0.6,4.1V127c0,1.9,0.1,2.6,0.4,3c0.4,0.5,1,0.8,1.6,0.8v0.6l-4.2-0.2l-4.1,0.2
	v-0.6c0.6,0,1.1-0.2,1.5-0.7c0.6-0.5,0.6-1.4,0.6-4v-10.5c0-2-0.1-2.6-0.4-3.1c-0.4-0.5-1-0.8-1.6-0.8v-0.5h8.3v0.5
	C415.4,111.7,414.9,111.9,414.5,112.4"/>
<path class="st0" d="M433.3,131.2l-4,0.2v-0.6c0.7,0,1.2-0.1,1.4-0.4c0.2-0.1,0.3-0.4,0.3-0.6c-0.1-0.6-0.3-1.2-0.5-1.8l-1.4-4.2
	h-5.8l-1.5,4.3c-0.3,0.5-0.4,1.1-0.5,1.7c0,0.3,0,0.5,0.2,0.6c0.4,0.3,0.9,0.5,1.4,0.4v0.6l-2.9-0.2l-2.8,0.2v-0.6
	c0.6,0,1.2-0.4,1.5-0.9c0.6-1.1,1.1-2.2,1.5-3.3l6.3-15.4l2.3-0.4l5.5,15.5c0.7,2.1,1.3,3.4,1.4,3.7c0.3,0.5,0.9,0.8,1.5,0.8v0.6
	L433.3,131.2 M427.2,118.4c-0.4-0.9-0.6-1.8-0.8-2.8l-2.6,6.9h4.8L427.2,118.4z"/>
<path class="st0" d="M284.4,147.8c-0.5,0.6-0.6,1.5-0.6,4.1v6.2c0,2.3,0,3.8-0.5,4.9c-1.4,3.7-5.3,4-7.8,4c-5.2,0-6.9-1.8-7.7-3.9
	c-0.5-1.7-0.6-3.4-0.5-5.1v-7c0-2-0.1-2.6-0.4-3.1c-0.4-0.4-1-0.7-1.6-0.8v-0.5h8.2v0.5c-0.6,0-1.1,0.3-1.5,0.7
	c-0.5,0.6-0.5,1.5-0.5,4.1v8.1c0,2.8,0.2,5.6,4.7,5.6s4.7-3.2,4.7-5.6v-9c0-2-0.1-2.6-0.4-3.1c-0.4-0.4-1-0.7-1.6-0.8v-0.5h7v0.5
	C285.3,147.1,284.8,147.3,284.4,147.8"/>
<path class="st0" d="M307.3,147.8c-0.5,0.6-0.5,1.5-0.5,4.1v15H305l-11.6-15.5c-0.3-0.4-0.5-0.8-0.7-1.2v12.2c0,1.9,0,2.6,0.4,3.1
	s0.9,0.7,1.5,0.7v0.6h-5.9v-0.6c0.6,0,1.1-0.2,1.5-0.6c0.5-0.6,0.5-1.5,0.5-4.1V151c0-2-0.1-2.6-0.4-3.1c-0.4-0.5-0.9-0.8-1.5-0.8
	v-0.5h6.2l8.8,11.8c0.4,0.5,0.7,1,1,1.5V151c0-2-0.1-2.6-0.4-3.1c-0.4-0.5-0.9-0.8-1.5-0.8v-0.5h5.9v0.5
	C308.2,147.1,307.7,147.3,307.3,147.8"/>
<path class="st0" d="M318.5,147.8c-0.5,0.6-0.5,1.5-0.5,4.1v10.5c0,1.9,0.1,2.6,0.4,3.1c0.4,0.5,0.9,0.7,1.5,0.7v0.6h-8.2v-0.6
	c0.6,0,1.1-0.2,1.5-0.6c0.5-0.6,0.6-1.5,0.6-4.1V151c0-2-0.1-2.6-0.4-3.1c-0.4-0.4-1-0.7-1.6-0.8v-0.5h8.2v0.5
	C319.4,147.1,318.9,147.3,318.5,147.8"/>
<path class="st0" d="M340.4,148c-0.6,1.1-1.1,2.2-1.5,3.4l-6.3,15.4l-2.4,0.4l-5.5-15.6c-0.4-1.2-0.9-2.4-1.4-3.6
	c-0.3-0.5-0.8-0.9-1.4-0.9v-0.5h7.9v0.5c-0.5,0-1.1,0.1-1.5,0.4c-0.1,0.2-0.2,0.5-0.2,0.7c0,0.6,0.2,1.2,0.4,1.7l3.4,9.6
	c0.6,1.9,0.8,2.8,0.8,2.8s0.4-1,1-2.8l3.6-9.6c0.2-0.6,0.4-1.2,0.5-1.8c0-0.2-0.1-0.4-0.3-0.6c-0.3-0.3-1-0.3-1.4-0.4v-0.5h5.8v0.5
	C341.3,147.1,340.7,147.4,340.4,148"/>
<path class="st0" d="M356.6,166.6H343V166c0.6,0,1.1-0.2,1.5-0.6c0.5-0.6,0.5-1.5,0.5-4.1V151c0-2-0.1-2.6-0.4-3.1
	c-0.4-0.5-0.9-0.8-1.5-0.8v-0.5h13.4c0,0,0,2.5,0.1,3.9H356c0-0.8-0.4-1.6-1.1-2.1c-0.7-0.4-1.3-0.4-3.2-0.4h-2.5v7.5h2.6
	c0.9,0.1,1.7-0.1,2.5-0.5c0.5-0.5,0.7-1.1,0.8-1.8h0.6v6h-0.6c0-0.6-0.3-1.2-0.7-1.7c-0.6-0.6-1.6-0.6-2.7-0.6h-2.5v6.7
	c0,1.4,0.3,1.6,1.9,1.6h0.5c1.7,0,3-0.1,3.7-0.8c0.5-0.6,0.8-1.3,0.8-2.1h0.6C356.6,163.6,356.6,166.5,356.6,166.6"/>
<path class="st0" d="M377.4,166.8c-3.2,0-3.9-1.3-5-2.6s-3-3.9-4.5-6.1h-1.3v4.2c0,1.9,0.1,2.6,0.4,3.1c0.4,0.4,1,0.7,1.6,0.7v0.6
	h-8.1v-0.6c0.6,0,1.1-0.2,1.5-0.6c0.5-0.6,0.6-1.5,0.6-4.1V151c0-2-0.1-2.6-0.4-3.1c-0.4-0.4-1-0.7-1.6-0.8v-0.5h8
	c1.2,0,2.3,0.1,3.5,0.3c2.4,0.4,4.1,2.5,4,4.9c0,1.5-0.5,4.4-4.4,5.5l5.2,6c1.5,1.7,2.5,2.9,3.8,2.9v0.5
	C379.6,166.8,378.5,166.9,377.4,166.8 M367.9,147.8h-1.3v9h2.7c0.4-0.2,2.4-0.5,2.4-4.7S369.1,147.7,367.9,147.8"/>
<path class="st0" d="M387.2,166.8c-1.6,0-3.2-0.2-4.8-0.6v-0.5c0-1.1-0.1-2.3-0.2-3.4h0.7c0,0.8,0.4,1.6,1,2.2
	c0.9,0.6,2,0.9,3.1,0.9c4,0,4-2.6,4-3.3s-1.2-2.7-2.9-3.7l-1.7-1.1c-2.2-1.4-3.7-2.7-3.7-5.6c0-2.9,0.8-5.4,7.1-5.4
	c1.6,0,3.1,0.1,4.7,0.4c-0.1,0.5-0.1,1.1-0.1,1.6c0,0.7,0,1.5,0.1,2.2h-0.6c-0.1-0.7-0.4-1.3-0.9-1.8c-0.9-0.7-2-1.1-3.1-1
	c-3.1,0-3.5,1.8-3.5,2.9s0.9,2.3,2.6,3.3l1.9,1.2c2.5,1.5,4,2.8,4,5.9C394.9,164.1,391.6,166.8,387.2,166.8"/>
<path class="st0" d="M405.4,147.8c-0.5,0.6-0.6,1.5-0.6,4.1v10.5c0,1.9,0.1,2.6,0.4,3.1c0.4,0.4,1,0.7,1.6,0.7v0.6h-8.2v-0.6
	c0.6,0,1.1-0.2,1.5-0.6c0.5-0.6,0.5-1.5,0.5-4.1V151c0-2-0.1-2.6-0.4-3.1c-0.4-0.5-0.9-0.8-1.5-0.8v-0.5h8.2v0.5
	C406.3,147.1,405.8,147.3,405.4,147.8"/>
<path class="st0" d="M422.8,166.2c-1.6,0.4-3.3,0.6-4.9,0.5h-7.7v-0.6c0.6,0,1.1-0.2,1.5-0.6c0.6-0.6,0.6-1.5,0.6-4.1V151
	c0-2-0.1-2.6-0.4-3.1c-0.4-0.5-1-0.7-1.6-0.8v-0.5h8.4c2.8,0,11.2,0.3,11.2,9.5C429.9,163.2,425.7,165.4,422.8,166.2 M418.7,148
	h-2.2v15.6c0,0.9,0.1,1.4,0.7,1.6h1.5c4.7,0,6.7-2.5,6.7-8.8s-4.1-8.6-6.7-8.6"/>
<path class="st0" d="M447,166.6h-4.1V166c0.5,0.1,1-0.1,1.5-0.3c0.2-0.2,0.2-0.4,0.2-0.7c0-0.6-0.2-1.2-0.4-1.8l-1.5-4.2H437
	l-1.6,4.3c-0.2,0.5-0.4,1.1-0.4,1.7c0,0.3,0,0.5,0.2,0.7c0.4,0.3,0.9,0.4,1.4,0.3v0.6h-5.7V166c0.6,0,1.2-0.3,1.5-0.9
	c0.6-1.1,1.1-2.2,1.5-3.3l6.3-15.4l2.2-0.4l5.6,15.5c0.7,2.1,1.3,3.5,1.4,3.7s0.6,0.9,1.4,0.8v0.6L447,166.6 M440.9,153.8
	c-0.4-0.9-0.7-1.8-0.9-2.8l-2.5,6.9h4.8L440.9,153.8z"/>
<path class="st0" d="M465.4,166.2c-1.6,0.4-3.3,0.6-5,0.5h-7.6v-0.6c0.6,0,1.1-0.2,1.5-0.6c0.5-0.6,0.6-1.5,0.6-4.1V151
	c0-2-0.1-2.6-0.4-3.1c-0.4-0.4-1-0.7-1.6-0.8v-0.5h8.4c2.8,0,11.2,0.3,11.2,9.5C472.4,163.2,468.3,165.4,465.4,166.2 M461.3,148
	h-2.2v15.6c0,0.9,0.1,1.4,0.7,1.6h1.5c4.6,0,6.6-2.5,6.6-8.8s-4-8.6-6.6-8.6"/>
<path class="st0" d="M288.6,187.2c0-1-0.4-1.9-1.1-2.5c-1.4-1.2-3.6-1.4-5-1.4c-3.8,0-9.7,0.8-9.7,12.6c0,7.3,2.5,12.3,9.9,12.3
	c1.5,0,3.6-0.2,4.8-1.6c0.6-0.7,0.9-1.7,0.9-2.6h0.9c-0.1,1.2-0.2,2.6-0.2,4.6v0.8c-2.4,0.6-4.8,0.9-7.3,0.9
	c-5.5,0-10.1-1.5-12.8-4.9c-1.9-2.6-2.8-5.7-2.7-8.9c0-7.5,4.3-12.3,9.8-14.3c2.1-0.7,4.4-1,6.6-0.9c3.4,0,6.5,0.4,6.9,0.4
	c-0.1,0.9-0.1,1.8-0.1,2.7s0,1.9,0.1,2.8L288.6,187.2z"/>
<path class="st0" d="M314.2,210l-5.7,0.2v-0.8c0.7,0.1,1.4-0.1,2-0.5c0.3-0.3,0.4-0.6,0.4-1c-0.1-0.9-0.3-1.7-0.7-2.5l-2-6H300
	l-2.2,6.1c-0.3,0.8-0.6,1.6-0.7,2.4c0,0.4,0.1,0.7,0.4,1c0.4,0.4,1.4,0.4,2,0.5v0.8l-4.2-0.2c-1.3,0-2.7,0-4,0.2v-0.8
	c0.9,0,1.7-0.5,2.1-1.3c0.8-1.5,1.6-3.1,2.2-4.7l9-21.9l3.2-0.6l7.8,22.1c1.1,3,1.9,4.9,2,5.2c0.4,0.7,1.2,1.2,2.1,1.2v0.8
	L314.2,210 M305.5,191.7c-0.9-2.7-1.2-3.9-1.2-3.9l-3.6,9.7h6.8L305.5,191.7z"/>
<path class="st0" d="M341.8,187.2c0.1-1.2-0.5-2.3-1.5-2.9c-0.9-0.6-1.8-0.7-4.5-0.7h-1.6v20.3c0,2.7,0.1,3.7,0.6,4.3s2.6,1.1,3,1.1
	v0.9l-6.6-0.2l-6.8,0.2v-0.8c1.1,0,2.2-0.4,3-1.1c0.8-0.8,0.8-1.9,0.8-5.7v-19h-1.6c-2.7,0-3.6,0.1-4.5,0.7c-1,0.6-1.6,1.7-1.5,2.9
	h-0.9c0.2-2,0.1-5.6,0.1-5.6h22.8c0,0-0.1,3.6,0.1,5.6H341.8z"/>
<path class="st0" d="M359.6,210.5c-9,0-14.3-5.5-14.3-14.2s5.8-15,14.8-15s14.3,5.4,14.3,14.2S368.7,210.5,359.6,210.5 M359.9,183.2
	c-5.9,0-8.1,5.6-8.1,12.5s2.5,12.9,8,12.9s8.1-5.7,8.1-12.6C367.9,189.1,365.4,183.2,359.9,183.2 M365.8,176.1l-9.4,3.3l-0.5-0.8
	l6.1-5.9h0.3l3.7,2.8L365.8,176.1z"/>
<path class="st0" d="M398.3,210.1h-11.9c-2.4,0-4.8-0.1-7.2,0.1v-0.8c0.8,0,1.6-0.4,2.1-1c0.7-0.8,0.8-2,0.8-5.8v-14.9
	c0-2.7-0.1-3.7-0.6-4.4s-1.3-1-2.2-1v-0.8l6.4,0.2l6.4-0.2v0.8c-1.8,0.1-2.8,0.5-3.4,1.3s-0.6,2.2-0.6,5.6v16.7
	c0,1.9,0.3,2.2,2.7,2.2h0.7c2.4,0,3.9-0.1,5-1.2c0.7-0.8,1-1.8,1-2.9h0.9C398.3,206,398.3,210.1,398.3,210.1"/>
<path class="st0" d="M412.5,183.2c-0.8,0.8-0.8,2.1-0.8,5.8v14.9c0,2.8,0.1,3.7,0.5,4.4c0.6,0.7,1.4,1.1,2.3,1.1v0.8l-5.9-0.2
	l-5.8,0.2v-0.8c0.8,0,1.6-0.4,2.1-1c0.7-0.8,0.8-2,0.8-5.8v-14.9c0-2.7-0.1-3.7-0.6-4.4s-1.3-1-2.2-1v-0.8l5.9,0.2l5.8-0.2v0.8
	C413.8,182.3,413,182.7,412.5,183.2"/>
<path class="st0" d="M441.7,187.2c0-1-0.4-1.9-1.2-2.5c-1.3-1.2-3.6-1.4-4.9-1.4c-3.8,0-9.7,0.8-9.7,12.6c0,7.3,2.5,12.3,9.8,12.3
	c1.6,0,3.7-0.2,4.8-1.6c0.7-0.7,1-1.6,1-2.6h0.9c-0.1,1.2-0.2,2.6-0.2,4.6v0.8c-2.4,0.6-4.9,0.9-7.4,0.9c-5.4,0-10-1.5-12.7-4.9
	c-1.9-2.6-2.8-5.7-2.7-8.9c0-7.5,4.2-12.3,9.8-14.3c2.1-0.7,4.4-1,6.6-0.9c3.3,0,6.4,0.4,6.8,0.4c-0.1,0.9-0.1,1.8-0.1,2.7
	c0,1.2,0.1,2.2,0.1,2.8L441.7,187.2z"/>
<path class="st0" d="M467.3,210l-5.8,0.2v-0.8c0.7,0.1,1.5-0.1,2.1-0.5c0.2-0.3,0.4-0.6,0.4-1c-0.1-0.9-0.4-1.7-0.7-2.5l-2.1-6h-8.1
	l-2.2,6.1c-0.4,0.8-0.6,1.6-0.7,2.4c0,0.4,0.1,0.7,0.3,1c0.6,0.3,1.3,0.5,2,0.5v0.8l-4.1-0.2c-1.3,0-2.7,0-4,0.2v-0.8
	c0.9-0.1,1.7-0.5,2.1-1.3c0.8-1.5,1.5-3.1,2.1-4.7l9.1-21.9l3.1-0.6l7.9,22.1c0.5,1.8,1.2,3.5,2,5.2c0.4,0.7,1.2,1.2,2,1.2v0.8
	L467.3,210 M458.6,191.7c-0.5-1.3-0.9-2.6-1.2-3.9l-3.6,9.7h6.8L458.6,191.7z"/>
<path class="st0" d="M495.4,209.6c-1.6,0.4-3.3,0.6-5,0.5h-7.6v-0.5c0.6,0,1.1-0.3,1.5-0.7c0.5-0.6,0.6-1.4,0.6-4.1v-10.5
	c0-1.9-0.1-2.6-0.4-3c-0.4-0.5-1-0.8-1.6-0.8V190h8.4c2.8,0,11.2,0.2,11.2,9.5C502.5,206.7,498.3,208.9,495.4,209.6 M491.2,191.4
	h-2.1V207c0,0.9,0.1,1.4,0.7,1.5h1.5c4.6,0,6.6-2.4,6.6-8.8s-4-8.5-6.7-8.5"/>
<path class="st0" d="M519.5,210.1h-13.6v-0.5c0.6,0,1.1-0.3,1.5-0.7c0.5-0.6,0.5-1.4,0.5-4.1v-10.5c0-1.9-0.1-2.6-0.4-3
	c-0.3-0.5-0.9-0.8-1.5-0.8V190h13.4c0,0,0,2.6,0.1,4h-0.6c0-0.8-0.4-1.6-1.1-2.1c-0.6-0.4-1.3-0.5-3.2-0.5h-2.5v7.5h2.6
	c0.9,0.1,1.8,0,2.5-0.5c0.5-0.5,0.8-1.1,0.8-1.8h0.6v6H518c0-0.6-0.3-1.2-0.7-1.6c-0.8-0.6-1.7-0.8-2.7-0.7h-2.5v6.8
	c0,1.4,0.3,1.6,1.9,1.6h0.6c1.6,0,2.9-0.1,3.6-0.9c0.5-0.6,0.8-1.3,0.8-2h0.6C519.5,207.2,519.5,210.1,519.5,210.1"/>
<path class="st0" d="M290.3,227.2c-0.8,1.5-1.5,3.1-2.1,4.7l-9,21.7l-3.2,0.6l-7.8-21.9c-1.1-3-1.9-4.9-2-5.2
	c-0.4-0.7-1.2-1.2-2.1-1.2v-0.8l5.4,0.2l5.8-0.2v0.8c-0.7-0.1-1.4,0.1-2,0.5c-0.3,0.3-0.4,0.6-0.4,1c0.1,0.9,0.3,1.7,0.6,2.5
	l4.8,13.5c0.9,2.6,1.2,3.9,1.2,3.9s0.4-1.4,1.4-4l5-13.5c0.3-0.8,0.6-1.6,0.7-2.5c0-0.3-0.1-0.7-0.4-0.9c-0.4-0.4-1.3-0.4-2-0.5
	v-0.8l4.2,0.2c1.3,0,2.7,0,4-0.2v0.8C291.5,225.9,290.7,226.4,290.3,227.2"/>
<path class="st0" d="M312.4,253.4l-5.8,0.2v-0.8c0.7,0.1,1.5-0.1,2.1-0.5c0.2-0.2,0.4-0.6,0.4-0.9c-0.1-0.9-0.4-1.7-0.7-2.5
	l-2.1-5.9h-8l-2.2,6c-0.4,0.8-0.6,1.6-0.7,2.4c0,0.3,0.1,0.7,0.3,0.9c0.6,0.4,1.3,0.6,2,0.5v0.8l-4.1-0.2l-4,0.2v-0.8
	c0.9,0.1,1.7-0.4,2.1-1.2c0.8-1.5,1.5-3.1,2.1-4.7l9-21.8l3.1-0.5l7.8,21.9c1.1,3,1.9,4.8,2,5.1c0.4,0.8,1.2,1.2,2.1,1.2v0.8
	L312.4,253.4 M303.7,235.3c-0.9-2.7-1.2-3.9-1.2-3.9l-3.5,9.7h6.7L303.7,235.3z"/>
<path class="st0" d="M339.5,253.5h-18.9v-0.8c0.8,0,1.5-0.3,2.1-0.9c0.7-0.8,0.8-2,0.8-5.7v-14.8c0-2.7-0.2-3.6-0.6-4.3
	c-0.5-0.7-1.3-1.1-2.2-1.1v-0.8l6.3,0.2l6.4-0.2v0.9c-1.8,0.1-2.8,0.4-3.4,1.3c-0.6,0.9-0.6,2.2-0.6,5.5v16.5c0,2,0.4,2.2,2.7,2.2
	h0.7c2.4,0,3.9,0,4.9-1.1c0.7-0.8,1.1-1.8,1.1-2.9h0.9C339.5,249.5,339.5,253.5,339.5,253.5"/>
<path class="st0" d="M357.1,241.1c-0.9,0-1.9-0.1-2.8-0.4v-0.8h0.9c1.1,0.1,2.2-0.3,3.1-0.9c1.4-1,2.1-3,2.1-5.7
	c0-6.3-3.6-6.4-5.8-6.4h-1.9v19c0,3.3,0,4.7,0.7,5.5s1.5,1.3,3.3,1.3v0.8l-6.9-0.2c-1.5,0-4,0-5.8,0.2v-0.8c0.8,0,1.6-0.3,2.1-0.9
	c0.7-0.8,0.8-2,0.8-5.7v-14.8c0-2.7-0.1-3.6-0.6-4.3s-1.3-1.1-2.2-1.1v-0.8l5.2,0.2h6.5c1.6,0,3.3,0.1,4.9,0.4c3.1,0.8,6,2.7,6,7.2
	C366.7,237.4,362.3,241.2,357.1,241.1"/>
<path class="st0" d="M388.4,253.4l-5.7,0.2v-0.8c0.7,0.1,1.4-0.1,2-0.5c0.3-0.2,0.4-0.6,0.4-0.9c-0.1-0.9-0.3-1.7-0.6-2.5l-2.1-5.9
	h-8.1l-2.2,6c-0.3,0.8-0.6,1.6-0.7,2.4c0,0.3,0.1,0.7,0.4,0.9c0.4,0.5,1.4,0.5,2,0.5v0.8l-4.1-0.2l-4.1,0.2v-0.8
	c0.9,0,1.7-0.4,2.2-1.2c0.8-1.5,1.5-3.1,2.1-4.7l8.9-21.8l3.2-0.5l7.8,21.9c0.5,1.7,1.2,3.5,2,5.1c0.3,0.8,1.1,1.3,2,1.2v0.8
	L388.4,253.4 M379.8,235.3c-0.5-1.3-0.9-2.6-1.2-3.9l-3.6,9.7h6.7L379.8,235.3z"/>
<path class="st0" d="M420.4,253.7c-4.5,0-5.5-1.8-7-3.6s-4.2-5.4-6.3-8.5h-1.9v5.9c0,2.7,0.2,3.6,0.6,4.3c0.6,0.6,1.4,1,2.2,1v0.8
	l-5.6-0.2l-5.8,0.2v-0.8c0.8,0,1.6-0.3,2.1-0.9c0.8-0.8,0.8-2,0.8-5.7v-14.9c0-2.7-0.1-3.6-0.6-4.3s-1.3-1.1-2.1-1.1v-0.8l4.6,0.2
	l6.6-0.2c1.6,0,3.3,0.1,4.9,0.5c5.2,1.3,5.8,5.1,5.8,6.8s-0.8,6.3-6.3,7.9l7.3,8.4c2.1,2.4,3.6,4.1,5.4,4.1v0.8L420.4,253.7
	 M407.1,226.7l-1.9,0.2v12.7h2.1c0.6,0,1.1,0,1.7-0.2c0.6-0.1,3.4-0.6,3.4-6.5C412.4,227,408.8,226.6,407.1,226.7"/>
<path class="st0" d="M449,253.4l-5.7,0.2v-0.8c0.7,0.1,1.4-0.1,2-0.5c0.3-0.2,0.4-0.6,0.4-0.9c-0.1-0.9-0.3-1.7-0.6-2.5L443,243
	h-8.1l-2.2,6c-0.3,0.8-0.6,1.6-0.7,2.4c0,0.3,0.1,0.7,0.4,0.9c0.6,0.4,1.3,0.6,2,0.5v0.8l-4.1-0.2l-4,0.2v-0.8
	c0.9,0,1.7-0.4,2.1-1.2c0.8-1.5,1.5-3.1,2.1-4.7l9-21.8l3.1-0.5l7.8,21.9c0.5,1.7,1.2,3.5,2,5.1c0.4,0.7,1.2,1.2,2,1.2v0.8
	L449,253.4 M440.4,235.3c-0.5-1.3-0.9-2.6-1.2-3.9l-3.6,9.7h6.7L440.4,235.3z"/>
<path class="st0" d="M466.8,226.9c-0.7,0.8-0.7,2-0.7,5.7v14.9c0,2.7,0.1,3.6,0.5,4.3c0.6,0.6,1.4,1,2.2,1v0.8l-5.8-0.2l-5.8,0.2
	v-0.8c0.8,0,1.6-0.3,2.1-0.9c0.8-0.8,0.8-2,0.8-5.7v-14.9c0-2.7-0.1-3.6-0.5-4.3c-0.6-0.7-1.3-1.1-2.2-1.1v-0.8l5.8,0.2l5.8-0.2v0.8
	C468.1,225.9,467.3,226.3,466.8,226.9 M468.9,219.8l-9.3,3.3l-0.6-0.8l6.1-5.9h0.3l3.7,2.9L468.9,219.8z"/>
<path class="st0" d="M480.6,253.8c-2.3,0-4.6-0.3-6.8-0.9v-0.7c0-2-0.1-3.5-0.2-4.7h0.9c0.1,1.2,0.6,2.3,1.5,3.1
	c1.3,0.8,2.8,1.3,4.4,1.2c5.5,0,5.6-3.7,5.6-4.6c0-2.8-1.8-3.8-4.2-5.3l-2.4-1.5c-3.1-1.9-5.1-3.8-5.1-7.9c0-2.2,1-7.6,10-7.6
	c2.2,0,4.4,0.2,6.6,0.5c0,0-0.1,1-0.1,2.3c0,1,0,2.1,0.1,3.1H490c-0.1-1-0.5-1.9-1.2-2.5c-1.2-1-2.8-1.5-4.4-1.4
	c-4.4,0-4.9,2.6-4.9,4s1.3,3.4,3.6,4.7l2.8,1.7c3.5,2,5.6,3.9,5.6,8.3C491.5,250,486.9,253.8,480.6,253.8"/>
<path class="st0" d="M510.8,254c-8.9,0-14.2-5.5-14.2-14.1s5.7-15,14.7-15s14.2,5.5,14.2,14.1S519.8,254,510.8,254 M511.1,226.8
	c-5.9,0-8,5.6-8,12.5s2.5,12.8,8,12.8c5.5,0,7.9-5.6,7.9-12.5C519,232.7,516.6,226.8,511.1,226.8"/>
<path class="st0" d="M156.4,78.5l-0.5,2c50.1,6.7,88.8,50.1,88.8,101.4c0,56.2-45.8,102.2-102,102.2s-102-46-102-102.2
	c0.1-51.2,37.9-94.5,88.7-101.4l-0.5-2C78,84.9,38.4,129.3,38.4,181.9c0,57.8,46.8,104.8,104.3,104.8S247,239.6,247,181.8
	C247,129.3,207.3,84.9,156.4,78.5"/>
<polygon class="st0" points="141.5,63.8 141.5,67.7 137.1,67.7 137.1,70.1 141.5,70.1 141.5,77.8 143.9,77.8 143.9,70.1 148.2,70.1 
	148.2,67.7 143.9,67.7 143.9,63.8 "/>
<path class="st0" d="M177.1,77.5l-19.6-2.2l-0.3,1.6l17.9,2.7L177.1,77.5 M157.5,73.5l20.9,1.6c0.5-0.8,1.2-1.5,1.8-2.2l-1.8-1.3
	l-20.9,0.3V73.5z M157.2,69.2l0.3,1.3l18.8-1.9c0,0-1.5-2.1-2-2.6L157.2,69.2z M156.5,66.2l0.5,1.6l15.5-4.5l-1.3-2.7L156.5,66.2z
	 M154.9,63.6l0.8,1.3l14.2-7.8c-0.3-1-0.4-2.1-0.5-3.2L154.9,63.6z M153,61.1l1.2,1.4l14.5-12.1v-3.2h-2.8L153,61.1z M150.4,59.3
	l1.3,0.8l9.8-13.4l-3.6-0.3L150.4,59.3z M148.1,57.7l1.2,0.8l5.5-12.6l-2.9-1.1L148.1,57.7z M145,57.1l1.5,0.3l3.1-13.9l-1.8-1.4
	L145,57.1z M108.6,77.5l2,2.1l17.8-2.7l-0.2-1.6L108.6,77.5z M128.2,73.5v-1.6l-20.9-0.3l-1.8,1.3c0.6,0.7,1.2,1.4,1.8,2.2
	L128.2,73.5z M128.4,69.2l-17-3.2c-0.5,0.5-2.1,2.6-2.1,2.6l18.9,1.9L128.4,69.2z M129.2,66.2l-14.7-5.6l-1.3,2.7l15.5,4.5
	L129.2,66.2z M130.8,63.6l-14.5-9.7c-0.1,1.1-0.2,2.2-0.5,3.2l14.2,7.8L130.8,63.6z M132.8,61.1l-12.9-13.9h-2.8v3.2l14.4,12.1
	L132.8,61.1z M135.4,59.3l-7.5-12.9l-3.6,0.3l9.8,13.4L135.4,59.3z M137.7,57.7l-3.8-12.9l-2.9,1.1l5.4,12.6L137.7,57.7z
	 M140.8,57.1l-2.8-15c-0.6,0.4-1.2,0.9-1.8,1.4l3.1,13.9L140.8,57.1z M143.7,56.9l1.3-16.6c-0.8-0.3-1.5-0.8-2.1-1.4
	c-0.6,0.6-1.3,1.1-2.1,1.4l1.3,16.6H143.7z"/>
<path class="st0" d="M77.2,250.8c-0.9-0.6-1.7-1.2-2.4-1.9l-1.7-1.8l-1.6-1.5l0.2-0.3c0.3,0.3,0.6,0.4,1,0.4c0.5,0,0.8-0.4,2-1.5
	l4.5-4.6c0.9-0.9,1.1-1.2,1.2-1.6c0-0.4-0.1-0.7-0.4-1l0.3-0.2l1.4,1.5l2.3,2.2c1.2,1.1,4.7,4.9,0.7,9S78.8,251.7,77.2,250.8
	 M83.3,241l-1-0.9l-6.7,6.9c-0.4,0.4-0.6,0.6-0.4,1l0.6,0.6c2,2.1,4,1.8,6.7-0.9C85.2,245,84.5,242.2,83.3,241"/>
<path class="st0" d="M89.9,261.4l-4.3-3.1l-2.5-1.8l0.2-0.3c0.3,0.2,0.7,0.3,1,0.2c0.5-0.1,0.8-0.5,1.7-1.8l3.9-5.2
	c0.7-1,0.9-1.3,0.9-1.7s-0.2-0.7-0.5-0.9l0.2-0.3l2.3,1.8l4.3,3.2c0,0-0.9,1.2-1.3,1.9l-0.4-0.2c0.3-0.4,0.4-0.9,0.3-1.4
	c-0.2-0.4-0.5-0.7-1.4-1.4l-1.3-0.9l-2.7,3.7l1.3,1c0.4,0.4,0.9,0.6,1.4,0.6c0.4,0,0.8-0.3,1-0.6l0.4,0.2l-1.2,1.5l-1,1.5l-0.3-0.2
	c0.2-0.3,0.3-0.7,0.2-1.1c-0.2-0.6-0.6-1-1.1-1.3l-1.2-0.9l-2.5,3.4c-0.5,0.7-0.4,0.8,0.4,1.4l0.3,0.2c0.8,0.7,1.4,1.1,2.1,1
	c0.4-0.1,0.8-0.4,1.1-0.8l0.3,0.2L89.9,261.4"/>
<path class="st0" d="M112.5,260.4l-1.7,1.5l-7.6,6.9l-1.4-0.3l1-10.1c0.1-0.8,0.2-1.6,0.1-2.4c0-0.4-0.2-0.7-0.5-0.9v-0.3l2.1,1.1
	l2.3,1v0.3c-0.4-0.2-0.7-0.3-0.9-0.2c-0.2,0-0.3,0.1-0.3,0.3c-0.2,0.3-0.2,0.7-0.2,1.1l-0.7,6.2c-0.1,1.2-0.2,1.8-0.2,1.8
	c0.4-0.5,0.8-0.9,1.3-1.3l4.4-4.4l0.8-0.9c0-0.1,0.1-0.3,0-0.4s-0.5-0.4-0.7-0.6l0.2-0.3l1.6,0.8l1.6,0.7l-0.2,0.3
	C113.1,260.2,112.8,260.2,112.5,260.4"/>
<path class="st0" d="M118.4,274.3l-2.4-0.7v-0.3c0.3,0.1,0.6,0.1,0.9,0l0.3-0.3v-3.9l-3.4-1l-1.6,2.2c-0.3,0.3-0.5,0.6-0.7,1
	c0,0.1,0,0.3,0.1,0.4c0.2,0.2,0.4,0.4,0.7,0.5v0.3l-1.6-0.6l-1.7-0.5v-0.3c0.3,0.1,0.7,0,1-0.2l1.5-1.7l6.5-7.9h1.4l0.4,10.2
	c0.1,1.3,0.2,2.2,0.2,2.4s0.2,0.6,0.7,0.7v0.4L118.4,274.3 M117.2,265.5c-0.1-0.6-0.1-1.2,0-1.8l-2.7,3.6l2.8,0.9L117.2,265.5z"/>
<path class="st0" d="M131.6,276.9l-5.1-0.8l-3.1-0.5v-0.3c0.4,0,0.7-0.1,1-0.3c0.3-0.3,0.4-0.8,0.7-2.4l1.1-6.4
	c0.1-1.2,0.2-1.6,0-1.9s-0.5-0.5-0.9-0.6v-0.4l2.7,0.5c0.9,0.2,1.9,0.3,2.8,0.4v0.4c-0.8-0.1-1.2,0-1.5,0.3s-0.5,0.9-0.7,2.4
	l-1.2,7.1c-0.1,0.8,0,0.9,1,1.1h0.4c1,0.1,1.6,0.2,2.2-0.2c0.3-0.3,0.5-0.7,0.6-1.2h0.4c-0.2,0.8-0.5,2.6-0.5,2.6"/>
<path class="st0" d="M141,272c-0.4,0-0.8,0-1.2-0.2v-0.4h0.4c0.5,0,1-0.1,1.4-0.4c0.7-0.6,1.1-1.6,1-2.5c0-2.7-1.5-2.8-2.5-2.8h-0.8
	l-0.2,8.3c-0.1,1.5-0.1,2,0.2,2.4s0.6,0.6,1.4,0.6v0.4l-3-0.2h-2.6v-0.3c0.4,0,0.7-0.1,1-0.4c0.3-0.4,0.3-0.9,0.4-2.5l0.2-6.5
	c0-1.2,0-1.6-0.2-1.9s-0.5-0.5-0.9-0.5v-0.2h5.1c0.7,0,1.4,0,2.1,0.2c1.4,0.4,2.6,1.2,2.5,3.2s-2,3.6-4.3,3.5"/>
<path class="st0" d="M155.9,276.6l-2.4,0.3v-0.3c0.5-0.1,0.8-0.2,0.9-0.4s0.1-0.2,0.1-0.4c0-0.4-0.2-0.7-0.4-1l-1.1-2.5l-3.5,0.3
	l-0.7,2.7c-0.1,0.4-0.2,0.7-0.2,1.1c0,0.2,0,0.3,0.2,0.4c0.2,0.2,0.5,0.2,0.8,0.1v0.4h-1.8l-1.7,0.2v-0.3c0.4,0,0.7-0.3,0.9-0.6
	l0.7-2.2l3-9.8l1.3-0.4l4.3,9.2l1.1,2.1c0.2,0.3,0.6,0.5,1,0.5v0.3L155.9,276.6 M151.6,269l-0.7-1.7l-1.1,4.4l2.9-0.3L151.6,269z"/>
<path class="st0" d="M171.3,273.3c-1.2,0.5-2.5,0.1-3.4-0.8c-0.5-0.4-2.3-1.8-3.5-2.9l-0.8,0.2l0.6,2.5c0.1,0.6,0.3,1.3,0.7,1.8
	c0.3,0.2,0.7,0.3,1.1,0.2v0.3l-2.4,0.6c-0.8,0.1-1.6,0.4-2.4,0.7v-0.4c0.3-0.1,0.6-0.3,0.8-0.6c0.2-0.4,0.1-0.9-0.3-2.5l-1.7-6.3
	c-0.3-1.1-0.4-1.5-0.7-1.7s-0.6-0.3-1-0.3v-0.3l2-0.4l2.8-0.8c0.7-0.2,1.4-0.4,2.1-0.4c1.5-0.1,2.8,0.9,3.2,2.3
	c0.4,1.6-0.3,3.3-1.8,4l4,2.8c1.1,0.8,1.9,1.3,2.7,1.1v0.3L171.3,273.3 M162.8,263.4l-0.8,0.3l1.4,5.4l0.9-0.2l0.6-0.3
	c0.3-0.1,1.4-0.7,0.8-3.1C165.1,263.1,163.5,263.2,162.8,263.4"/>
<path class="st0" d="M184.6,267.9l-2.3,1v-0.3l0.7-0.5c0.1-0.2,0.1-0.3,0-0.5l-0.7-0.9l-1.9-2l-3.2,1.5l0.2,2.7c0,0.4,0,0.8,0.2,1.1
	c0,0.2,0.1,0.3,0.3,0.4s0.6-0.1,0.8-0.2l0.2,0.3l-1.7,0.7l-1.6,0.7v-0.3c0.3-0.1,0.6-0.4,0.6-0.8c0.1-0.8,0.1-1.5,0-2.3l-0.2-10.3
	l1.1-0.7l7,7.3l1.7,1.7c0.2,0.1,0.6,0.4,1,0.2l0.2,0.3l-2.2,0.9 M178.1,262.1l-1.1-1.3l0.3,4.5l2.6-1.2L178.1,262.1z"/>
<path class="st0" d="M186,250.3l-2.8,3.3l-0.4-0.2l1-3.6h0.1l2,0.3L186,250.3z M186.8,253.4c-0.1,0.4,0.1,0.9,1,2.3l3.3,5.6
	c0.6,1,0.8,1.3,1.1,1.5c0.4,0.1,0.8,0.1,1.1-0.1l0.2,0.3l-2.3,1.2c-0.7,0.4-1.4,0.9-2.1,1.4l-0.2-0.3c0.3-0.2,0.5-0.5,0.6-0.9
	s-0.1-0.9-1-2.3l-3.3-5.6c-0.6-1-0.8-1.3-1.1-1.5c-0.4-0.1-0.8-0.1-1.1,0.1l-0.2-0.3l2.3-1.2l2.1-1.3l0.2,0.2
	C187.1,252.7,186.9,253.1,186.8,253.4"/>
<path class="st0" d="M198.9,259.3c-0.8,0.6-1.7,1.1-2.6,1.5l-0.2-0.3c-0.5-0.7-0.9-1.1-1.2-1.6l0.3-0.2c0.3,0.4,0.8,0.7,1.3,0.7
	c0.7,0,1.3-0.3,1.8-0.7c2-1.5,1.1-2.8,0.8-3.1s-1.6-0.9-2.8-0.8H195c-1.4,0.4-2.9-0.2-3.8-1.4c-0.6-0.8-1.6-2.9,1.5-5.2
	c0.8-0.6,1.6-1.2,2.5-1.6l0.5,0.8l0.9,1.1l-0.3,0.2c-0.3-0.3-0.7-0.5-1.1-0.6c-0.7,0-1.4,0.3-1.9,0.7c-1.6,1.2-1.1,2.2-0.7,2.7
	c0.4,0.5,1.3,0.8,2.5,0.7h1.4c1.7-0.2,3-0.1,4.1,1.4S201.1,257.7,198.9,259.3"/>
<path class="st0" d="M210.3,249.7c-2.7,2.7-6,2.7-8.7,0s-2.9-6.4-0.1-9.1c2.8-2.7,6.1-2.7,8.7-0.1S213.1,246.9,210.3,249.7
	 M202,241.2c-1.8,1.8-0.7,4.2,1.4,6.3c2.1,2.1,4.7,3.2,6.4,1.5s0.7-4.2-1.4-6.3C206.3,240.6,203.7,239.5,202,241.2"/>
<path class="st0" d="M60.2,214.1c0.2,0.4,0.4,0.8,0.4,1.2h-0.4c0-0.1,0-0.3-0.1-0.4c-0.2-0.4-0.5-0.8-0.9-1.1
	c-0.8-0.3-1.8-0.3-2.6,0.1c-2.6,1-2,2.5-1.7,3.4c0.1,0.2,0.2,0.5,0.4,0.7l7.7-3.1c1.3-0.5,1.9-0.7,2.1-1.1c0.2-0.5,0.2-1.1,0-1.6
	h0.3c0.3,1,0.7,1.9,1.1,2.8c0.3,0.8,0.6,1.6,1,2.3h-0.3c-0.2-0.3-0.5-0.5-0.8-0.7c-0.4-0.1-0.9,0.1-2.4,0.7l-6,2.4l-1.7,0.9
	c-0.2,0.4-0.2,0.7,0,1.1h-0.4c-0.2-0.7-0.5-1.4-0.8-2.1L54,217c-0.3-0.6-0.5-1.3-0.6-2c-0.4-1.5,0.4-3.1,1.9-3.7
	c2.3-0.9,4.1,0.5,4.9,2.6"/>
<path class="st0" d="M61.9,200.5c0.9,3.8-0.9,6.5-4.6,7.4c-3.2,1-6.6-0.8-7.6-4c-0.1-0.2-0.1-0.5-0.2-0.8c-0.9-3.8,0.9-6.5,4.6-7.4
	S61,196.6,61.9,200.5 M50.3,203c0.6,2.5,3.2,2.9,6.1,2.2c2.9-0.7,5.2-2.3,4.7-4.6s-3.2-2.9-6.1-2.2C52.1,199.1,49.8,200.7,50.3,203"
	/>
<path class="st0" d="M47.7,181.3c0.4,0.3,0.9,0.3,2.5,0.3l9.3-0.6v1.1l-9.1,7.7l-0.7,0.5l7.5-0.4c0.7,0,1.3-0.1,1.9-0.4
	c0.3-0.3,0.4-0.6,0.4-1h0.3v1.8c0.1,0.6,0.1,1.1,0.2,1.9h-0.3c0-0.4-0.2-0.7-0.5-0.9c-0.4-0.3-0.9-0.3-2.5-0.2l-6.5,0.3
	c-1.2,0.1-1.6,0.2-1.8,0.4c-0.3,0.2-0.5,0.6-0.5,1h-0.3v-2.2c-0.1-0.3-0.1-1.1-0.2-1.6l7-5.9l0.8-0.6l-5.5,0.3
	c-0.6-0.1-1.2,0-1.8,0.3c-0.3,0.3-0.4,0.6-0.4,1h-0.4v-1.8c0-0.6-0.1-1.2-0.2-1.8h0.4C47.3,180.9,47.4,181.2,47.7,181.3"/>
<path class="st0" d="M50.5,168.2c-0.5,0-1.1,0.2-1.4,0.6c-0.3,0.6-0.4,1.2-0.4,1.9v0.7l8.8,0.8c1.1,0.1,1.6,0.1,1.8-0.1
	c0.2-0.2,0.6-1.1,0.6-1.2h0.4c-0.1,1-0.2,1.9-0.3,2.9s-0.2,1.9-0.2,2.9h-0.4c0-0.2,0.1-1-0.3-1.4c-0.4-0.4-0.8-0.4-2.4-0.6l-8.2-0.7
	v0.7c-0.1,0.6-0.1,1.3,0.1,1.9c0.2,0.5,0.7,0.8,1.2,0.8v0.4l-2.4-0.3l0.9-9.8l2.4,0.2L50.5,168.2z"/>
<path class="st0" d="M50.2,161c0.2,0.4,0.8,0.5,2.3,0.8l6.4,1.3c0.6,0.2,1.3,0.3,1.9,0.2c0.3-0.2,0.5-0.5,0.6-0.9h0.4
	c-0.2,0.8-0.4,1.7-0.6,2.5c-0.2,0.6-0.3,1.7-0.5,2.5h-0.3c0.1-0.3,0-0.7-0.2-1c-0.3-0.4-0.8-0.5-2.4-0.8l-6.3-1.3
	c-1.2-0.3-1.6-0.3-1.9-0.2s-0.5,0.4-0.7,0.9h-0.3c0.2-0.7,0.4-1.8,0.6-2.5c0.2-0.7,0.3-1.7,0.4-2.5h0.3
	C49.9,160.4,50,160.8,50.2,161"/>
<path class="st0" d="M55.2,149.6c-0.5-0.1-1,0-1.4,0.3c-0.4,0.5-0.7,1.1-0.8,1.7l-0.5,1.5l4.4,1.4l0.5-1.5c0.2-0.5,0.3-1,0.1-1.5
	c-0.1-0.4-0.4-0.6-0.9-0.9v-0.3l1.8,0.6l1.8,0.5l-0.2,0.4c-0.4-0.1-0.8-0.1-1.1,0.1c-0.4,0.2-0.6,0.8-0.8,1.4l-0.5,1.5l3.2,1
	c1.1,0.4,1.5,0.4,1.8,0.3c0.3-0.1,0.8-0.9,0.9-1.1h0.3c-0.2,0.7-0.7,2.1-0.9,2.7l-0.7,2.5h-0.3c0-0.2,0.1-0.7-0.2-1
	s-0.7-0.6-2.2-1.1l-6.2-2c-0.6-0.3-1.3-0.4-1.9-0.3c-0.3,0.2-0.6,0.5-0.7,0.8l-0.3-0.2l0.9-2.7l1.6-5.1l2.4,0.7L55.2,149.6z"/>
<path class="st0" d="M56.6,142c0.2,0.4,0.7,0.6,2.2,1.3l5.9,2.6c1.1,0.5,1.5,0.6,1.8,0.5s0.6-0.2,0.9-0.7l0.3,0.2
	c-0.4,0.7-0.8,1.5-1.1,2.3l-1,2.3h-0.3c0.2-0.3,0.2-0.7,0-1c-0.2-0.5-0.7-0.7-2.2-1.4l-5.9-2.6c-1.1-0.4-1.5-0.6-1.8-0.5
	s-0.6,0.2-0.8,0.7l-0.3-0.2l1.1-2.3c0.2-0.6,0.7-1.6,0.9-2.3h0.3C56.5,141.2,56.5,141.6,56.6,142"/>
<path class="st0" d="M65,130.4c-0.3-0.2-0.8-0.3-1.2-0.2c-0.7,0.3-1.3,0.9-1.6,1.6c-0.9,1.4-1.9,3.8,2.5,6.4c2.7,1.6,5.2,1.8,6.8-1
	c0.4-0.6,0.6-1.4,0.4-2.1c-0.1-0.4-0.3-0.7-0.7-0.9l0.2-0.4c0.5,0.4,1.1,0.8,1.7,1.1l0.2,0.2c-0.3,1-0.7,2-1.2,2.9
	c-0.9,1.9-2.6,3.3-4.7,3.7c-1.4,0.2-2.8-0.2-3.9-1c-2.4-1.3-3.7-4.1-3.2-6.8c0.3-0.9,0.6-1.8,1.1-2.6c0.8-1.3,1.6-2.3,1.7-2.5l1,0.6
	l1.1,0.6L65,130.4z"/>
<path class="st0" d="M68.4,122.8c0.1,0.5,0.5,0.8,1.8,1.8l5.1,4c1,0.7,1.3,0.9,1.7,0.9c0.4,0,0.7-0.2,0.9-0.5l0.3,0.2l-1.6,2
	l-1.5,2.1l-0.3-0.2c0.3-0.3,0.4-0.6,0.3-1c-0.1-0.5-0.5-0.8-1.8-1.8l-5.2-3.9c-0.9-0.8-1.3-1-1.6-1c-0.4,0-0.8,0.2-1,0.5l-0.2-0.2
	c0.4-0.6,1.2-1.5,1.6-2l1.4-2l0.3,0.2C68.4,122.1,68.3,122.4,68.4,122.8"/>
<path class="st0" d="M85.5,121.1c-0.3,0.5-1.3,1.5-1.6,1.9l-0.3-0.2c0.3-0.4,0.5-0.6,0.5-0.8c0-0.2-0.1-0.3-0.2-0.4l-1-0.6l-2.5-1.2
	l-2.4,2.6l1.2,2.5l0.5,1h0.4c0.3,0,0.6-0.3,0.8-0.4l0.2,0.2l-1.3,1.3l-1.1,1.3l-0.3-0.2c0.3-0.3,0.4-0.6,0.3-1l-0.8-2.1l-4.1-9.5
	l0.8-1.1l9.2,4.2c0.7,0.4,1.4,0.7,2.2,0.9c0.3,0.2,0.8,0.1,1-0.2l0.2,0.2L85.5,121.1 M77.2,118.3l-1.5-0.8l1.9,4.1l2-2.1L77.2,118.3
	z"/>
<path class="st0" d="M95.1,99.5c0,0.5,0.2,1,1.1,2.3l2.1,3.2c0.6,0.8,1.1,1.7,1.4,2.7c0.6,2.4-1.4,3.9-2.7,4.7s-4.1,1.4-5.2,0.6
	c-0.8-0.7-1.5-1.5-2-2.4l-2.4-3.7c-0.7-0.9-0.9-1.3-1.2-1.4c-0.4-0.1-0.8-0.1-1.1,0.1l-0.2-0.2l2.2-1.4l2-1.4l0.2,0.3
	c-0.3,0.2-0.5,0.5-0.5,0.8c-0.1,0.5,0.2,0.9,1.1,2.3l2.7,4.2c1,1.4,2,2.8,4.3,1.3s1.4-3.3,0.5-4.5l-3-4.7c-0.7-0.9-0.9-1.3-1.2-1.4
	c-0.4-0.1-0.8-0.1-1.1,0.1l-0.2-0.2l1.8-1.1l1.8-1.3l0.2,0.3C95.4,98.8,95.2,99.1,95.1,99.5"/>
<path class="st0" d="M109.8,92.7c-0.2,0.4,0,0.9,0.6,2.4l3.7,8.5l-0.9,0.4l-10.4-5.9l-0.7-0.4l3,6.8c0.2,0.6,0.5,1.2,0.9,1.7
	c0.4,0.2,0.7,0.2,1.1,0v0.3l-1.6,0.7l-1.7,0.8v-0.3c0.3-0.2,0.5-0.5,0.6-0.8c0.2-0.4,0-0.9-0.7-2.4l-2.5-6c-0.5-1-0.7-1.4-1-1.6
	s-0.8-0.2-1.1,0v-0.3l2-0.8l1.5-0.8l7.9,4.5l0.9,0.6l-2.2-5c-0.4-1.1-0.7-1.5-0.9-1.6c-0.3-0.3-0.7-0.3-1.1-0.1l-0.2-0.3l1.8-0.7
	c0.6-0.2,1.1-0.5,1.6-0.8v0.3C110.1,92,109.8,92.3,109.8,92.7"/>
<path class="st0" d="M118,90.2c-0.2,0.4-0.1,1,0.3,2.5l1.8,6.2c0.4,1.2,0.5,1.6,0.8,1.8c0.3,0.2,0.7,0.3,1,0.2v0.3l-2.4,0.6
	l-2.4,0.8v-0.3c0.3-0.1,0.6-0.4,0.8-0.7c0.2-0.4,0-0.9-0.4-2.5l-1.8-6.2c-0.3-1.1-0.5-1.5-0.8-1.7s-0.7-0.3-1-0.2v-0.4l2.4-0.6
	l2.4-0.8v0.4C118.3,89.6,118,89.8,118,90.2"/>
<path class="st0" d="M132.7,87.4c-0.2,0.7-0.4,1.5-0.5,2.2l-2.3,10l-1.4,0.5l-4.9-8.9l-1.3-2.1c-0.2-0.2-0.6-0.4-0.9-0.3v-0.4
	l2.4-0.3l2.4-0.5V88c-0.3,0-0.6,0.1-0.8,0.3c-0.1,0.1-0.2,0.3-0.1,0.5c0,0.4,0.2,0.7,0.4,1l3,5.5c0.3,0.5,0.6,1,0.8,1.6l0.3-1.8
	l1.2-6.2c0.1-0.6,0.2-0.9,0.1-1.1c-0.1-0.2,0-0.3-0.2-0.4s-0.6-0.1-0.9-0.1V87l1.8-0.2l1.7-0.4v0.3C133.1,86.8,132.8,87,132.7,87.4"
	/>
<path class="st0" d="M144.7,98.5h-8.4v-0.3c0.3,0,0.7-0.1,0.9-0.4c0.4-0.4,0.4-0.9,0.3-2.6V89c-0.1-1.2-0.1-1.6-0.3-1.9
	c-0.3-0.3-0.6-0.4-1-0.5v-0.3h8.3c0,0,0,1.5,0.1,2.4h-0.5c0-0.5-0.2-1-0.7-1.3c-0.6-0.2-1.3-0.3-1.9-0.2h-1.6v4.7h1.6
	c0.5,0,1-0.1,1.5-0.3c0.3-0.3,0.5-0.7,0.5-1.2h0.4v1.9c0,1.2,0.1,1.4,0.1,1.8h-0.4c-0.1-0.5-0.2-0.8-0.5-1c-0.5-0.3-1-0.4-1.6-0.3
	h-1.4V97c0,0.8,0.1,0.9,1.1,0.9h0.4c1,0,1.8-0.1,2.2-0.6c0.3-0.3,0.4-0.8,0.4-1.2h0.4v2.6"/>
<path class="st0" d="M157.5,99.9c-1.3-0.1-2.4-0.8-2.9-2l-2.3-4h-0.7l-0.4,2.5c-0.1,1.2-0.1,1.6,0.1,1.9c0.2,0.3,0.3,0.5,0.8,0.6
	v0.4l-2.4-0.4l-2.5-0.3v-0.3c0.4,0,0.7-0.1,1-0.3c0.3-0.3,0.4-0.8,0.6-2.4l0.8-6.5c0.2-1.1,0.2-1.6,0-1.9s-0.5-0.5-0.9-0.5v-0.4
	l2,0.3l2.8,0.3c0.7,0.1,1.4,0.3,2.1,0.5c1.5,0.4,2.4,1.8,2.2,3.3c-0.2,1.6-1.6,2.9-3.2,3l2.7,4.1c0.8,1.1,1.4,1.9,2.1,2v0.4
	L157.5,99.9 M153.2,87.6h-0.9l-0.6,5.5h0.8c0.3,0.1,0.5,0.1,0.8,0c0.2,0,1.5-0.1,1.8-2.6S153.9,87.6,153.2,87.6"/>
<path class="st0" d="M163.4,101.4c-0.9-0.3-1.8-0.7-2.7-1.2v-0.3l0.4-2h0.4c-0.1,0.5,0,1.1,0.3,1.5c0.4,0.5,1,0.9,1.7,1
	c2.3,0.6,2.8-0.9,2.9-1.3s-0.3-1.8-1.2-2.7l-0.8-0.9c-1.1-1.2-1.7-2.2-1.3-3.9c0.4-1.7,1.3-3.1,5.1-2.1c1,0.3,1.9,0.6,2.8,1l-0.4,1
	c-0.1,0.4-0.2,0.9-0.3,1.3H170c0.1-0.4,0-0.8-0.2-1.2c-0.4-0.6-1-1-1.7-1.1c-1.8-0.5-2.3,0.5-2.5,1.1s0.2,1.5,1,2.4l1,1
	c1.2,1.3,1.9,2.3,1.4,4.1S166.1,102.1,163.4,101.4"/>
<path class="st0" d="M178.5,94c-0.4,0.2-0.6,0.7-1.2,2.2l-2.3,6.1c-0.5,1.1-0.6,1.5-0.5,1.8c0.1,0.4,0.4,0.6,0.7,0.8v0.3l-2.3-1
	l-2.4-0.8v-0.3c0.3,0.1,0.7,0,1-0.1c0.4-0.2,0.7-0.7,1.2-2.2l2.4-6c0.3-0.6,0.4-1.2,0.5-1.9c-0.2-0.3-0.5-0.6-0.8-0.8l0.2-0.3l2.3,1
	l2.4,0.9V94C179.4,93.8,179,93.8,178.5,94"/>
<path class="st0" d="M184.2,109.5l-2.8-1.3l-2.2-1.2l-1.9-1v-0.3c0.3,0.1,0.7,0.2,1.1,0.1c0.4-0.2,0.7-0.6,1.5-2.1l3.1-5.6
	c0.3-0.6,0.6-1.2,0.7-1.8c-0.1-0.4-0.3-0.7-0.6-0.9v-0.3l1.8,1.1l2.7,1.4c1.5,0.8,6,3.5,3.3,8.5s-5.1,3.8-6.9,3.4 M187.2,98.4
	l-1.2-0.6l-4.6,8.4c-0.3,0.5-0.4,0.8-0.1,1c0.3,0.2,0.4,0.3,0.8,0.5c2.5,1.4,4.3,0.7,6.2-2.8C190.2,101.4,188.6,99.1,187.2,98.4"/>
<path class="st0" d="M196.4,118.2l-2-1.5l0.2-0.3c0.2,0.2,0.5,0.4,0.8,0.4l0.4-0.2c0.2-0.3,0.3-0.6,0.4-1l0.9-2.6l-2.8-2.2l-2.3,1.5
	l-0.9,0.6c-0.1,0.2-0.2,0.3-0.2,0.5l0.6,0.7l-0.2,0.2l-1.4-1.1l-1.4-1l0.2-0.3c0.3,0.2,0.7,0.3,1.1,0.1l1.9-1l8.9-5.1l1.3,0.6
	l-3.2,9.7c-0.4,1.3-0.6,2.1-0.7,2.3c0,0.3,0.1,0.7,0.4,0.9l-0.2,0.3L196.4,118.2 M198.2,109.6c0.2-0.6,0.4-1.1,0.7-1.6l-3.8,2.3
	l2.3,1.8L198.2,109.6z"/>
<path class="st0" d="M204.7,126c-0.9-0.6-1.6-1.2-2.3-2l-1.7-1.9c-0.4-0.5-1-1-1.5-1.5l0.2-0.3c0.3,0.3,0.6,0.4,1,0.4s0.8-0.3,2-1.4
	l4.8-4.5c0.8-0.8,1.1-1.1,1.2-1.4c0-0.4-0.1-0.7-0.3-1l0.2-0.3c0.4,0.6,0.9,1.1,1.4,1.6l2.1,2.2c1.2,1.3,4.6,5.2,0.5,9.1
	C208.2,128.9,206.3,127,204.7,126 M211.2,116.5l-1-1l-7,6.6c-0.4,0.4-0.6,0.6-0.4,1l0.6,0.7c1.9,2.1,3.9,1.9,6.7-0.7
	C212.9,120.5,212.3,117.7,211.2,116.5"/>
<path class="st0" d="M225.1,138.4c0.3-0.2,0.6-0.5,0.7-0.9c0-0.8-0.2-1.5-0.6-2.2c-0.8-1.4-2.4-3.4-6.9-0.8c-2.7,1.6-4,3.6-2.4,6.3
	c0.4,0.7,1,1.2,1.7,1.5c0.4,0.1,0.9,0,1.2-0.3l0.2,0.4l-1.8,0.9l-0.3,0.2c-0.8-0.7-1.4-1.6-2-2.5c-1.2-2.1-1.6-4.1-0.9-5.9
	c1.5-3.3,5.4-4.8,8.7-3.3c0.5,0.2,1,0.5,1.5,0.9c0.7,0.6,1.3,1.4,1.8,2.2c0.7,1.3,1.2,2.5,1.3,2.7l-1,0.5l-1,0.7L225.1,138.4z"/>
<path class="st0" d="M221,153.8c-0.2-0.6-0.8-1.8-1-2.3l0.3-0.2c0.1,0.3,0.3,0.6,0.5,0.8h0.5l0.9-0.7l2-1.8l-1.3-3.3h-2.8l-1.1,0.2
	l-0.3,0.2c-0.1,0.3,0.1,0.7,0.1,0.9l-0.3,0.2c-0.1-0.6-0.3-1.2-0.6-1.7c-0.2-0.6-0.4-1.1-0.7-1.6h0.3c0.2,0.3,0.5,0.6,0.9,0.6h12.5
	l0.7,1.1L224,153l-1.7,1.6c-0.2,0.3-0.3,0.7-0.2,1.1h-0.3l-0.8-2.2 M226.9,147l1.4-1.1h-4.5l1.1,2.7L226.9,147z"/>
<path class="st0" d="M233.8,162.8c0.5-0.1,0.9-0.4,1.1-0.9c0.1-0.7,0-1.4-0.2-2l-0.2-0.6l-8.5,2.2c-1.2,0.3-1.5,0.4-1.7,0.7
	s-0.2,1.2-0.2,1.4h-0.3c-0.2-0.7-0.5-2.2-0.7-2.8l-0.8-2.9h0.3c0.1,0.1,0.3,0.9,0.8,1.1c0.5,0.2,0.9,0.1,2.5-0.3l8-2.1l-0.2-0.6
	c-0.3-1.2-0.4-1.5-0.8-1.9c-0.4-0.3-0.9-0.4-1.4-0.3v-0.3l2.4-0.6l2.5,9.6c-0.8,0.1-1.6,0.3-2.4,0.6L233.8,162.8z"/>
<path class="st0" d="M225.1,173.1c-0.4-3.9,1.7-6.4,5.5-6.8c3.8-0.4,6.7,1.8,7.1,5.7s-1.7,6.4-5.5,6.8
	C228.4,179.2,225.5,177,225.1,173.1 M236.9,172c-0.3-2.5-2.8-3.2-5.8-2.9s-5.4,1.6-5.2,4s2.8,3.2,5.8,2.9S237.1,174.4,236.9,172
	 M240.2,174.2l-1.8-3.9l0.3-0.2l2.8,2.3v0.2l-1.1,1.7L240.2,174.2z"/>
<path class="st0" d="M225.4,189.9l0.3-5.1c0-1.1,0.1-2.1,0.1-3.2h0.3c0,0.3,0.2,0.7,0.4,0.9c0.3,0.3,0.9,0.4,2.5,0.5l6.5,0.3
	c1.1,0,1.6,0,1.8-0.2s0.5-0.4,0.6-0.9h0.3c-0.1,0.9-0.2,1.9-0.2,2.8c0,0.6-0.1,2-0.1,2.7h-0.3c0.1-0.5-0.1-1.1-0.5-1.5
	c-0.4-0.3-1-0.3-2.4-0.4l-7.2-0.3c-0.9-0.1-1,0.1-1.1,1.1v0.3c0,1.1,0,1.7,0.4,2.2c0.3,0.3,0.8,0.5,1.3,0.5v0.4L225.4,189.9"/>
<path class="st0" d="M235.9,198.1c-0.3-0.4-0.8-0.5-2.4-0.8l-6.4-1c-1.1-0.2-1.6-0.2-1.9,0c-0.3,0.2-0.5,0.5-0.6,0.8h-0.3l0.4-2.5
	c0.2-0.8,0.3-1.7,0.4-2.5h0.3c0,0.4,0.1,0.7,0.3,1c0.3,0.4,0.8,0.5,2.4,0.7l6.4,1c0.6,0.2,1.3,0.2,1.9,0.1c0.3-0.2,0.5-0.5,0.6-0.9
	h0.3l-0.4,2.5c-0.1,0.6-0.3,1.7-0.4,2.5h-0.3C236.3,198.7,236.1,198.4,235.9,198.1"/>
<path class="st0" d="M230.8,211.4c0.4,0.1,0.8,0,1.2-0.2c0.6-0.5,1-1.1,1.2-1.9c0.5-1.6,0.8-4.1-4.1-5.5c-3.1-0.9-5.4-0.4-6.3,2.6
	c-0.3,0.7-0.3,1.5,0.1,2.2c0.2,0.4,0.6,0.6,1,0.7v0.4l-1.9-0.6h-0.4c0.1-1.1,0.2-2.2,0.5-3.2c0.7-2.3,1.9-4,3.6-4.7
	c1.3-0.5,2.7-0.6,4-0.1c2.7,0.6,4.7,3,4.8,5.8c0,0.9-0.1,1.9-0.4,2.8c-0.3,1-0.6,1.9-1,2.8l-1.1-0.3l-1.2-0.3L230.8,211.4z"/>
<path class="st0" d="M216.9,219c0.4-0.7,0.7-1.5,1-2.3h0.3c-0.2,0.5-0.2,0.8-0.1,0.9s0.1,0.3,0.3,0.4l1.1,0.2l2.7,0.2l1.4-3.2
	l-1.9-2l-0.9-0.7h-0.4c-0.3,0.1-0.5,0.5-0.6,0.7h-0.3l0.8-1.6c0.3-0.5,0.5-1.1,0.7-1.7l0.3,0.2c-0.2,0.3-0.2,0.7,0.1,1
	c0.4,0.6,0.9,1.2,1.5,1.7l7,7.5l-0.3,1.3l-10.1-0.8h-2.4c-0.4,0-0.7,0.2-0.9,0.6l-0.3-0.2C216.3,220.6,216.7,219.9,216.9,219
	 M225.7,218.9c0.6,0,1.2,0.1,1.8,0.3l-3.2-3.2l-1.2,2.7L225.7,218.9z"/>
<g>
	<path class="st0" d="M198.4,171h0.1c2.2-0.1,3.9-1.8,3.8-4c0-2.6-3.5-4.1-3.5-6.6c0-1,0.3-2,0.8-2.8c-2.1,0-3.7,1.2-3.7,4.1
		c0,2.9,3.5,4.2,3.5,6.9C199.4,169.5,199,170.4,198.4,171z"/>
	<path class="st0" d="M175.5,160.4c0-1,0.3-2,0.8-2.8c-2.1,0-3.7,1.2-3.7,4.1c0,2.9,3.5,4.2,3.5,6.9c-0.1,0.9-0.4,1.7-0.9,2.4
		c0.1,0,0.1,0,0.2,0c2.1-0.1,3.7-1.9,3.6-4l0,0C179,164.4,175.5,162.9,175.5,160.4z"/>
	<path class="st0" d="M187.9,157.7c-2.1,0-3.7,1.2-3.7,4.1c0,2.9,3.6,4.2,3.6,6.9c-0.1,0.9-0.4,1.7-1,2.4h0.1c2.2-0.1,3.9-1.8,3.8-4
		c0-2.6-3.6-4.1-3.6-6.6C187.1,159.5,187.4,158.5,187.9,157.7z"/>
	<path class="st0" d="M158.5,145.4c0-2,5.2-2.9,5.2-5.3h-13.4c0,2.4,5.1,3.4,5.1,5.3c0,1.9-3.9,1.5-3.9,4.4h10.9
		C162.4,146.9,158.5,147.4,158.5,145.4z"/>
	<path class="st0" d="M217.8,180.6c-0.5-39.6-34-73.6-74-74.1v50.9c4.8,1.6,12.5,2.7,22.7,1.7v21.5H217.8z M175.2,172.5
		c-0.9,0.1-1.9-0.2-2.6-0.8c1-0.6,1.6-1.6,1.7-2.8c0-2.2-3.5-3.4-3.5-7.1c0-0.1,0-0.2,0-0.3c0.1-3,2.5-5.4,5.5-5.3
		c0.8,0,1.6,0.2,2.3,0.6c-0.8,0.8-1.3,1.9-1.3,3.1c0,2.2,3.4,3.7,3.4,6.9c0,0.1,0,0.3,0,0.4C180.7,170.2,178.2,172.6,175.2,172.5z
		 M186.8,172.5c-0.9,0.1-1.9-0.2-2.6-0.8c1-0.6,1.7-1.6,1.8-2.8c0-2.2-3.6-3.4-3.6-7.1v-0.1c0-3,2.5-5.5,5.5-5.5
		c0.8-0.1,1.6,0.1,2.3,0.6c-0.8,0.9-1.2,2-1.3,3.1c0,2.2,3.4,3.7,3.4,6.9c0,0.1,0,0.3,0,0.4C192.3,170.2,189.8,172.6,186.8,172.5z
		 M201.8,156.9c-0.8,0.9-1.2,2-1.3,3.1c0,2.2,3.4,3.7,3.4,6.9c0,0.1,0,0.3,0,0.4c-0.1,3-2.5,5.3-5.5,5.3c-0.9,0.1-1.8-0.2-2.5-0.8
		c1-0.6,1.6-1.6,1.7-2.8c0-2.2-3.5-3.4-3.5-7.1c0-0.1,0-0.2,0-0.3c0.1-3,2.5-5.4,5.5-5.3C200.4,156.2,201.2,156.4,201.8,156.9z
		 M148.3,124.8c0-2.1,1.2-3.1,1.2-4.5c-0.1-0.9-0.3-1.7-0.8-2.4h1.8c0.5,0.7,0.8,1.5,0.8,2.4c0,1.4-1.3,2.5-1.3,4.4s1.5,3.1,1.5,5.2
		s-2,3.2-2,4.8c0.1,0.8,0.5,1.5,1.2,2h-2c-0.5-0.5-0.8-1.3-0.8-2c0-1.9,2-3.2,2-4.8S148.3,126.9,148.3,124.8z M149.7,151.7v-2.1l0,0
		c0-3,4.3-3.2,4.3-4.2s-5.9-2.9-5.9-6.7H166c0,3.8-5.8,5.7-5.8,6.7s4.4,1,4.4,4.4h17.7c-4.7-1-6.9-4-6.9-7.7
		c0.1-2.5,1.3-4.7,3.4-6.1c-1.1-1.4-3.7-3.7-8.9-3.7c-1.7,0-3.4,0.2-5,0.8c-0.4,0.4-0.6,1-0.6,1.6c0.1,0.8,0.5,1.5,1.1,2h-1.9
		c-0.6-0.5-0.9-1.2-0.9-2c0-0.2,0.1-0.3,0.1-0.5c-0.9,0.7-1.7,1.5-2.3,2.5h-2c1-2.4,5.2-6.2,11.5-6.2s10.2,3.3,11.5,6.2
		c-2.3,0.8-3.7,2.9-3.7,5.3c0,2.8,3,6,6.9,6s7.5-1.7,7.5-7.9s-8.4-13.8-19.4-13.8s-16,5.6-17.7,10.4h-1.7c-0.5-0.5-0.8-1.2-0.8-2
		c0-1.9,1.9-3.2,1.9-4.8s-1.6-3-1.6-5.1s1.3-3.1,1.3-4.5c-0.1-0.8-0.4-1.7-0.8-2.4h1.7c0.5,0.7,0.9,1.5,0.9,2.4
		c0,1.4-1.3,2.4-1.3,4.4s1.4,3.6,1.4,5.2s-1.9,3.2-1.9,4.5v0.4c1.1-2.5,2.8-4.6,5-6.2c-0.4-1.3-1.3-1.7-1.3-3.8
		c0-2.1,1.3-3.1,1.3-4.5c-0.1-0.8-0.4-1.7-0.8-2.4h1.8c0.5,0.7,0.7,1.5,0.8,2.4c0,1.4-1.3,2.6-1.3,4.4c0.1,1,0.4,2.1,0.9,3
		c0.9-0.6,1.8-1.1,2.8-1.4c-0.2-0.5-0.3-1-0.3-1.5c0-2.1,1.3-3.1,1.3-4.5c-0.1-0.8-0.4-1.7-0.8-2.4h1.7c0.5,0.7,0.8,1.5,0.8,2.4
		c0,1.4-1.3,2.7-1.3,4.4c0,0.3,0.1,0.7,0.2,1c2.6-0.8,5.2-1.1,7.9-1.1c12.6,0,21.4,7.8,21.4,15.6c0.2,4.7-3.1,8.8-7.7,9.6h12.9v1.9
		H149.7z"/>
</g>
<g>
	<path class="st1" d="M107,153.6c-3.6,0-8,0.5-10.1,2.4v16.6c3.2-1.4,6.6-2.1,10.1-2V153.6z"/>
	<path class="st1" d="M108.6,171.9c-4.8,0-8.4,0.6-11.6,2.4h-1.9c-3.1-1.8-6.5-2.4-11.5-2.4v-16c-0.7-0.3-1.4-0.4-2.2-0.5v18.1
		c6.7,0,10.8,1.1,13.6,3h2.2c2.8-1.9,6.9-3,13.5-3v-18.1c-0.7,0.1-1.4,0.2-2.1,0.5V171.9z"/>
	<path class="st1" d="M95.3,156c-2.2-1.9-6.5-2.4-10.1-2.4v17c3.5-0.1,6.9,0.6,10.1,2V156z"/>
	<path class="st1" d="M67.8,180.6h51v-21.5c10.1,1,17.3-0.1,22.7-1.6v-51C100.9,107.1,68.4,140.6,67.8,180.6z M103.6,124h28.9
		c1,0,1.3,0.7,1.3,1s-0.2,0.4-0.3,0.4h-30.8c-0.2,0-0.4-0.2-0.4-0.4C102.3,124.5,102.7,124,103.6,124z M112.3,175.4
		c-8.1,0-12,1.1-14.7,2.7h-3c-2.8-1.6-6.7-2.7-14.8-2.7v-21.6c1.3,0,2.6,0.2,3.8,0.5v-2.1c5,0,8.8,0.3,12.5,2.4
		c3.4-2.1,7.7-2.4,12.5-2.4v2.1c1.2-0.3,2.4-0.5,3.7-0.5V175.4z M130,142.5c0.2,0.1,0.3,0.5,0.3,1.1c-0.1,1.2-1.1,2.2-2.3,2.2
		c0.4,0.3,0.6,0.8,0.5,1.3c-0.1,1.1-1,1.9-2.1,1.8c-0.1,0-0.1,0-0.2,0c-0.8-0.1-1.3-0.7-1.3-1.5c0.4,0.2,0.8,0.3,1.2,0.3
		c0.6,0,1.3-0.3,1.3-1c0-0.3-0.1-0.6-0.3-0.9c-0.7-0.2-1-0.4-1-1.2c0.5,0.2,1,0.2,1.5,0.2c0.8,0.1,1.5-0.5,1.6-1.3
		c0-0.3-0.1-0.6-0.3-0.9c-0.9,0.4-2,0.3-2.8-0.3c-0.7,3.8-3.5,9.3-8,9.5s-7.4-5.7-8.1-9.5c-0.8,0.6-1.9,0.7-2.8,0.3
		c-0.2,0.3-0.3,0.6-0.3,0.9c0,0.8,0.8,1.3,1.7,1.3c0.5,0,1,0,1.4-0.2c0,0.8-0.3,1-1,1.2c-0.2,0.3-0.3,0.6-0.3,0.9c0,0.7,0.7,1,1.3,1
		c0.4,0,0.8-0.1,1.2-0.3c0,0.1,0,0.1,0,0.2c-0.1,0.8-0.7,1.3-1.5,1.3c-1.1,0.1-2-0.7-2.1-1.8c-0.1-0.5,0.1-1,0.5-1.3
		c-1.2,0-2.2-1-2.3-2.2c0-0.6,0.1-1,0.3-1.1c-0.8-0.4-1.4-1.2-1.5-2.1c0-0.1,0-0.2,0-0.3c0.1-0.9,0.9-1.5,1.8-1.4
		c-0.3,0.3-0.5,0.7-0.5,1.2c0,0.9,0.9,1.6,2.2,1.6c0.6,0,1.3-0.2,1.8-0.5c-0.2-0.8,0.5-1.3,1.1-1.6c-0.2,0.7-0.1,1.4,0.2,2.1
		c0.5,1.5,2.6,1.5,2.6,2s-0.5,0.6-0.8,0.6c-0.7,0-1.3-0.4-1.7-1c0.7,2.8,3.1,7.4,6.8,7.4c3.7,0,6-4.6,6.7-7.4c-0.4,0.6-1,1-1.7,1
		c-0.3,0-0.8-0.4-0.8-0.6s2.1-0.5,2.6-2c0.3-0.7,0.4-1.4,0.2-2.1c0.7,0.3,1.3,0.8,1.1,1.6c0.6,0.3,1.2,0.5,1.8,0.5
		c1.4,0,2.2-0.7,2.2-1.6c0-0.5-0.2-0.9-0.5-1.2c0.1,0,0.2,0,0.3,0c0.9,0.1,1.5,0.8,1.5,1.7C131.4,141.3,130.8,142.1,130,142.5z
		 M107.7,137.7L107.7,137.7L107.7,137.7c0.2,0.4,0.6,0.7,1,0.7c1.3,0,3.3-2.7,2.8-2.6c-0.5,0.1-0.7,0.8-1.6,0.8s-1-0.7-0.9-1.2
		c2.7,0,2-1.8,5.3-1.8c1.5,0,2-2.1,3.8-2.1s2.2,2.1,3.7,2.1c3.3,0,2.6,1.8,5.3,1.8c0.1,0.5-0.3,1.2-0.9,1.2s-1.1-0.7-1.6-0.8
		c1,1.4,1.5,2.6,2.8,2.6c0.4,0,0.8-0.3,1-0.7c0.8,1,0.2,1.8-0.8,1.8s-2.7-1.7-3.6-2.8s-0.6-1.9-2.7-1.9s-1.8-2.1-3.2-2.1
		c-1.4,0-1.8,2.1-3.3,2.1s-1.2-0.4-2.6,1.9c-1.4,2.3-2.6,2.8-3.6,2.8C107.6,139.5,106.9,138.7,107.7,137.7L107.7,137.7z
		 M118.1,146.9c-0.5,0-1-0.1-1.5-0.2c-0.3,0-0.7,0-0.8,0.2l-0.2-0.8c0.3-0.2,0.7-0.3,1.1-0.3h2.7c0.4,0,0.8,0.1,1.1,0.3l-0.2,0.8
		c-0.1-0.2-0.3-0.2-0.8-0.2C119,146.7,118.9,146.9,118.1,146.9z M119.2,148.2c-0.2,0.4-0.6,0.7-1.1,0.7s-1-0.3-1.2-0.7
		c0-0.1,0.1-0.7,0.2-0.6s0.3,0.3,1,0.3c0.3,0,0.7-0.1,0.9-0.3C119.2,147.7,119.2,148.1,119.2,148.2z M116.6,139.4
		c-0.2,0-0.5-0.5-0.8-0.7l0,0c-0.1,0.5-0.5,0.8-1,0.8c-0.7,0-0.5-1-1-0.9s-0.7,0.6-1,0.6s-0.5-0.3-0.5-0.6c0-1,0.8-1.4,2.2-1.4
		c0.9,0,1.8,0.5,2.4,1.2C116.9,139,116.8,139.4,116.6,139.4z M118.1,143.8c0.3,0,0.3-0.5,1.6-0.5c0.2,0.3,0.3,0.6,0.3,1
		c-1,0-1,0.3-1.9,0.3s-1-0.3-2-0.3c0.1-0.3,0.2-0.7,0.3-1C117.7,143.3,117.8,143.8,118.1,143.8z M120.3,138.7
		c-0.3,0.2-0.7,0.7-0.8,0.7s-0.3-0.4-0.3-1c0.6-0.8,1.5-1.2,2.5-1.2c1.3,0,2.1,0.4,2.1,1.4c0,0.3-0.2,0.6-0.5,0.6s-1-1.2-1-0.6
		c0,0.6-0.3,0.9-1,0.9l0,0C120.8,139.5,120.3,139.2,120.3,138.7z M132.3,138.2L132.3,138.2c-2.7,0.1-5-2-5.1-4.7
		c0.1-0.8,0.3-1.5,0.7-2.2c-1.7,0.6-3.6,0.9-5.4,0.9c-1.1,0.1-2.1-0.4-2.8-1.2c6.2-0.1,8.7-1.6,11.5-1.6h0.1
		c1.8-0.1,3.2,1.3,3.3,3.1c0,0.1,0,0.1,0,0.2c0,1.4-1.2,2.6-2.6,2.6h-0.1c-1,0-1.8-0.7-1.9-1.7c0-0.1,0-0.1,0-0.2
		c0.1-0.4,0.4-0.6,0.8-0.6c0,0.5,0.4,0.8,1,0.8h0.1c0.6,0,1.1-0.5,1.1-1.1v-0.1c-0.1-0.9-0.9-1.5-1.8-1.4c-0.1,0-0.3,0-0.4,0
		c-1.3,0.1-2.2,1.2-2.1,2.5c0,1.9,1.3,3.2,3.8,3.2c0.1,0,0.2,0,0.3,0c2.2-0.1,3.9-2,3.8-4.2c0-3.6-2.8-4.8-5.1-4.8
		c-3.8,0-6.1,1-13.4,1s-9.7-1-13.5-1c-2.3,0-5.1,1.2-5.1,4.8c0,0.1,0,0.2,0,0.3c0.1,2.2,1.9,4,4.1,3.9c2.5,0,3.8-1.3,3.8-3.2
		c0-0.1,0-0.3,0-0.4c-0.1-1.3-1.2-2.2-2.5-2.1h-0.1c-0.9,0-1.6,0.6-1.7,1.5v0.1c0.1,0.6,0.6,1.1,1.2,1c0.6,0,1-0.3,1-0.8
		c0.1,0,0.1,0,0.2,0c0.4,0.1,0.6,0.4,0.6,0.8v0.1c-0.1,1-1,1.7-2,1.6l0,0c-1.5-0.1-2.7-1.3-2.6-2.8v-0.1c0.1-1.8,1.6-3.1,3.4-3
		c2.8,0,5.3,1.5,11.5,1.6c-0.7,0.8-1.7,1.3-2.8,1.2c-1.8,0-3.7-0.3-5.4-0.9c0.5,0.6,0.7,1.4,0.7,2.2l0,0c-0.1,2.7-2.4,4.8-5.1,4.7
		c-2.5,0-6.1-1.6-6.1-5.7l0,0c0-3.6,2.9-6.2,6.9-6.2s6.7,1.1,13.5,1.1s8.8-1.1,13.4-1.1c4.6,0,6.9,2.1,6.9,6.2
		S134.8,138.2,132.3,138.2z"/>
</g>
<g>
	<path class="st0" d="M95,202.4c0.9,0,1.4,0.6,1.4-0.9s-2.4-4.1-4.5-4.1c-0.8,0-1.2,0.4-1.2,1C91,200.6,92.8,202.3,95,202.4z"/>
	<path class="st0" d="M95.2,208.2c0.7,0,1.2,0.6,1.2-0.9s-2.2-3.9-5-3.9c-0.5,0-0.8-1.1-0.8,0.8S92.7,208.2,95.2,208.2z"/>
	<path class="st0" d="M97.5,202c-0.1,1.4-1,1.6-2,1.6c1,0.6,1.8,1.5,2,2.7c0.3-1.1,1-2.1,2-2.7C98.5,203.6,97.7,203.4,97.5,202z"/>
	<path class="st0" d="M99.7,202.4c2.2-0.1,4.1-1.8,4.3-4c0-0.1,0-0.1,0-0.2c-0.1-0.5-0.5-0.8-1-0.8c-2.2,0-4.3,3.5-4.3,4.1
		S99,202.4,99.7,202.4z"/>
	<path class="st0" d="M91.7,209.2c-0.5,0-1,0.2-1,0.8c0.2,2.3,2,4.1,4.3,4.2l0,0c0.9,0,1.4,0.7,1.4-1.1
		C96.4,211.3,94.2,209.2,91.7,209.2z"/>
	<path class="st0" d="M97.5,199.2c0.9,0,2-2,2-3.9s-1.3-3.8-2-3.8c-0.6,0-2,1.5-2,3.8S96.6,199.2,97.5,199.2z"/>
	<path class="st0" d="M99.4,209.5c-1,0-1.7-0.3-1.9-1.4c-0.1,1.1-0.8,1.4-1.8,1.4c0.9,0.7,1.6,1.7,1.8,2.8
		C97.7,211.2,98.4,210.2,99.4,209.5z"/>
	<path class="st0" d="M98.7,207.3c0,0.5,0.2,0.9,1,0.9l0,0h0.1c2.2,0.1,3.9-1.7,4-3.8c0-0.7-0.3-0.8-1.1-0.8
		C100.6,203.7,98.9,205.3,98.7,207.3z"/>
	<path class="st0" d="M119,183H67.8c0.6,40.1,33.1,73.7,73.7,74.2v-38.8C128.9,215.2,119.3,202.3,119,183z M89.1,225.5l-1.2-1.3
		c3.3-1.1,4.5-4.6,8.6-5.5V215c-0.5,0.3-1,0.5-1.6,0.5c-2.7,0-5.7-2.9-5.7-6l-5.1-5.1l1-0.8l4.8,4.6c0.4-0.2,0.8-0.4,1.3-0.4
		c-1.3-1-2-2.5-2.1-4.1l-5-5.2l1-0.8l4.6,4.7c0.4-0.3,0.9-0.4,1.4-0.4c-1.2-1-1.9-2.5-1.9-4.1l-5-5.2l1-0.9l4.9,4.8
		c0.4-0.4,0.9-0.6,1.5-0.6c1,0.1,2,0.4,2.9,1c-0.2-0.7-0.3-1.3-0.3-2c0-1.9,1-3.6,2.5-4.7l0.2-5.8h1.3l0.2,5.8
		c1.5,1.1,2.4,2.8,2.4,4.7c0.1,0.7-0.1,1.5-0.4,2.1c0.8-0.7,1.8-1.1,2.9-1.1c0.7-0.1,1.3,0.2,1.7,0.8l4.8-5l1,0.9l-5.1,5.4
		c-0.2,1.6-1,3.1-2.4,4c0.5,0,1.1,0.1,1.5,0.5l5-4.9l1,0.8l-5.3,5.2c0.1,1.7-0.8,3.3-2.3,4.2c0.6-0.1,1.2,0.1,1.6,0.5l5-4.8l1,0.8
		l-5.1,5.3c-0.1,3.1-2.6,5.6-5.7,5.8c-0.5,0-1.1-0.1-1.5-0.5v3.5h0.1c5.9,0,6.4,5.8,12.3,5.8s5.9-5.7,12.3-5.7
		c6.4,0,6.4,5.7,12.3,5.7v1.9c-6.4,0.2-6.9-5.7-12.3-5.7s-5.9,5.7-12.3,5.7s-8-5.7-12.4-5.7C94.1,220.5,92.8,224.5,89.1,225.5z
		 M92,228.9c1.6-1.5,3.4-3,6.6-3c5.9,0,6.4,5.8,12.3,5.8s6.1-5.7,12.3-5.7c6.4,0,6.4,5.7,12.3,5.7v1.8c-6.4,0.3-6.9-5.6-12.3-5.6
		s-5.9,5.6-12.3,5.6s-7.3-5.6-12.4-5.6c-2.4,0-3.8,1.2-5.2,2.4L92,228.9z M98.9,235.5l-2.1-1.8l1.8-0.2c5.9,0,6.4,5.8,12.3,5.8
		s6.1-5.7,12.3-5.7c6.4,0,6.4,5.7,12.3,5.7v1.9c-6.4,0.2-6.9-5.7-12.3-5.7s-5.9,5.7-12.3,5.7C104.5,241.2,103.7,235.7,98.9,235.5z
		 M135.6,248.8c-6.3,0.3-6.8-5.6-12.3-5.6c-3,0-4.4,1.7-6.2,3.3c-0.6-0.2-1.2-0.5-1.8-0.9c2.3-1.7,3.7-4.3,8-4.3
		c6.4,0,6.4,5.6,12.3,5.6V248.8z"/>
	<path class="st0" d="M98.7,213.1c0,0.6,0.3,1.1,1.2,1.1c2.3-0.1,4.1-1.9,4.3-4.2c0-0.6-0.7-0.8-1.5-0.8
		C100.6,209.4,98.9,211,98.7,213.1z"/>
</g>
<g>
	<path class="st1" d="M176.8,231.2c-0.4-0.2-0.8-0.2-1.2-0.2h-0.3c-1,0.3-1.5,1.4-1.2,2.4c0.2,0.5,0.5,0.9,1,1.1
		c0.4,0.3,0.9,0.3,1.4,0.2c0.5-0.2,0.9-0.5,1.1-1v0.1c0.3-0.5,0.3-1,0.2-1.5S177.3,231.4,176.8,231.2z"/>
	<polygon class="st1" points="170.1,233.9 168.8,233.9 169.5,236.1 169.5,236 170.5,235.2 	"/>
	<path class="st1" d="M165.2,235.6l-0.6,0.4l-2.8-3.2l0.5-0.5c0.7-0.6,1.1-1.3,1.3-2.2l-1.5-0.8c-0.6,0.6-1,1.4-1.1,2.3v0.8
		l-4.4-0.4v-0.8c0.1-0.8-0.1-1.7-0.6-2.4l-1.8,0.6c0.1,0.9,0.4,1.7,1,2.3l0.5,0.5l-3.3,3l-0.5-0.6c-0.6-0.7-1.3-1.1-2.2-1.3
		l-0.8,1.5c0.7,0.6,1.5,1,2.4,1.1h0.7l-0.4,4.3H151c-0.9-0.1-1.8,0.1-2.5,0.6l0.6,1.7c0.8-0.1,1.6-0.5,2.3-1l0.6-0.4l2.9,3.2
		l-0.6,0.5c-0.6,0.6-1.1,1.4-1.4,2.2l1.6,0.8c1-0.6,1.1-2.3,1.1-2.3v-0.8l4.3,0.4v0.8c-0.1,0.9,0.2,1.7,0.7,2.4l1.6-0.5
		c0-0.9-0.3-1.7-0.9-2.4l-0.5-0.6l3.3-2.9l0.5,0.7c0,0,1.1,1.3,2.2,1.2l0.8-1.6c-0.6-0.6-1.4-0.9-2.3-0.9h-0.8l0.4-4.3h0.7l0.1-0.1
		c0.9,0,1.7-0.2,2.5-0.7l-0.5-1.5C166.8,234.8,165.9,235.1,165.2,235.6z M161.8,240.7c-0.5,1-1.4,1.7-2.4,2h-0.5
		c-0.9,0.2-1.8,0.1-2.6-0.3c-0.9-0.6-1.6-1.4-2-2.4c-0.3-1-0.2-2.1,0.3-3.1s1.3-1.7,2.3-2s2.1-0.3,3.1,0.2v0.1c1,0.5,1.7,1.4,2,2.4
		C162.4,238.6,162.4,239.8,161.8,240.7z"/>
	<path class="st1" d="M159.4,236.5c-0.6-0.3-1.4-0.4-2-0.1c-0.7,0.2-1.3,0.7-1.6,1.3c-0.6,1.3-0.1,2.9,1.2,3.5s2.9,0.1,3.5-1.2
		c0.3-0.6,0.4-1.3,0.2-2C160.5,237.4,160,236.9,159.4,236.5z"/>
	<path class="st1" d="M166.4,183c-0.3,19.3-10.1,32.2-22.6,35.4v38.8c40-0.5,73.5-34.1,74-74.2L166.4,183L166.4,183z M185.7,233.5
		l-0.6,3.2h-0.5c-1.3,0.5-2.8,0.3-4-0.4l-0.9,1c1.1,1.1,1.4,2.7,0.9,4.1l-0.2,0.3l-3.1,1.1l-0.3-0.2c-1.2-0.9-1.9-2.3-1.8-3.8
		l-1.3-0.3c-0.6,1.3-1.7,2.3-3,2.7l-0.4,0.2l-2.4-2.3v-0.3c0-0.3,0-0.5,0.1-0.8c-0.7,0.4-1.4,0.6-2.2,0.7v1.4c1,0.3,2.6,0.8,3,2.2
		v0.3l-1.4,2.8h-0.3c-1.3,0.3-2.7-0.1-3.7-1.1l-1,0.9c0.8,1.1,1,2.4,0.7,3.7l-3.2,1l-0.3-0.2c-1-0.8-1.6-2-1.6-3.3h-1.4
		c-0.2,1.3-1.1,2.5-2.3,3h-0.3l-2.8-1.4v-0.3c-0.2-1.3,0.2-2.7,1.2-3.6l-0.9-1c-0.9,0.5-2.5,1.2-3.7,0.6l-0.3-0.2l-1-3l0.2-0.3
		c0.6-1.3,2.3-1.6,3.3-1.6l0.2-1.4c-1.3-0.2-2.5-1-3.1-2.2v-0.3l1.4-2.8h0.3c1.3-0.3,2.7,0.1,3.6,1.1l1.1-0.9
		c-0.9-1-1.1-2.4-0.7-3.7l0.2-0.3l3.1-1l0.3,0.2c1.1,0.7,1.7,2,1.6,3.3h1.4c0.2-1.3,1.1-2.5,2.3-3h0.3l2.8,1.4v0.3
		c0.2,1.3-0.2,2.7-1.2,3.6l0.9,1.1c0.7-0.5,1.6-0.8,2.5-0.8l-0.8-0.6l-0.3-0.3l0.7-3.5h0.5c1.3-0.4,2.7-0.2,3.9,0.5l0.8-1
		c-0.9-1.2-1.2-2.7-0.7-4.1v-0.3l3-1l0.3,0.2c1.3,0.8,2,2.2,1.9,3.7l1.3,0.3c0.5-1.2,1.5-2.2,2.8-2.7h0.5l2.6,2.3v0.4
		c-0.3,1.3-1.1,2.5-2.3,3.2l0.5,1.3c1,0,2.9,0,3.8,1.4L185.7,233.5L185.7,233.5z M206.6,209.7l-3.6-3.9L181.3,223v-8.7l-12.2,7.8
		V217l-9.7,6.2v-2.3l11.3-7.1v5.1l12.2-7.8v8.3l20.1-15.6l1.9,2v-5.7h-5l1.5,1.8l-16.2,11.9v-8.1l-12.7,8.1V208l-10.9,6.6v-2.3
		l12.5-7.6v5.9l12.7-8.1v8.1l12-9l-2.4-3.1h10.2L206.6,209.7L206.6,209.7z M204.7,192.3l-16.2,11.8v-7.2l-12.8,8.1v-5.8l-10.4,6.1
		V203l12-7v5.7l12.9-8.1v7.2l14.5-10.6l2,2.1v-5.4h-5l1.4,1.8l-10.8,7.5v-6.9l-11.7,6.9v-6.5l-12,6.5v-2.4l13.6-7.3v6.5l11.7-6.9
		v6.9l6.7-4.8l-2.3-2.9h10v10.9L204.7,192.3z"/>
	<path class="st1" d="M181.6,232.9H181l-1.4-3.7l0.6-0.3c0.8-0.5,1.5-1.2,2-2l-1.2-1.1c-0.9,0.4-1.5,1.1-1.7,2l-0.2,0.8h-0.8
		l-3.3-0.8v-0.7c0,0,0.2-1.9-0.8-2.7l-1.6,0.5c-0.3,1.3,1,2.6,1,2.7l0.5,0.5l-2.8,3.2l-0.6-0.6c-0.7-0.6-1.6-0.9-2.5-0.7l-0.4,1.6
		c0.9,0.4,1.8,0.6,2.8,0.5h0.6l1.2,3.8l-0.6,0.3c-0.5,0.2-1.8,1-1.9,2l1.1,1.1c0.9-0.4,1.5-1.2,1.8-2.1l0.2-0.8l0.7,0.2l3.4,0.7v0.7
		c0,0-0.3,1.9,0.7,2.8l1.7-0.6c0.1-1-0.3-1.9-1-2.6l-0.6-0.6l2.9-3.1l0.6,0.5c0.7,0.7,1.7,0.9,2.6,0.7l0.3-1.7
		C183.5,232.9,182.6,232.7,181.6,232.9z M178.8,234.3c-0.4,0.8-1.1,1.4-1.9,1.6h-0.4c-0.7,0.1-1.4,0-2-0.3c-0.8-0.4-1.4-1.1-1.7-1.9
		c-0.5-1.7,0.4-3.5,2.1-4.1c0.8-0.2,1.7-0.2,2.5,0.2v0.1c0.8,0.4,1.3,1.1,1.6,1.9C179.3,232.7,179.3,233.6,178.8,234.3z"/>
</g>
<g>
	<path class="st2" d="M158.1,197.5c-0.3-0.1-0.5,0-0.7,0.4l-0.6,1.3l0.9,0.3l0.5-1.3C158.4,197.8,158.4,197.6,158.1,197.5z"/>
	<path class="st2" d="M156.4,197.1c-0.3-0.2-0.5,0-0.7,0.4l-0.4,1l0.8,0.3l0.5-1C156.7,197.5,156.7,197.3,156.4,197.1z"/>
	<path class="st2" d="M129.4,196.3l-0.4-0.8l-2.2,0.9l0.3,0.8c0.3,0.8,0.8,1.1,1.6,0.8C129.5,197.7,129.7,197.2,129.4,196.3z"/>
	<path class="st2" d="M155.1,174.9h-10.6v-9.5h-3.9v9.5h-10.6v4.1h10.6v20.4c0.5,0.5,1.3,0.8,2,0.9c0.7-0.1,1.4-0.4,1.9-0.9V179
		h10.6V174.9z"/>
	<polygon class="st2" points="155,202.1 153.3,201.8 154.2,203.2 	"/>
	<path class="st2" d="M142.7,159.1c-4.6,1.5-10.4,2.5-22,1.8v20.9c0,18.7,9.2,31.9,22,34.8c12.7-2.9,21.9-16.1,21.9-34.8v-20.9
		C153,161.6,147.2,160.6,142.7,159.1z M124.3,188.1l4.3-0.4l0.3,3.4l-0.9,0.1l-0.2-2.4l-1,0.1l0.2,2l-0.8,0.1l-0.2-2l-1.6,0.1
		L124.3,188.1z M124.7,192.9l4.2-0.9l0.2,1l-4.2,0.9L124.7,192.9z M126.2,197.4l-0.7-1.6l4.1-1.5l0.6,1.6c0.6,1.6,0.2,2.6-1.1,3.1
		C127.8,199.5,126.8,199,126.2,197.4z M130,201.5l-0.7,0.4l1.3,2.1l-0.7,0.5l-1.9-2.9l3.7-2.4l1.8,2.9l-0.8,0.4l-1.3-1.9l-0.7,0.4
		l1,1.8l-0.6,0.4L130,201.5z M135.6,206.2l-0.5,0.2l-0.6-0.8h0.3c0.2-0.2,0.3-0.5-0.2-1c-0.5-0.5-0.7-0.5-1-0.3
		c-0.3,0.2,1.7,2.2,0.5,3.3c-1.2,1.1-1.3,0.4-2.2-0.5s-0.9-1.8-0.3-2.3c0.3,0.1,0.5,0.3,0.7,0.5c-0.3,0.4-0.3,0.7,0.2,1.3
		c0.5,0.6,0.7,0.5,1,0.3c0.3-0.2-1.8-2.2-0.5-3.3c1.3-1.1,1.3-0.5,2.2,0.5C136.1,205.1,136,205.8,135.6,206.2z M142.3,210.8h-3.5
		v-4.3h3.4v0.9h-2.4v0.9h2v0.8h-2v0.8h2.5V210.8z M142.7,202.3c-1.3-0.3-2.5-0.9-3.6-1.6v-20h-10.8v-7.4h10.8v-9.7h7.2v9.7h10.7v7.4
		h-10.7v20C145.1,201.4,143.9,201.9,142.7,202.3z M146.7,207.5h-1.5v3.3h-0.9v-3.3h-1.5v-1h3.9V207.5z M151.7,208.7l-3-3.1l0.7-0.7
		l2.4,2.5l1.6-1.6l0.6,0.7L151.7,208.7z M157,202.6l-1.2-0.3l-1.1,1.7c0.1,0.3,0.4,0.6,0.6,1l-0.6,0.8c-1.6-2.5-2.4-4.1-2.4-4.1
		l0.6-0.9l4.7,0.9L157,202.6z M159.1,198.6l-1,2.2l-4-1.8l0.9-2c0.4-0.9,1-1.1,1.6-0.8c0.4,0.1,0.6,0.4,0.6,0.8
		c0.3-0.5,0.9-0.7,1.3-0.4c0,0,0,0,0.1,0C159.4,197,159.5,197.6,159.1,198.6z M160.8,193.5c0,0.1,0,0.1,0,0.2
		c-0.1,1.2-1.1,2-2.3,1.9c-0.1,0-0.3,0-0.4-0.1c-1.1-0.2-1.9-1.3-1.7-2.4c0-0.1,0.1-0.2,0.1-0.4c0.1-1.2,1.1-2,2.3-1.9
		c0.1,0,0.3,0,0.4,0.1C160.3,191.2,161.1,192.4,160.8,193.5z M161.5,187.3l-1.3,0.6v1.1h1.3v1l-4.3-0.3v-2.1
		c0.1-1.1,0.7-1.7,1.7-1.6c0.5,0,1,0.3,1.2,0.8l1.6-0.8L161.5,187.3z"/>
	<path class="st2" d="M158.6,187.2c-0.4,0-0.7,0.1-0.7,0.7v1.1l1.3,0.1V188C159.2,187.4,159,187.2,158.6,187.2z"/>
	<path class="st2" d="M159.1,192c-0.1,0-0.2-0.1-0.3-0.1c-0.6-0.2-1.2,0.1-1.4,0.6c0,0.1-0.1,0.2-0.1,0.4c-0.2,0.8,0,1.4,0.9,1.6
		c0.6,0.2,1.3-0.1,1.5-0.7c0-0.1,0.1-0.2,0.1-0.3C160.1,192.9,159.7,192.2,159.1,192z"/>
</g>
</svg>
