<svg id="Capa_1" data-name="Capa 1" xmlns="http://www.w3.org/2000/svg" width="202.5mm" height="113.1mm" viewBox="0 0 574 320.7"><defs><style>.cls-1{fill:#24588d;}.cls-2{fill:#a95153;}.cls-3{fill:#af8f6e;}.cls-4{fill:#fff;}</style></defs><title>logo-pucv</title><path class="cls-1" d="M275.3,122.5a5.8,5.8,0,0,1-2.1-.3v-.6h.7a3.3,3.3,0,0,0,2.1-.6c1-.7,1.5-2.1,1.5-4.1,0-4.4-2.5-4.5-4.1-4.5h-1.3v13.4c0,2.4,0,3.4.5,4a2.5,2.5,0,0,0,2.3.9v.6l-4.9-.2a30.3,30.3,0,0,0-4.1.2v-.6a1.8,1.8,0,0,0,1.5-.7c.5-.5.6-1.4.6-4V115.6c0-2-.1-2.6-.4-3.1a2.7,2.7,0,0,0-1.6-.8v-.5h8.3a16.8,16.8,0,0,1,3.5.3,4.9,4.9,0,0,1,4.2,5.1c0,4.1-3.1,5.9-6.7,5.9"/><path class="cls-1" d="M294.7,131.6c-6.3,0-10.1-3.8-10.1-10S288.7,111,295,111s10.1,3.9,10.1,10-4,10.6-10.4,10.6m.2-19.2c-4.2,0-5.7,3.9-5.7,8.8s1.8,9.1,5.7,9.1,5.6-4,5.6-8.9-1.7-9-5.6-9"/><path class="cls-1" d="M327.1,112.4c-.5.6-.6,1.4-.6,4.1v15h-1.7L313.2,116l-.8-1.2V127c0,1.9.1,2.6.4,3a1.9,1.9,0,0,0,1.6.8v.6l-2.9-.2a16.7,16.7,0,0,0-3,.2v-.6a1.9,1.9,0,0,0,1.5-.7c.5-.5.5-1.4.5-4V115.6c0-2-.1-2.6-.4-3.1a2.1,2.1,0,0,0-1.5-.8v-.5h6.2l8.8,11.8a7.1,7.1,0,0,1,1,1.5v-8.9c0-2-.1-2.6-.4-3.1a2.1,2.1,0,0,0-1.5-.8v-.5h5.9v.5a2.1,2.1,0,0,0-1.5.7"/><path class="cls-1" d="M345.7,115.2a2.5,2.5,0,0,0-1.1-2.1c-.6-.4-1.2-.4-3.1-.4h-1.2V127c0,1.9.1,2.6.4,3s1.9.8,2.2.8v.6l-4.7-.2-4.7.2v-.6a3.6,3.6,0,0,0,2.1-.7c.5-.6.5-1.4.5-4V112.7H335c-1.9,0-2.5,0-3.2.4a2.4,2.4,0,0,0-1,2.1h-.7c.1-1.4.1-3.9.1-3.9h16s0,2.5.1,3.9Z"/><path class="cls-1" d="M355,112.4c-.5.6-.6,1.4-.6,4.1V127c0,1.9.1,2.6.4,3a1.9,1.9,0,0,0,1.6.8v.6l-4.1-.2-4.1.2v-.6a1.9,1.9,0,0,0,1.5-.7c.5-.5.5-1.4.5-4V115.6c0-2-.1-2.6-.4-3.1a2.1,2.1,0,0,0-1.5-.8v-.5h8.2v.5a2.1,2.1,0,0,0-1.5.7"/><path class="cls-1" d="M372.8,115.2a2.4,2.4,0,0,0-1-2.1c-.7-.4-1.3-.4-3.2-.4h-2.5v7.5h2.6a3.7,3.7,0,0,0,2.5-.6,2.5,2.5,0,0,0,.8-1.8h.6c0,.7-.1,1.1-.1,3.1s.1,2.2.1,2.9H372a2.7,2.7,0,0,0-.7-1.6,3.9,3.9,0,0,0-2.7-.6h-2.5V127c0,1.9.1,2.6.4,3s1.9.8,2.2.8v.6l-4.7-.2-4.2.2v-.6a1.8,1.8,0,0,0,1.5-.7c.6-.5.6-1.4.6-4V115.6c0-2-.1-2.6-.4-3.1a2.2,2.2,0,0,0-1.6-.8v-.5h13.5s0,2.5.1,3.9Z"/><path class="cls-1" d="M383.1,112.4c-.6.6-.6,1.4-.6,4.1V127c0,1.9.1,2.6.4,3a1.7,1.7,0,0,0,1.6.8v.6l-4.2-.2-4.1.2v-.6a1.8,1.8,0,0,0,1.5-.7c.6-.5.6-1.4.6-4V115.6c0-2-.1-2.6-.4-3.1a2.4,2.4,0,0,0-1.6-.8v-.5h8.3v.5a2.1,2.1,0,0,0-1.5.7"/><path class="cls-1" d="M403.6,115.2a2.2,2.2,0,0,0-.8-1.8,5.6,5.6,0,0,0-3.5-.9c-2.7,0-6.8.5-6.8,8.9,0,5.1,1.7,8.6,6.9,8.6,1.1,0,2.6-.1,3.4-1.1a2.7,2.7,0,0,0,.7-1.9h.6a31.2,31.2,0,0,0-.1,3.3v.5a17.7,17.7,0,0,1-5.2.7c-3.8,0-7.1-1.1-9-3.5a9.9,9.9,0,0,1-1.9-6.3,10.1,10.1,0,0,1,6.9-10,14.1,14.1,0,0,1,4.7-.7,42.1,42.1,0,0,1,4.8.4,10.9,10.9,0,0,0-.1,1.9,9.8,9.8,0,0,0,.1,1.9Z"/><path class="cls-1" d="M414.5,112.4c-.6.6-.6,1.4-.6,4.1V127c0,1.9.1,2.6.4,3a1.8,1.8,0,0,0,1.6.8v.6l-4.2-.2-4.1.2v-.6a1.8,1.8,0,0,0,1.5-.7c.6-.5.6-1.4.6-4V115.6c0-2-.1-2.6-.4-3.1a2.2,2.2,0,0,0-1.6-.8v-.5H416v.5a2.1,2.1,0,0,0-1.5.7"/><path class="cls-1" d="M433.3,131.2l-4,.2v-.6c.7,0,1.2-.1,1.4-.4a.7.7,0,0,0,.3-.6,7.1,7.1,0,0,0-.5-1.8l-1.4-4.2h-5.8l-1.5,4.3a5.8,5.8,0,0,0-.5,1.7c0,.3,0,.5.2.6a1.9,1.9,0,0,0,1.4.4v.6l-2.9-.2-2.8.2v-.6a1.9,1.9,0,0,0,1.5-.9,33.1,33.1,0,0,0,1.5-3.3l6.3-15.4,2.3-.4,5.5,15.5c.7,2.1,1.3,3.4,1.4,3.7a1.9,1.9,0,0,0,1.5.8v.6l-3.9-.2m-6.1-12.8a16.1,16.1,0,0,1-.8-2.8l-2.6,6.9h4.8Z"/><path class="cls-1" d="M284.4,147.8c-.5.6-.6,1.5-.6,4.1v6.2c0,2.3,0,3.8-.5,4.9-1.4,3.7-5.3,4-7.8,4-5.2,0-6.9-1.8-7.7-3.9a14.5,14.5,0,0,1-.5-5.1v-7c0-2-.1-2.6-.4-3.1a2.7,2.7,0,0,0-1.6-.8v-.5h8.2v.5a2.3,2.3,0,0,0-1.5.7c-.5.6-.5,1.5-.5,4.1V160c0,2.8.2,5.6,4.7,5.6s4.7-3.2,4.7-5.6v-9c0-2-.1-2.6-.4-3.1a2.7,2.7,0,0,0-1.6-.8v-.5h7v.5a2.3,2.3,0,0,0-1.5.7"/><path class="cls-1" d="M307.3,147.8c-.5.6-.5,1.5-.5,4.1v15H305l-11.6-15.5a6.4,6.4,0,0,1-.7-1.2v12.2c0,1.9,0,2.6.4,3.1a1.8,1.8,0,0,0,1.5.7v.6h-5.9v-.6a2.1,2.1,0,0,0,1.5-.6c.5-.6.5-1.5.5-4.1V151c0-2-.1-2.6-.4-3.1a2.1,2.1,0,0,0-1.5-.8v-.5H295l8.8,11.8a7.1,7.1,0,0,1,1,1.5V151c0-2-.1-2.6-.4-3.1a2.1,2.1,0,0,0-1.5-.8v-.5h5.9v.5a2.3,2.3,0,0,0-1.5.7"/><path class="cls-1" d="M318.5,147.8c-.5.6-.5,1.5-.5,4.1v10.5c0,1.9.1,2.6.4,3.1a1.8,1.8,0,0,0,1.5.7v.6h-8.2v-.6a2.1,2.1,0,0,0,1.5-.6c.5-.6.6-1.5.6-4.1V151c0-2-.1-2.6-.4-3.1a2.7,2.7,0,0,0-1.6-.8v-.5H320v.5a2.3,2.3,0,0,0-1.5.7"/><path class="cls-1" d="M340.4,148a28,28,0,0,0-1.5,3.4l-6.3,15.4-2.4.4-5.5-15.6a32.7,32.7,0,0,0-1.4-3.6,1.7,1.7,0,0,0-1.4-.9v-.5h7.9v.5a2.5,2.5,0,0,0-1.5.4,1.4,1.4,0,0,0-.2.7,5.4,5.4,0,0,0,.4,1.7l3.4,9.6c.6,1.9.8,2.8.8,2.8s.4-1,1-2.8l3.6-9.6a7.1,7.1,0,0,0,.5-1.8.9.9,0,0,0-.3-.6c-.3-.3-1-.3-1.4-.4v-.5h5.8v.5a1.9,1.9,0,0,0-1.5.9"/><path class="cls-1" d="M356.6,166.7H343v-.6a2.1,2.1,0,0,0,1.5-.6c.5-.6.5-1.5.5-4.1V151c0-2-.1-2.6-.4-3.1a2.1,2.1,0,0,0-1.5-.8v-.5h13.4s0,2.5.1,3.9H356a2.7,2.7,0,0,0-1.1-2.1c-.7-.4-1.3-.4-3.2-.4h-2.5v7.5h2.6a4.4,4.4,0,0,0,2.5-.5,3,3,0,0,0,.8-1.8h.6v6h-.6a2.5,2.5,0,0,0-.7-1.7c-.6-.6-1.6-.6-2.7-.6h-2.5v6.7c0,1.4.3,1.6,1.9,1.6h.5c1.7,0,3-.1,3.7-.8a3.7,3.7,0,0,0,.8-2.1h.6c-.1,1.4-.1,4.3-.1,4.3"/><path class="cls-1" d="M377.4,166.9c-3.2,0-3.9-1.3-5-2.6s-3-3.9-4.5-6.1h-1.3v4.2c0,1.9.1,2.6.4,3.1a2.2,2.2,0,0,0,1.6.7v.6h-8.1v-.6a1.9,1.9,0,0,0,1.5-.6c.5-.6.6-1.5.6-4.1V151c0-2-.1-2.6-.4-3.1a2.7,2.7,0,0,0-1.6-.8v-.5h8a15.9,15.9,0,0,1,3.5.3,4.8,4.8,0,0,1,4,4.9c0,1.5-.5,4.4-4.4,5.5l5.2,6c1.5,1.7,2.5,2.9,3.8,2.9v.5a15.2,15.2,0,0,1-3.3.2m-9.5-19.1h-1.3v9h2.7c.4-.2,2.4-.5,2.4-4.7s-2.6-4.4-3.8-4.4"/><path class="cls-1" d="M387.2,166.9a19.7,19.7,0,0,1-4.8-.6v-.5a28.2,28.2,0,0,0-.2-3.4h.7a3.2,3.2,0,0,0,1,2.2,5.1,5.1,0,0,0,3.1.9c4,0,4-2.6,4-3.3s-1.2-2.7-2.9-3.7l-1.7-1.1c-2.2-1.4-3.7-2.7-3.7-5.6s.8-5.4,7.1-5.4a25.2,25.2,0,0,1,4.7.4,10.8,10.8,0,0,0-.1,1.6,14,14,0,0,0,.1,2.2h-.6a3.1,3.1,0,0,0-.9-1.8,4.5,4.5,0,0,0-3.1-1c-3.1,0-3.5,1.8-3.5,2.9s.9,2.3,2.6,3.3l1.9,1.2c2.5,1.5,4,2.8,4,5.9s-3.3,5.8-7.7,5.8"/><path class="cls-1" d="M405.4,147.8c-.5.6-.6,1.5-.6,4.1v10.5c0,1.9.1,2.6.4,3.1a2.2,2.2,0,0,0,1.6.7v.6h-8.2v-.6a2.1,2.1,0,0,0,1.5-.6c.5-.6.5-1.5.5-4.1V151c0-2-.1-2.6-.4-3.1a2.1,2.1,0,0,0-1.5-.8v-.5h8.2v.5a2.1,2.1,0,0,0-1.5.7"/><path class="cls-1" d="M422.8,166.3a17.7,17.7,0,0,1-4.9.5h-7.7v-.6a1.9,1.9,0,0,0,1.5-.6c.6-.6.6-1.5.6-4.1V151c0-2-.1-2.6-.4-3.1a2.4,2.4,0,0,0-1.6-.8v-.5h8.4c2.8,0,11.2.3,11.2,9.5,0,7.2-4.2,9.4-7.1,10.2M418.7,148h-2.2v15.6c0,.9.1,1.4.7,1.6h1.5c4.7,0,6.7-2.5,6.7-8.8s-4.1-8.6-6.7-8.6"/><path class="cls-1" d="M447,166.7h-4.1v-.6a2.6,2.6,0,0,0,1.5-.3.8.8,0,0,0,.2-.7,5.9,5.9,0,0,0-.4-1.8l-1.5-4.2H437l-1.6,4.3a4.9,4.9,0,0,0-.4,1.7.8.8,0,0,0,.2.7,2.2,2.2,0,0,0,1.4.3v.6h-5.7v-.6a1.7,1.7,0,0,0,1.5-.9,33.1,33.1,0,0,0,1.5-3.3l6.3-15.4,2.2-.4,5.6,15.5c.7,2.1,1.3,3.5,1.4,3.7s.6.9,1.4.8v.6H447m-6.1-12.9a24.9,24.9,0,0,1-.9-2.8l-2.5,6.9h4.8Z"/><path class="cls-1" d="M465.4,166.3a18,18,0,0,1-5,.5h-7.6v-.6a1.9,1.9,0,0,0,1.5-.6c.5-.6.6-1.5.6-4.1V151c0-2-.1-2.6-.4-3.1a2.7,2.7,0,0,0-1.6-.8v-.5h8.4c2.8,0,11.2.3,11.2,9.5,0,7.2-4.2,9.4-7.1,10.2M461.3,148h-2.2v15.6c0,.9.1,1.4.7,1.6h1.5c4.6,0,6.6-2.5,6.6-8.8s-4-8.6-6.6-8.6"/><path class="cls-1" d="M288.6,187.3a3.1,3.1,0,0,0-1.1-2.5c-1.4-1.2-3.6-1.4-5-1.4-3.8,0-9.7.8-9.7,12.6,0,7.3,2.5,12.3,9.9,12.3,1.5,0,3.6-.2,4.8-1.6a3.9,3.9,0,0,0,.9-2.6h.9c-.1,1.2-.2,2.6-.2,4.6v.8a28.6,28.6,0,0,1-7.3.9c-5.5,0-10.1-1.5-12.8-4.9a13.9,13.9,0,0,1-2.7-8.9c0-7.5,4.3-12.3,9.8-14.3a20.8,20.8,0,0,1,6.6-.9c3.4,0,6.5.4,6.9.4a25.3,25.3,0,0,0-.1,2.7,21,21,0,0,0,.1,2.8Z"/><path class="cls-1" d="M314.2,210.1l-5.7.2v-.8a3,3,0,0,0,2-.5,1.3,1.3,0,0,0,.4-1,7.3,7.3,0,0,0-.7-2.5l-2-6H300l-2.2,6.1a10.5,10.5,0,0,0-.7,2.4,1.3,1.3,0,0,0,.4,1c.4.4,1.4.4,2,.5v.8l-4.2-.2a27.5,27.5,0,0,0-4,.2v-.8a2.4,2.4,0,0,0,2.1-1.3,38.3,38.3,0,0,0,2.2-4.7l9-21.9,3.2-.6,7.8,22.1c1.1,3,1.9,4.9,2,5.2a2.5,2.5,0,0,0,2.1,1.2v.8l-5.5-.2m-8.7-18.3c-.9-2.7-1.2-3.9-1.2-3.9l-3.6,9.7h6.8Z"/><path class="cls-1" d="M341.8,187.3a3.1,3.1,0,0,0-1.5-2.9c-.9-.6-1.8-.7-4.5-.7h-1.6V204c0,2.7.1,3.7.6,4.3s2.6,1.1,3,1.1v.9l-6.6-.2-6.8.2v-.8a4.8,4.8,0,0,0,3-1.1c.8-.8.8-1.9.8-5.7v-19h-1.6c-2.7,0-3.6.1-4.5.7a2.9,2.9,0,0,0-1.5,2.9h-.9c.2-2,.1-5.6.1-5.6h22.8s-.1,3.6.1,5.6Z"/><path class="cls-1" d="M359.6,210.6c-9,0-14.3-5.5-14.3-14.2s5.8-15,14.8-15,14.3,5.4,14.3,14.2-5.7,15-14.8,15m.3-27.3c-5.9,0-8.1,5.6-8.1,12.5s2.5,12.9,8,12.9,8.1-5.7,8.1-12.6-2.5-12.8-8-12.8m5.9-7.1-9.4,3.3-.5-.8,6.1-5.9h.3l3.7,2.8Z"/><path class="cls-1" d="M398.3,210.2H386.4c-2.4,0-4.8-.1-7.2.1v-.8a2.7,2.7,0,0,0,2.1-1c.7-.8.8-2,.8-5.8V187.8c0-2.7-.1-3.7-.6-4.4a2.7,2.7,0,0,0-2.2-1v-.8l6.4.2,6.4-.2v.8c-1.8.1-2.8.5-3.4,1.3s-.6,2.2-.6,5.6V206c0,1.9.3,2.2,2.7,2.2h.7c2.4,0,3.9-.1,5-1.2a4.5,4.5,0,0,0,1-2.9h.9c-.1,2-.1,6.1-.1,6.1"/><path class="cls-1" d="M412.5,183.3c-.8.8-.8,2.1-.8,5.8V204c0,2.8.1,3.7.5,4.4a3.1,3.1,0,0,0,2.3,1.1v.8l-5.9-.2-5.8.2v-.8a2.7,2.7,0,0,0,2.1-1c.7-.8.8-2,.8-5.8V187.8c0-2.7-.1-3.7-.6-4.4a2.7,2.7,0,0,0-2.2-1v-.8l5.9.2,5.8-.2v.8a2.8,2.8,0,0,0-2.1.9"/><path class="cls-1" d="M441.7,187.3a3.2,3.2,0,0,0-1.2-2.5c-1.3-1.2-3.6-1.4-4.9-1.4-3.8,0-9.7.8-9.7,12.6,0,7.3,2.5,12.3,9.8,12.3,1.6,0,3.7-.2,4.8-1.6a3.5,3.5,0,0,0,1-2.6h.9c-.1,1.2-.2,2.6-.2,4.6v.8a29.4,29.4,0,0,1-7.4.9c-5.4,0-10-1.5-12.7-4.9a13.9,13.9,0,0,1-2.7-8.9c0-7.5,4.2-12.3,9.8-14.3a20.8,20.8,0,0,1,6.6-.9c3.3,0,6.4.4,6.8.4a25.3,25.3,0,0,0-.1,2.7c0,1.2.1,2.2.1,2.8Z"/><path class="cls-1" d="M467.3,210.1l-5.8.2v-.8a3.4,3.4,0,0,0,2.1-.5,1.8,1.8,0,0,0,.4-1,10.9,10.9,0,0,0-.7-2.5l-2.1-6h-8.1l-2.2,6.1a7,7,0,0,0-.7,2.4,1.7,1.7,0,0,0,.3,1,4.6,4.6,0,0,0,2,.5v.8l-4.1-.2a26.8,26.8,0,0,0-4,.2v-.8a2.6,2.6,0,0,0,2.1-1.3,46.8,46.8,0,0,0,2.1-4.7l9.1-21.9,3.1-.6,7.9,22.1a39.9,39.9,0,0,0,2,5.2,2.3,2.3,0,0,0,2,1.2v.8l-5.4-.2m-8.7-18.3a24.8,24.8,0,0,1-1.2-3.9l-3.6,9.7h6.8Z"/><path class="cls-1" d="M495.5,209.7a18,18,0,0,1-5,.5h-7.6v-.5a2.3,2.3,0,0,0,1.5-.7c.5-.6.6-1.4.6-4.1V194.4c0-1.9-.1-2.6-.4-3a2.2,2.2,0,0,0-1.6-.8v-.5h8.4c2.8,0,11.2.2,11.2,9.5,0,7.2-4.2,9.4-7.1,10.1m-4.2-18.2h-2.1v15.6c0,.9.1,1.4.7,1.5h1.5c4.6,0,6.6-2.4,6.6-8.8s-4-8.5-6.7-8.5"/><path class="cls-1" d="M519.6,210.2H506v-.5a2.3,2.3,0,0,0,1.5-.7c.5-.6.5-1.4.5-4.1V194.4c0-1.9-.1-2.6-.4-3a1.8,1.8,0,0,0-1.5-.8v-.5h13.4s0,2.6.1,4H519a2.4,2.4,0,0,0-1.1-2.1c-.6-.4-1.3-.5-3.2-.5h-2.5V199h2.6a3.7,3.7,0,0,0,2.5-.5,2.5,2.5,0,0,0,.8-1.8h.6v6h-.6a2.2,2.2,0,0,0-.7-1.6,3.8,3.8,0,0,0-2.7-.7h-2.5v6.8c0,1.4.3,1.6,1.9,1.6h.6c1.6,0,2.9-.1,3.6-.9a3.4,3.4,0,0,0,.8-2h.6c-.1,1.4-.1,4.3-.1,4.3"/><path class="cls-1" d="M290.3,227.3a30.4,30.4,0,0,0-2.1,4.7l-9,21.7-3.2.6-7.8-21.9c-1.1-3-1.9-4.9-2-5.2a2.4,2.4,0,0,0-2.1-1.2v-.8l5.4.2,5.8-.2v.8a3,3,0,0,0-2,.5,1.3,1.3,0,0,0-.4,1,10.2,10.2,0,0,0,.6,2.5l4.8,13.5c.9,2.6,1.2,3.9,1.2,3.9s.4-1.4,1.4-4l5-13.5a9.7,9.7,0,0,0,.7-2.5,1.2,1.2,0,0,0-.4-.9c-.4-.4-1.3-.4-2-.5v-.8l4.2.2a26.8,26.8,0,0,0,4-.2v.8a2.4,2.4,0,0,0-2.1,1.3"/><path class="cls-1" d="M312.4,253.5l-5.8.2v-.8a3.4,3.4,0,0,0,2.1-.5,1.3,1.3,0,0,0,.4-.9,10.9,10.9,0,0,0-.7-2.5l-2.1-5.9h-8l-2.2,6a7,7,0,0,0-.7,2.4,1.2,1.2,0,0,0,.3.9,2.9,2.9,0,0,0,2,.5v.8l-4.1-.2-4,.2v-.8a2.2,2.2,0,0,0,2.1-1.2,30.4,30.4,0,0,0,2.1-4.7l9-21.8,3.1-.5,7.8,21.9c1.1,3,1.9,4.8,2,5.1a2.3,2.3,0,0,0,2.1,1.2v.8l-5.4-.2m-8.7-18.1c-.9-2.7-1.2-3.9-1.2-3.9l-3.5,9.7h6.7Z"/><path class="cls-1" d="M339.5,253.6H320.6v-.8a3.1,3.1,0,0,0,2.1-.9c.7-.8.8-2,.8-5.7V231.4c0-2.7-.2-3.6-.6-4.3a2.7,2.7,0,0,0-2.2-1.1v-.8l6.3.2,6.4-.2v.9c-1.8.1-2.8.4-3.4,1.3s-.6,2.2-.6,5.5v16.5c0,2,.4,2.2,2.7,2.2h.7c2.4,0,3.9,0,4.9-1.1a4.6,4.6,0,0,0,1.1-2.9h.9c-.2,2-.2,6-.2,6"/><path class="cls-1" d="M357.1,241.2a7.5,7.5,0,0,1-2.8-.4V240h.9a5,5,0,0,0,3.1-.9c1.4-1,2.1-3,2.1-5.7,0-6.3-3.6-6.4-5.8-6.4h-1.9v19c0,3.3,0,4.7.7,5.5s1.5,1.3,3.3,1.3v.8l-6.9-.2c-1.5,0-4,0-5.8.2v-.8a2.8,2.8,0,0,0,2.1-.9c.7-.8.8-2,.8-5.7V231.4c0-2.7-.1-3.6-.6-4.3a2.7,2.7,0,0,0-2.2-1.1v-.8l5.2.2h6.5a23.8,23.8,0,0,1,4.9.4c3.1.8,6,2.7,6,7.2s-4.4,8.3-9.6,8.3"/><path class="cls-1" d="M388.4,253.5l-5.7.2v-.8a3,3,0,0,0,2-.5,1,1,0,0,0,.4-.9,9.3,9.3,0,0,0-.6-2.5l-2.1-5.9h-8.1l-2.2,6a10.5,10.5,0,0,0-.7,2.4,1,1,0,0,0,.4.9c.4.5,1.4.5,2,.5v.8l-4.1-.2-4.1.2v-.8a2.4,2.4,0,0,0,2.2-1.2,46.8,46.8,0,0,0,2.1-4.7l8.9-21.8,3.2-.5,7.8,21.9a35.5,35.5,0,0,0,2,5.1,2,2,0,0,0,2,1.2v.8l-5.4-.2m-8.6-18.1a24.8,24.8,0,0,1-1.2-3.9l-3.6,9.7h6.7Z"/><path class="cls-1" d="M420.4,253.8c-4.5,0-5.5-1.8-7-3.6s-4.2-5.4-6.3-8.5h-1.9v5.9c0,2.7.2,3.6.6,4.3a2.9,2.9,0,0,0,2.2,1v.8l-5.6-.2-5.8.2v-.8a2.8,2.8,0,0,0,2.1-.9c.8-.8.8-2,.8-5.7V231.4c0-2.7-.1-3.6-.6-4.3a2.7,2.7,0,0,0-2.1-1.1v-.8l4.6.2,6.6-.2a18.8,18.8,0,0,1,4.9.5c5.2,1.3,5.8,5.1,5.8,6.8s-.8,6.3-6.3,7.9l7.3,8.4c2.1,2.4,3.6,4.1,5.4,4.1v.8h-4.7m-13.3-26.9-1.9.2v12.7h2.1a4.7,4.7,0,0,0,1.7-.2c.6-.1,3.4-.6,3.4-6.5s-3.6-6.3-5.3-6.3"/><path class="cls-1" d="M449,253.5l-5.7.2v-.8a3,3,0,0,0,2-.5,1,1,0,0,0,.4-.9,9.3,9.3,0,0,0-.6-2.5l-2.1-5.9h-8.1l-2.2,6a10.5,10.5,0,0,0-.7,2.4,1,1,0,0,0,.4.9,2.9,2.9,0,0,0,2,.5v.8l-4.1-.2-4,.2v-.8a2.3,2.3,0,0,0,2.1-1.2,46.8,46.8,0,0,0,2.1-4.7l9-21.8,3.1-.5,7.8,21.9a35.5,35.5,0,0,0,2,5.1,2.2,2.2,0,0,0,2,1.2v.8l-5.4-.2m-8.6-18.1a24.8,24.8,0,0,1-1.2-3.9l-3.6,9.7h6.7Z"/><path class="cls-1" d="M466.8,227c-.7.8-.7,2-.7,5.7v14.9c0,2.7.1,3.6.5,4.3a3,3,0,0,0,2.2,1v.8l-5.8-.2-5.8.2v-.8a2.8,2.8,0,0,0,2.1-.9c.8-.8.8-2,.8-5.7V231.4c0-2.7-.1-3.6-.5-4.3a3.1,3.1,0,0,0-2.2-1.1v-.8l5.8.2,5.8-.2v.8a2.9,2.9,0,0,0-2.2,1m2.1-7.1-9.3,3.3-.6-.8,6.1-5.9h.3l3.7,2.9Z"/><path class="cls-1" d="M480.7,253.9a26.5,26.5,0,0,1-6.8-.9v-.7c0-2-.1-3.5-.2-4.7h.9a4.6,4.6,0,0,0,1.5,3.1,7.5,7.5,0,0,0,4.4,1.2c5.5,0,5.6-3.7,5.6-4.6,0-2.8-1.8-3.8-4.2-5.3l-2.4-1.5c-3.1-1.9-5.1-3.8-5.1-7.9,0-2.2,1-7.6,10-7.6a40,40,0,0,1,6.6.5s-.1,1-.1,2.3a25.3,25.3,0,0,0,.1,3.1h-.9a3.7,3.7,0,0,0-1.2-2.5,6.5,6.5,0,0,0-4.4-1.4c-4.4,0-4.9,2.6-4.9,4s1.3,3.4,3.6,4.7l2.8,1.7c3.5,2,5.6,3.9,5.6,8.3s-4.6,8.2-10.9,8.2"/><path class="cls-1" d="M510.9,254.1c-8.9,0-14.2-5.5-14.2-14.1s5.7-15,14.7-15,14.2,5.5,14.2,14.1-5.7,15-14.7,15m.3-27.2c-5.9,0-8,5.6-8,12.5s2.5,12.8,8,12.8,7.9-5.6,7.9-12.5-2.4-12.8-7.9-12.8"/><path class="cls-1" d="M141.4,157.6v-51c-40.6.5-73.1,34-73.7,74.1h51V159.2c10.1,1,17.3-.1,22.7-1.6"/><path class="cls-2" d="M166.5,159.2v21.5h51.3c-.5-39.6-34-73.6-74-74.1v50.9c4.8,1.6,12.5,2.7,22.7,1.7"/><path class="cls-2" d="M118.9,183.1H67.7c.6,40.1,33.1,73.7,73.7,74.2V218.5c-12.6-3.2-22.2-16.1-22.5-35.4"/><path class="cls-1" d="M143.8,218.5v38.8c40-.5,73.5-34.1,74-74.2H166.4c-.3,19.3-10.1,32.2-22.6,35.4"/><path class="cls-3" d="M142.6,159.2c4.5,1.5,10.3,2.5,21.9,1.8v20.9c0,18.7-9.2,31.9-21.9,34.8-12.8-2.9-22-16.1-22-34.8V161c11.6.7,17.4-.3,22-1.8"/><path class="cls-1" d="M156.4,78.5l-.5,2c50.1,6.7,88.8,50.1,88.8,101.4,0,56.2-45.8,102.2-102,102.2s-102-46-102-102.2A102.5,102.5,0,0,1,129.4,80.5l-.5-2C78,84.9,38.4,129.3,38.4,181.9c0,57.8,46.8,104.8,104.3,104.8S247,239.7,247,181.9c0-52.6-39.7-97-90.6-103.4"/><polygon class="cls-1" points="141.4 63.8 141.4 67.7 137 67.7 137 70.1 141.4 70.1 141.4 77.8 143.8 77.8 143.8 70.1 148.1 70.1 148.1 67.7 143.8 67.7 143.8 63.8 141.4 63.8"/><path class="cls-1" d="M177.1,77.5l-19.6-2.2-.3,1.6,17.9,2.7,2-2.1m-19.6-4,20.9,1.6a21.2,21.2,0,0,1,1.8-2.2l-1.8-1.3-20.9.3Zm-.3-4.3.3,1.3,18.8-1.9s-1.5-2.1-2-2.6Zm-.7-3,.5,1.6,15.5-4.5-1.3-2.7Zm-1.6-2.6.8,1.3,14.2-7.8a15.7,15.7,0,0,1-.5-3.2Zm-2-2.5,1.2,1.4,14.5-12.1V47.2h-2.8Zm-2.6-1.8,1.3.8,9.8-13.4-3.6-.3ZM148,57.7l1.2.8,5.5-12.6-2.9-1.1Zm-3.1-.6,1.5.3,3.1-13.9-1.8-1.4ZM108.5,77.5l2,2.1,17.8-2.7-.2-1.6Zm19.6-4V71.9l-20.9-.3-1.8,1.3a21.2,21.2,0,0,1,1.8,2.2Zm.2-4.3-17-3.2c-.5.5-2.1,2.6-2.1,2.6l18.9,1.9Zm.8-3-14.7-5.6-1.3,2.7,15.5,4.5Zm1.6-2.6-14.5-9.7a15.7,15.7,0,0,1-.5,3.2l14.2,7.8Zm2-2.5L119.8,47.2H117v3.2l14.4,12.1Zm2.6-1.8-7.5-12.9-3.6.3L134,60.1Zm2.3-1.6-3.8-12.9-2.9,1.1,5.4,12.6Zm3.1-.6-2.8-15a15,15,0,0,0-1.8,1.4l3.1,13.9Zm2.9-.2,1.3-16.6a5.4,5.4,0,0,1-2.1-1.4,5.4,5.4,0,0,1-2.1,1.4L142,56.9Z"/><path class="cls-1" d="M77.1,250.9a16.9,16.9,0,0,1-2.4-1.9L73,247.2l-1.6-1.5.2-.3a1.5,1.5,0,0,0,1,.4c.5,0,.8-.4,2-1.5l4.5-4.6c.9-.9,1.1-1.2,1.2-1.6a1.3,1.3,0,0,0-.4-1l.3-.2,1.4,1.5,2.3,2.2c1.2,1.1,4.7,4.9.7,9s-5.9,2.2-7.5,1.3m6.1-9.8-1-.9-6.7,6.9c-.4.4-.6.6-.4,1l.6.6c2,2.1,4,1.8,6.7-.9s2-5.5.8-6.7"/><path class="cls-1" d="M89.8,261.5l-4.3-3.1L83,256.6l.2-.3a1.1,1.1,0,0,0,1,.2c.5-.1.8-.5,1.7-1.8l3.9-5.2c.7-1,.9-1.3.9-1.7a1.2,1.2,0,0,0-.5-.9l.2-.3,2.3,1.8,4.3,3.2s-.9,1.2-1.3,1.9l-.4-.2a1.5,1.5,0,0,0,.3-1.4c-.2-.4-.5-.7-1.4-1.4l-1.3-.9-2.7,3.7,1.3,1a2.2,2.2,0,0,0,1.4.6,1.4,1.4,0,0,0,1-.6l.4.2L93.1,256l-1,1.5-.3-.2a1.5,1.5,0,0,0,.2-1.1,2.2,2.2,0,0,0-1.1-1.3l-1.2-.9-2.5,3.4c-.5.7-.4.8.4,1.4l.3.2c.8.7,1.4,1.1,2.1,1a2.3,2.3,0,0,0,1.1-.8l.3.2-1.6,2.1"/><path class="cls-1" d="M112.4,260.5l-1.7,1.5-7.6,6.9-1.4-.3,1-10.1a11,11,0,0,0,.1-2.4.9.9,0,0,0-.5-.9v-.3l2.1,1.1,2.3,1v.3c-.4-.2-.7-.3-.9-.2a.3.3,0,0,0-.3.3,2.3,2.3,0,0,0-.2,1.1l-.7,6.2c-.1,1.2-.2,1.8-.2,1.8a12.1,12.1,0,0,1,1.3-1.3l4.4-4.4.8-.9c0-.1.1-.3,0-.4s-.5-.4-.7-.6l.2-.3,1.6.8,1.6.7-.2.3a1.1,1.1,0,0,0-1,.1"/><path class="cls-1" d="M118.3,274.4l-2.4-.7v-.3a1.4,1.4,0,0,0,.9,0l.3-.3v-3.9l-3.4-1-1.6,2.2a3.7,3.7,0,0,0-.7,1,.6.6,0,0,0,.1.4,1.8,1.8,0,0,0,.7.5v.3l-1.6-.6-1.7-.5v-.3a1,1,0,0,0,1-.2l1.5-1.7,6.5-7.9h1.4l.4,10.2c.1,1.3.2,2.2.2,2.4s.2.6.7.7v.4l-2.2-.8m-1.3-8.7a7.7,7.7,0,0,1,0-1.8l-2.7,3.6,2.8.9Z"/><path class="cls-1" d="M131.5,277l-5.1-.8-3.1-.5v-.3a1.6,1.6,0,0,0,1-.3c.3-.3.4-.8.7-2.4l1.1-6.4c.1-1.2.2-1.6,0-1.9a1.3,1.3,0,0,0-.9-.6v-.4l2.7.5a20.9,20.9,0,0,0,2.8.4v.4c-.8-.1-1.2,0-1.5.3s-.5.9-.7,2.4l-1.2,7.1c-.1.8,0,.9,1,1.1h.4c1,.1,1.6.2,2.2-.2a2.2,2.2,0,0,0,.6-1.2h.4c-.2.8-.5,2.6-.5,2.6"/><path class="cls-1" d="M140.9,272.1a2.9,2.9,0,0,1-1.2-.2v-.4h.4a2.1,2.1,0,0,0,1.4-.4,3.2,3.2,0,0,0,1-2.5c0-2.7-1.5-2.8-2.5-2.8h-.8l-.2,8.3c-.1,1.5-.1,2,.2,2.4s.6.6,1.4.6v.4l-3-.2H135v-.3a1.4,1.4,0,0,0,1-.4c.3-.4.3-.9.4-2.5l.2-6.5c0-1.2,0-1.6-.2-1.9a1.3,1.3,0,0,0-.9-.5V265h5.1a8.6,8.6,0,0,1,2.1.2c1.4.4,2.6,1.2,2.5,3.2s-2,3.6-4.3,3.5"/><path class="cls-1" d="M155.9,276.7l-2.4.3v-.3c.5-.1.8-.2.9-.4s.1-.2.1-.4a2.2,2.2,0,0,0-.4-1l-1.1-2.5-3.5.3-.7,2.7a3.1,3.1,0,0,0-.2,1.1c0,.2,0,.3.2.4a.8.8,0,0,0,.8.1v.4h-1.8l-1.7.2v-.3a1.1,1.1,0,0,0,.9-.6l.7-2.2,3-9.8,1.3-.4,4.3,9.2,1.1,2.1a1.2,1.2,0,0,0,1,.5v.3l-2.4.2m-4.5-7.5-.7-1.7-1.1,4.4,2.9-.3Z"/><path class="cls-1" d="M171.3,273.4a3.1,3.1,0,0,1-3.4-.8c-.5-.4-2.3-1.8-3.5-2.9l-.8.2.6,2.5a4,4,0,0,0,.7,1.8,1.7,1.7,0,0,0,1.1.2v.3l-2.4.6a10.9,10.9,0,0,0-2.4.7v-.4a1.1,1.1,0,0,0,.8-.6c.2-.4.1-.9-.3-2.5l-1.7-6.3c-.3-1.1-.4-1.5-.7-1.7a1.3,1.3,0,0,0-1-.3v-.3l2-.4,2.8-.8a8.7,8.7,0,0,1,2.1-.4,3.1,3.1,0,0,1,3.2,2.3,3.5,3.5,0,0,1-1.8,4l4,2.8c1.1.8,1.9,1.3,2.7,1.1v.3l-2,.6m-8.5-9.9-.8.3,1.4,5.4.9-.2.6-.3c.3-.1,1.4-.7.8-3.1s-2.2-2.3-2.9-2.1"/><path class="cls-1" d="M184.6,268l-2.3,1v-.3l.7-.5a.5.5,0,0,0,0-.5l-.7-.9-1.9-2-3.2,1.5.2,2.7a2.3,2.3,0,0,0,.2,1.1c0,.2.1.3.3.4s.6-.1.8-.2l.2.3-1.7.7-1.6.7v-.3a.9.9,0,0,0,.6-.8,7.9,7.9,0,0,0,0-2.3l-.2-10.3,1.1-.7,7,7.3,1.7,1.7c.2.1.6.4,1,.2l.2.3-2.2.9m-6.7-5.8-1.1-1.3.3,4.5,2.6-1.2Z"/><path class="cls-1" d="M186,250.4l-2.8,3.3-.4-.2,1-3.6h.1l2,.3Zm.8,3.1c-.1.4.1.9,1,2.3l3.3,5.6c.6,1,.8,1.3,1.1,1.5a1.5,1.5,0,0,0,1.1-.1l.2.3-2.3,1.2a19.1,19.1,0,0,0-2.1,1.4l-.2-.3a1.6,1.6,0,0,0,.6-.9c.1-.4-.1-.9-1-2.3l-3.3-5.6c-.6-1-.8-1.3-1.1-1.5a1.5,1.5,0,0,0-1.1.1l-.2-.3,2.3-1.2,2.1-1.3.2.2a1.6,1.6,0,0,0-.6.9"/><path class="cls-1" d="M198.9,259.4a11,11,0,0,1-2.6,1.5l-.2-.3c-.5-.7-.9-1.1-1.2-1.6l.3-.2a1.9,1.9,0,0,0,1.3.7,2.9,2.9,0,0,0,1.8-.7c2-1.5,1.1-2.8.8-3.1s-1.6-.9-2.8-.8H195a3.6,3.6,0,0,1-3.8-1.4c-.6-.8-1.6-2.9,1.5-5.2a13.7,13.7,0,0,1,2.5-1.6l.5.8.9,1.1-.3.2a3,3,0,0,0-1.1-.6,3.2,3.2,0,0,0-1.9.7c-1.6,1.2-1.1,2.2-.7,2.7s1.3.8,2.5.7h1.4c1.7-.2,3-.1,4.1,1.4s.5,4.1-1.7,5.7"/><path class="cls-1" d="M210.3,249.8c-2.7,2.7-6,2.7-8.7,0s-2.9-6.4-.1-9.1,6.1-2.7,8.7-.1,2.9,6.4.1,9.2m-8.3-8.5c-1.8,1.8-.7,4.2,1.4,6.3s4.7,3.2,6.4,1.5.7-4.2-1.4-6.3-4.7-3.2-6.4-1.5"/><path class="cls-1" d="M60.1,214.2a2.7,2.7,0,0,1,.4,1.2h-.4a1,1,0,0,0-.1-.4,2.4,2.4,0,0,0-.9-1.1,3.4,3.4,0,0,0-2.6.1c-2.6,1-2,2.5-1.7,3.4a3.2,3.2,0,0,0,.4.7l7.7-3.1c1.3-.5,1.9-.7,2.1-1.1a2.2,2.2,0,0,0,0-1.6h.3a23.3,23.3,0,0,0,1.1,2.8,14.6,14.6,0,0,0,1,2.3h-.3a1.9,1.9,0,0,0-.8-.7c-.4-.1-.9.1-2.4.7l-6,2.4-1.7.9a1.4,1.4,0,0,0,0,1.1h-.4a13.1,13.1,0,0,0-.8-2.1l-1.1-2.6a12.4,12.4,0,0,1-.6-2,3.2,3.2,0,0,1,1.9-3.7c2.3-.9,4.1.5,4.9,2.6"/><path class="cls-1" d="M61.8,200.6c.9,3.8-.9,6.5-4.6,7.4a6.1,6.1,0,0,1-7.8-4.8c-.9-3.8.9-6.5,4.6-7.4s6.9.9,7.8,4.8m-11.6,2.5c.6,2.5,3.2,2.9,6.1,2.2s5.2-2.3,4.7-4.6-3.2-2.9-6.1-2.2-5.2,2.3-4.7,4.6"/><path class="cls-1" d="M47.6,181.4c.4.3.9.3,2.5.3l9.3-.6v1.1l-9.1,7.7-.7.5,7.5-.4a4,4,0,0,0,1.9-.4,1.2,1.2,0,0,0,.4-1h.3v1.8c.1.6.1,1.1.2,1.9h-.3a1.2,1.2,0,0,0-.5-.9c-.4-.3-.9-.3-2.5-.2l-6.5.3c-1.2.1-1.6.2-1.8.4a1.2,1.2,0,0,0-.5,1h-.3v-2.2c-.1-.3-.1-1.1-.2-1.6l7-5.9.8-.6-5.5.3a3.1,3.1,0,0,0-1.8.3,1.3,1.3,0,0,0-.4,1H47v-1.8a12.4,12.4,0,0,0-.2-1.8h.4a1.1,1.1,0,0,0,.4.9"/><path class="cls-1" d="M50.4,168.3a1.6,1.6,0,0,0-1.4.6,4.4,4.4,0,0,0-.4,1.9v.7l8.8.8c1.1.1,1.6.1,1.8-.1s.6-1.1.6-1.2h.4a28.5,28.5,0,0,0-.3,2.9,24.8,24.8,0,0,0-.2,2.9h-.4c0-.2.1-1-.3-1.4s-.8-.4-2.4-.6l-8.2-.7v.7a3.4,3.4,0,0,0,.1,1.9,1.5,1.5,0,0,0,1.2.8v.4l-2.4-.3.9-9.8,2.4.2Z"/><path class="cls-1" d="M50.1,161.1c.2.4.8.5,2.3.8l6.4,1.3a3.5,3.5,0,0,0,1.9.2,1.3,1.3,0,0,0,.6-.9h.4a22.7,22.7,0,0,0-.6,2.5c-.2.6-.3,1.7-.5,2.5h-.3a1.2,1.2,0,0,0-.2-1c-.3-.4-.8-.5-2.4-.8l-6.3-1.3c-1.2-.3-1.6-.3-1.9-.2s-.5.4-.7.9h-.3c.2-.7.4-1.8.6-2.5s.3-1.7.4-2.5h.3a1.4,1.4,0,0,0,.3,1"/><path class="cls-1" d="M55.1,149.6a1.6,1.6,0,0,0-1.4.3,3.2,3.2,0,0,0-.8,1.7l-.5,1.5,4.4,1.4.5-1.5a2,2,0,0,0,.1-1.5c-.1-.4-.4-.6-.9-.9v-.3l1.8.6,1.8.5-.2.4a1.4,1.4,0,0,0-1.1.1c-.4.2-.6.8-.8,1.4l-.5,1.5,3.2,1c1.1.4,1.5.4,1.8.3s.8-.9.9-1.1h.3c-.2.7-.7,2.1-.9,2.7l-.7,2.5h-.3c0-.2.1-.7-.2-1s-.7-.6-2.2-1.1l-6.2-2a4,4,0,0,0-1.9-.3,1.4,1.4,0,0,0-.7.8l-.3-.2.9-2.7,1.6-5.1,2.4.7Z"/><path class="cls-1" d="M56.5,142c.2.4.7.6,2.2,1.3l5.9,2.6c1.1.5,1.5.6,1.8.5s.6-.2.9-.7l.3.2a12,12,0,0,0-1.1,2.3l-1,2.3h-.3a1.1,1.1,0,0,0,0-1c-.2-.5-.7-.7-2.2-1.4l-5.9-2.6c-1.1-.4-1.5-.6-1.8-.5s-.6.2-.8.7l-.3-.2,1.1-2.3c.2-.6.7-1.6.9-2.3h.3a2,2,0,0,0,0,1.1"/><path class="cls-1" d="M64.9,130.4a1.4,1.4,0,0,0-1.2-.2,3.5,3.5,0,0,0-1.6,1.6c-.9,1.4-1.9,3.8,2.5,6.4,2.7,1.6,5.2,1.8,6.8-1a2.5,2.5,0,0,0,.4-2.1,1.3,1.3,0,0,0-.7-.9l.2-.4a10.1,10.1,0,0,0,1.7,1.1l.2.2A11.9,11.9,0,0,1,72,138a6.8,6.8,0,0,1-4.7,3.7,5.5,5.5,0,0,1-3.9-1,6.3,6.3,0,0,1-3.2-6.8,10.7,10.7,0,0,1,1.1-2.6c.8-1.3,1.6-2.3,1.7-2.5l1,.6,1.1.6Z"/><path class="cls-1" d="M68.3,122.8c.1.5.5.8,1.8,1.8l5.1,4c1,.7,1.3.9,1.7.9a1.2,1.2,0,0,0,.9-.5l.3.2-1.6,2L75,133.3l-.3-.2a1.1,1.1,0,0,0,.3-1c-.1-.5-.5-.8-1.8-1.8L68,126.4c-.9-.8-1.3-1-1.6-1a1.4,1.4,0,0,0-1,.5l-.2-.2c.4-.6,1.2-1.5,1.6-2l1.4-2,.3.2a1.2,1.2,0,0,0-.2.9"/><path class="cls-1" d="M85.4,121.1c-.3.5-1.3,1.5-1.6,1.9l-.3-.2c.3-.4.5-.6.5-.8a.5.5,0,0,0-.2-.4l-1-.6-2.5-1.2-2.4,2.6,1.2,2.5.5,1H80c.3,0,.6-.3.8-.4l.2.2L79.7,127l-1.1,1.3-.3-.2a1.1,1.1,0,0,0,.3-1l-.8-2.1-4.1-9.5.8-1.1,9.2,4.2a11.5,11.5,0,0,0,2.2.9.8.8,0,0,0,1-.2l.2.2-1.7,1.6m-8.3-2.8-1.5-.8,1.9,4.1,2-2.1Z"/><path class="cls-1" d="M95,99.5c0,.5.2,1,1.1,2.3l2.1,3.2a7.7,7.7,0,0,1,1.4,2.7c.6,2.4-1.4,3.9-2.7,4.7s-4.1,1.4-5.2.6a9.1,9.1,0,0,1-2-2.4l-2.4-3.7c-.7-.9-.9-1.3-1.2-1.4a1.4,1.4,0,0,0-1.1.1l-.2-.2L87,104l2-1.4.2.3a1,1,0,0,0-.5.8c-.1.5.2.9,1.1,2.3l2.7,4.2c1,1.4,2,2.8,4.3,1.3s1.4-3.3.5-4.5l-3-4.7c-.7-.9-.9-1.3-1.2-1.4a1.4,1.4,0,0,0-1.1.1l-.2-.2,1.8-1.1,1.8-1.3.2.3a1.3,1.3,0,0,0-.6.8"/><path class="cls-1" d="M109.7,92.7c-.2.4,0,.9.6,2.4l3.7,8.5-.9.4-10.4-5.9-.7-.4,3,6.8a4.5,4.5,0,0,0,.9,1.7,1.4,1.4,0,0,0,1.1,0v.3l-1.6.7-1.7.8v-.3a1.3,1.3,0,0,0,.6-.8c.2-.4,0-.9-.7-2.4l-2.5-6c-.5-1-.7-1.4-1-1.6a1.3,1.3,0,0,0-1.1,0v-.3l2-.8,1.5-.8,7.9,4.5.9.6-2.2-5c-.4-1.1-.7-1.5-.9-1.6a1,1,0,0,0-1.1-.1l-.2-.3,1.8-.7a7.9,7.9,0,0,0,1.6-.8v.3a1.3,1.3,0,0,0-.6.8"/><path class="cls-1" d="M117.9,90.2c-.2.4-.1,1,.3,2.5l1.8,6.2c.4,1.2.5,1.6.8,1.8a1.4,1.4,0,0,0,1,.2v.3l-2.4.6-2.4.8v-.3a1.7,1.7,0,0,0,.8-.7c.2-.4,0-.9-.4-2.5l-1.8-6.2c-.3-1.1-.5-1.5-.8-1.7a1,1,0,0,0-1-.2v-.4l2.4-.6,2.4-.8v.4a.8.8,0,0,0-.7.6"/><path class="cls-1" d="M132.6,87.4a15.2,15.2,0,0,0-.5,2.2l-2.3,10-1.4.5-4.9-8.9-1.3-2.1a1,1,0,0,0-.9-.3v-.4l2.4-.3,2.4-.5V88a1,1,0,0,0-.8.3.4.4,0,0,0-.1.5,2.2,2.2,0,0,0,.4,1l3,5.5a9.1,9.1,0,0,1,.8,1.6l.3-1.8,1.2-6.2c.1-.6.2-.9.1-1.1s0-.3-.2-.4-.6-.1-.9-.1V87l1.8-.2,1.7-.4v.3a1.1,1.1,0,0,0-.8.7"/><path class="cls-1" d="M144.6,98.5h-8.4v-.3a1.1,1.1,0,0,0,.9-.4c.4-.4.4-.9.3-2.6V89c-.1-1.2-.1-1.6-.3-1.9a1.9,1.9,0,0,0-1-.5v-.3h8.3s0,1.5.1,2.4H144a1.4,1.4,0,0,0-.7-1.3,4.2,4.2,0,0,0-1.9-.2h-1.6v4.7h1.6a2.8,2.8,0,0,0,1.5-.3,1.5,1.5,0,0,0,.5-1.2h.4v1.9c0,1.2.1,1.4.1,1.8h-.4c-.1-.5-.2-.8-.5-1a2.6,2.6,0,0,0-1.6-.3H140v4.2c0,.8.1.9,1.1.9h.4c1,0,1.8-.1,2.2-.6a1.5,1.5,0,0,0,.4-1.2h.4v2.6"/><path class="cls-1" d="M157.5,99.9a3.4,3.4,0,0,1-2.9-2l-2.3-4h-.7l-.4,2.5c-.1,1.2-.1,1.6.1,1.9s.3.5.8.6v.4l-2.4-.4-2.5-.3v-.3a1.3,1.3,0,0,0,1-.3c.3-.3.4-.8.6-2.4l.8-6.5c.2-1.1.2-1.6,0-1.9a1,1,0,0,0-.9-.5v-.4l2,.3,2.8.3a10.4,10.4,0,0,1,2.1.5,3,3,0,0,1,2.2,3.3,3.5,3.5,0,0,1-3.2,3l2.7,4.1c.8,1.1,1.4,1.9,2.1,2v.4l-2-.2m-4.3-12.4h-.9l-.6,5.5h.8a1.1,1.1,0,0,0,.8,0c.2,0,1.5-.1,1.8-2.6s-1.2-2.9-1.9-3"/><path class="cls-1" d="M163.4,101.4a13.1,13.1,0,0,1-2.7-1.2v-.3l.4-2h.4a1.9,1.9,0,0,0,.3,1.5,3.2,3.2,0,0,0,1.7,1c2.3.6,2.8-.9,2.9-1.3s-.3-1.8-1.2-2.7l-.8-.9c-1.1-1.2-1.7-2.2-1.3-3.9s1.3-3.1,5.1-2.1a23.4,23.4,0,0,1,2.8,1l-.4,1a13.3,13.3,0,0,1-.3,1.3H170a1.6,1.6,0,0,0-.2-1.2,2.5,2.5,0,0,0-1.7-1.1c-1.8-.5-2.3.5-2.5,1.1s.2,1.5,1,2.4l1,1c1.2,1.3,1.9,2.3,1.4,4.1s-2.9,3-5.6,2.3"/><path class="cls-1" d="M178.5,94c-.4.2-.6.7-1.2,2.2l-2.3,6.1c-.5,1.1-.6,1.5-.5,1.8a1.3,1.3,0,0,0,.7.8v.3l-2.3-1-2.4-.8v-.3a1.9,1.9,0,0,0,1-.1c.4-.2.7-.7,1.2-2.2l2.4-6a5.7,5.7,0,0,0,.5-1.9,1.9,1.9,0,0,0-.8-.8l.2-.3,2.3,1,2.4.9V94a1.4,1.4,0,0,0-1.1,0"/><path class="cls-1" d="M184.2,109.5l-2.8-1.3-2.2-1.2-1.9-1v-.3a2,2,0,0,0,1.1.1c.4-.2.7-.6,1.5-2.1l3.1-5.6a6.2,6.2,0,0,0,.7-1.8,1.6,1.6,0,0,0-.6-.9v-.3l1.8,1.1,2.7,1.4c1.5.8,6,3.5,3.3,8.5s-5.1,3.8-6.9,3.4m3.2-11.1-1.2-.6-4.6,8.4c-.3.5-.4.8-.1,1s.4.3.8.5c2.5,1.4,4.3.7,6.2-2.8s.3-5.8-1.1-6.5"/><path class="cls-1" d="M196.4,118.2l-2-1.5.2-.3a1.2,1.2,0,0,0,.8.4l.4-.2a3.4,3.4,0,0,0,.4-1l.9-2.6-2.8-2.2-2.3,1.5-.9.6c-.1.2-.2.3-.2.5l.6.7-.2.2-1.4-1.1-1.4-1,.2-.3a1.1,1.1,0,0,0,1.1.1l1.9-1,8.9-5.1,1.3.6-3.2,9.7c-.4,1.3-.6,2.1-.7,2.3a1,1,0,0,0,.4.9l-.2.3-1.8-1.5m1.8-8.6a6.3,6.3,0,0,1,.7-1.6l-3.8,2.3,2.3,1.8Z"/><path class="cls-1" d="M204.7,126a10.7,10.7,0,0,1-2.3-2l-1.7-1.9c-.4-.5-1-1-1.5-1.5l.2-.3a1.3,1.3,0,0,0,1,.4c.4,0,.8-.3,2-1.4l4.8-4.5c.8-.8,1.1-1.1,1.2-1.4a1.3,1.3,0,0,0-.3-1l.2-.3a12.1,12.1,0,0,0,1.4,1.6l2.1,2.2c1.2,1.3,4.6,5.2.5,9.1s-6,2-7.6,1m6.5-9.5-1-1-7,6.6c-.4.4-.6.6-.4,1l.6.7c1.9,2.1,3.9,1.9,6.7-.7s2.2-5.4,1.1-6.6"/><path class="cls-1" d="M225.1,138.4a1.5,1.5,0,0,0,.7-.9,3.8,3.8,0,0,0-.6-2.2c-.8-1.4-2.4-3.4-6.9-.8-2.7,1.6-4,3.6-2.4,6.3a3.1,3.1,0,0,0,1.7,1.5,1.5,1.5,0,0,0,1.2-.3l.2.4-1.8.9-.3.2a12.2,12.2,0,0,1-2-2.5c-1.2-2.1-1.6-4.1-.9-5.9a6.6,6.6,0,0,1,10.2-2.4,8.7,8.7,0,0,1,1.8,2.2c.7,1.3,1.2,2.5,1.3,2.7l-1,.5-1,.7Z"/><path class="cls-1" d="M221,153.8c-.2-.6-.8-1.8-1-2.3l.3-.2a2.1,2.1,0,0,0,.5.8h.5l.9-.7,2-1.8-1.3-3.3h-2.8l-1.1.2-.3.2c-.1.3.1.7.1.9l-.3.2a8.5,8.5,0,0,0-.6-1.7,7.7,7.7,0,0,0-.7-1.6h.3a1.2,1.2,0,0,0,.9.6h12.5l.7,1.1-7.6,6.8-1.7,1.6a1.2,1.2,0,0,0-.2,1.1h-.3l-.8-2.2m5.9-6.5,1.4-1.1h-4.5l1.1,2.7Z"/><path class="cls-1" d="M233.8,162.9a1.3,1.3,0,0,0,1.1-.9,3.9,3.9,0,0,0-.2-2l-.2-.6-8.5,2.2c-1.2.3-1.5.4-1.7.7s-.2,1.2-.2,1.4h-.3c-.2-.7-.5-2.2-.7-2.8l-.8-2.9h.3c.1.1.3.9.8,1.1s.9.1,2.5-.3l8-2.1-.2-.6c-.3-1.2-.4-1.5-.8-1.9a2,2,0,0,0-1.4-.3v-.3l2.4-.6,2.5,9.6a19.7,19.7,0,0,0-2.4.6Z"/><path class="cls-1" d="M225.1,173.2c-.4-3.9,1.7-6.4,5.5-6.8s6.7,1.8,7.1,5.7-1.7,6.4-5.5,6.8-6.7-1.8-7.1-5.7m11.8-1.1c-.3-2.5-2.8-3.2-5.8-2.9s-5.4,1.6-5.2,4,2.8,3.2,5.8,2.9,5.4-1.6,5.2-4m3.3,2.2-1.8-3.9.3-.2,2.8,2.3v.2l-1.1,1.7Z"/><path class="cls-1" d="M225.4,190l.3-5.1c0-1.1.1-2.1.1-3.2h.3a1.4,1.4,0,0,0,.4.9c.3.3.9.4,2.5.5l6.5.3c1.1,0,1.6,0,1.8-.2s.5-.4.6-.9h.3a26.4,26.4,0,0,0-.2,2.8c0,.6-.1,2-.1,2.7h-.3a1.9,1.9,0,0,0-.5-1.5c-.4-.3-1-.3-2.4-.4l-7.2-.3c-.9-.1-1,.1-1.1,1.1v.3c0,1.1,0,1.7.4,2.2a1.7,1.7,0,0,0,1.3.5v.4l-2.6-.2"/><path class="cls-1" d="M235.9,198.2c-.3-.4-.8-.5-2.4-.8l-6.4-1c-1.1-.2-1.6-.2-1.9,0a1.1,1.1,0,0,0-.6.8h-.3l.4-2.5a21.7,21.7,0,0,0,.4-2.5h.3a1.3,1.3,0,0,0,.3,1c.3.4.8.5,2.4.7l6.4,1a4.2,4.2,0,0,0,1.9.1,1.3,1.3,0,0,0,.6-.9h.3l-.4,2.5c-.1.6-.3,1.7-.4,2.5h-.3a1.2,1.2,0,0,0-.3-.9"/><path class="cls-1" d="M230.8,211.5a1.6,1.6,0,0,0,1.2-.2,3.3,3.3,0,0,0,1.2-1.9c.5-1.6.8-4.1-4.1-5.5-3.1-.9-5.4-.4-6.3,2.6a2.4,2.4,0,0,0,.1,2.2,1.5,1.5,0,0,0,1,.7v.4l-1.9-.6h-.4a17.7,17.7,0,0,1,.5-3.2c.7-2.3,1.9-4,3.6-4.7a5.5,5.5,0,0,1,4-.1,6.2,6.2,0,0,1,4.8,5.8,7.5,7.5,0,0,1-.4,2.8,17,17,0,0,1-1,2.8l-1.1-.3-1.2-.3Z"/><path class="cls-1" d="M216.9,219.1a22.9,22.9,0,0,0,1-2.3h.3c-.2.5-.2.8-.1.9s.1.3.3.4l1.1.2,2.7.2,1.4-3.2-1.9-2-.9-.7h-.4c-.3.1-.5.5-.6.7h-.3l.8-1.6a12.2,12.2,0,0,0,.7-1.7l.3.2a.8.8,0,0,0,.1,1,7.6,7.6,0,0,0,1.5,1.7l7,7.5-.3,1.3-10.1-.8h-2.4a1,1,0,0,0-.9.6l-.3-.2a13.6,13.6,0,0,0,1-2.1m8.8-.2a6.9,6.9,0,0,1,1.8.3l-3.2-3.2-1.2,2.7Z"/><path class="cls-4" d="M148.6,136.7h2a3,3,0,0,1-1.2-2c0-1.6,2-2.7,2-4.8s-1.5-3.3-1.5-5.2,1.3-3,1.3-4.4a4.1,4.1,0,0,0-.8-2.4h-1.8a4.9,4.9,0,0,1,.8,2.4c0,1.4-1.2,2.4-1.2,4.5s1.6,3.5,1.6,5.1-2,2.9-2,4.8a3.1,3.1,0,0,0,.8,2"/><path class="cls-4" d="M149.6,149.6v2.1h49.7v-1.9H186.4a9.3,9.3,0,0,0,7.7-9.6c0-7.8-8.8-15.6-21.4-15.6a26.4,26.4,0,0,0-7.9,1.1,3.6,3.6,0,0,1-.2-1c0-1.7,1.3-3,1.3-4.4a4.1,4.1,0,0,0-.8-2.4h-1.7a6.2,6.2,0,0,1,.8,2.4c0,1.4-1.3,2.4-1.3,4.5a4,4,0,0,0,.3,1.5,12.2,12.2,0,0,0-2.8,1.4,8,8,0,0,1-.9-3c0-1.8,1.3-3,1.3-4.4a4.9,4.9,0,0,0-.8-2.4h-1.8a6.2,6.2,0,0,1,.8,2.4c0,1.4-1.3,2.4-1.3,4.5s.9,2.5,1.3,3.8a16,16,0,0,0-5,6.2v-.4c0-1.3,1.9-2.9,1.9-4.5s-1.4-3.2-1.4-5.2,1.3-3,1.3-4.4a4.2,4.2,0,0,0-.9-2.4h-1.7a6.2,6.2,0,0,1,.8,2.4c0,1.4-1.3,2.4-1.3,4.5s1.6,3.5,1.6,5.1-1.9,2.9-1.9,4.8a2.6,2.6,0,0,0,.8,2h1.7c1.7-4.8,6.7-10.4,17.7-10.4s19.4,7.6,19.4,13.8-3.6,7.9-7.5,7.9-6.9-3.2-6.9-6a5.5,5.5,0,0,1,3.7-5.3c-1.3-2.9-5.2-6.2-11.5-6.2s-10.5,3.8-11.5,6.2h2a9.2,9.2,0,0,1,2.3-2.5c0,.2-.1.3-.1.5a2.7,2.7,0,0,0,.9,2h1.9a2.9,2.9,0,0,1-1.1-2,2.5,2.5,0,0,1,.6-1.6,14.1,14.1,0,0,1,5-.8c5.2,0,7.8,2.3,8.9,3.7a7.5,7.5,0,0,0-3.4,6.1c0,3.7,2.2,6.7,6.9,7.7H164.5c0-3.4-4.4-3.4-4.4-4.4s5.8-2.9,5.8-6.7H148c0,3.8,5.9,5.7,5.9,6.7s-4.3,1.2-4.3,4.2m.7-9.5h13.4c0,2.4-5.2,3.3-5.2,5.3s3.9,1.5,3.9,4.4H151.5c0-2.9,3.9-2.5,3.9-4.4s-5.1-2.9-5.1-5.3"/><path class="cls-4" d="M178.6,156.9a4,4,0,0,0-2.3-.6,5.4,5.4,0,0,0-5.5,5.6c0,3.7,3.5,4.9,3.5,7.1a3.4,3.4,0,0,1-1.7,2.8,3.7,3.7,0,0,0,2.6.8,5.4,5.4,0,0,0,5.5-5.7c0-3.2-3.4-4.7-3.4-6.9a4.7,4.7,0,0,1,1.3-3.1m.4,10.2a3.8,3.8,0,0,1-3.8,4,4.6,4.6,0,0,0,.9-2.4c0-2.7-3.5-4-3.5-6.9s1.6-4.1,3.7-4.1a5.1,5.1,0,0,0-.8,2.8c0,2.5,3.5,4,3.5,6.6"/><path class="cls-4" d="M200.5,160a5.2,5.2,0,0,1,1.3-3.1,3.4,3.4,0,0,0-2.2-.6,5.4,5.4,0,0,0-5.5,5.6c0,3.7,3.5,4.9,3.5,7.1a3.4,3.4,0,0,1-1.7,2.8,3.4,3.4,0,0,0,2.5.8,5.4,5.4,0,0,0,5.5-5.7c0-3.2-3.4-4.7-3.4-6.9m-2.1,11.1a4,4,0,0,0,1-2.4c0-2.7-3.5-4-3.5-6.9s1.6-4.1,3.7-4.1a5.1,5.1,0,0,0-.8,2.8c0,2.5,3.5,4,3.5,6.6a3.9,3.9,0,0,1-3.9,4"/><path class="cls-4" d="M190.2,156.9a3.5,3.5,0,0,0-2.3-.6,5.5,5.5,0,0,0-5.5,5.6c0,3.7,3.6,4.9,3.6,7.1a3.5,3.5,0,0,1-1.8,2.8,3.8,3.8,0,0,0,2.6.8,5.4,5.4,0,0,0,5.5-5.7c0-3.2-3.4-4.7-3.4-6.9a5.2,5.2,0,0,1,1.3-3.1m.5,10.2a3.9,3.9,0,0,1-3.9,4,4,4,0,0,0,1-2.4c0-2.7-3.6-4-3.6-6.9s1.6-4.1,3.7-4.1a5.1,5.1,0,0,0-.8,2.8c0,2.5,3.6,4,3.6,6.6"/><path class="cls-4" d="M119.1,138.4c0,.6.2,1,.3,1s.5-.5.8-.7a.9.9,0,0,0,1,.8c.7,0,1-.3,1-.9s.7.6,1,.6a.6.6,0,0,0,.5-.6c0-1-.8-1.4-2.1-1.4a3.2,3.2,0,0,0-2.5,1.2m-2.3,9.8a1.3,1.3,0,0,0,1.2.7,1.3,1.3,0,0,0,1.1-.7c0-.1,0-.5-.2-.6a1.1,1.1,0,0,1-.9.3c-.7,0-.9-.2-1-.3s-.2.5-.2.6m-.8-3.9c1,0,1.1.3,2,.3s.9-.3,1.9-.3a1.9,1.9,0,0,0-.3-1c-1.3,0-1.3.5-1.6.5s-.4-.5-1.7-.5a3.8,3.8,0,0,0-.3,1m-.5,1.8.2.8c.1-.2.5-.2.8-.2a13.9,13.9,0,0,0,1.5.2c.8,0,.9-.2,1.4-.2s.7,0,.8.2l.2-.8a1.6,1.6,0,0,0-1.1-.3h-2.7a1.8,1.8,0,0,0-1.1.3m-3.3-7.5a.6.6,0,0,0,.5.6c.3,0,.5-.5,1-.6s.3.9,1,.9a.9.9,0,0,0,1-.8c.3.2.6.7.8.7s.3-.4.3-1a3.1,3.1,0,0,0-2.4-1.2c-1.4,0-2.2.4-2.2,1.4m-4.6-.9c-.8,1-.1,1.8.9,1.8s2.2-.5,3.6-2.8,1.1-1.9,2.6-1.9,1.9-2.1,3.3-2.1,1.1,2.1,3.2,2.1,1.8.8,2.7,1.9,2.6,2.8,3.6,2.8,1.6-.8.8-1.8a1.1,1.1,0,0,1-1,.7c-1.3,0-1.8-1.2-2.8-2.6.5.1,1,.8,1.6.8s1-.7.9-1.2c-2.7,0-2-1.8-5.3-1.8-1.5,0-1.9-2.1-3.7-2.1s-2.3,2.1-3.8,2.1c-3.3,0-2.6,1.8-5.3,1.8-.1.5,0,1.2.9,1.2s1.1-.7,1.6-.8-1.5,2.6-2.8,2.6a1.1,1.1,0,0,1-1-.7m-3.1,2.7a2.6,2.6,0,0,0,1.5,2.1c-.2.1-.3.5-.3,1.1a2.3,2.3,0,0,0,2.3,2.2,1.5,1.5,0,0,0-.5,1.3,2,2,0,0,0,2.1,1.8,1.4,1.4,0,0,0,1.5-1.5,2.4,2.4,0,0,1-1.2.3c-.6,0-1.3-.3-1.3-1a1.6,1.6,0,0,1,.3-.9c.7-.2,1-.4,1-1.2a3.6,3.6,0,0,1-1.4.2c-.9,0-1.7-.5-1.7-1.3a1.9,1.9,0,0,1,.3-.9,3,3,0,0,0,2.8-.3c.7,3.8,3.6,9.7,8.1,9.5s7.3-5.7,8-9.5a3,3,0,0,0,2.8.3,1.9,1.9,0,0,1,.3.9,1.5,1.5,0,0,1-1.6,1.3,3.9,3.9,0,0,1-1.5-.2c0,.8.3,1,1,1.2a1.6,1.6,0,0,1,.3.9c0,.7-.7,1-1.3,1a2.4,2.4,0,0,1-1.2-.3,1.4,1.4,0,0,0,1.5,1.5,2,2,0,0,0,2.1-1.8,1.5,1.5,0,0,0-.5-1.3,2.3,2.3,0,0,0,2.3-2.2c0-.6-.1-1-.3-1.1a2.6,2.6,0,0,0,1.5-2.1,1.6,1.6,0,0,0-1.8-1.7,1.7,1.7,0,0,1,.5,1.2c0,.9-.8,1.6-2.2,1.6a4.1,4.1,0,0,1-1.8-.5c.2-.8-.4-1.3-1.1-1.6a3.3,3.3,0,0,1-.2,2.1c-.5,1.5-2.6,1.8-2.6,2s.5.6.8.6a2,2,0,0,0,1.7-1c-.7,2.8-3,7.4-6.7,7.4s-6.1-4.6-6.8-7.4a2,2,0,0,0,1.7,1c.3,0,.8-.1.8-.6s-2.1-.5-2.6-2a3.3,3.3,0,0,1-.2-2.1c-.6.3-1.3.8-1.1,1.6a3.7,3.7,0,0,1-1.8.5c-1.3,0-2.2-.7-2.2-1.6a1.7,1.7,0,0,1,.5-1.2,1.6,1.6,0,0,0-1.8,1.7M102.2,125a.4.4,0,0,0,.4.4h30.8c.1,0,.3-.1.3-.4s-.3-1-1.3-1H103.5c-.9,0-1.3.5-1.3,1m-4.6,7.5c0,4.1,3.6,5.7,6.1,5.7a4.9,4.9,0,0,0,5.1-4.7,3.8,3.8,0,0,0-.7-2.2,16.4,16.4,0,0,0,5.4.9,3.3,3.3,0,0,0,2.8-1.2c-6.2-.1-8.7-1.6-11.5-1.6a3.2,3.2,0,0,0-3.4,3.1,2.7,2.7,0,0,0,2.6,2.8,1.8,1.8,0,0,0,2-1.7.7.7,0,0,0-.8-.8c0,.5-.4.8-1,.8a1.1,1.1,0,0,1-1.2-1.1,1.6,1.6,0,0,1,1.8-1.5,2.3,2.3,0,0,1,2.5,2.5c0,1.9-1.3,3.2-3.8,3.2a4,4,0,0,1-4.1-4.2c0-3.6,2.8-4.8,5.1-4.8,3.8,0,6.2,1,13.5,1s9.6-1,13.4-1c2.3,0,5.1,1.2,5.1,4.8a4,4,0,0,1-4.1,4.2c-2.5,0-3.8-1.3-3.8-3.2a2.3,2.3,0,0,1,2.5-2.5,1.6,1.6,0,0,1,1.8,1.5,1.1,1.1,0,0,1-1.2,1.1c-.6,0-1-.3-1-.8a.7.7,0,0,0-.8.8,1.8,1.8,0,0,0,2,1.7,2.6,2.6,0,0,0,2.6-2.8,3.2,3.2,0,0,0-3.4-3.1c-2.8,0-5.3,1.5-11.5,1.6a3.3,3.3,0,0,0,2.8,1.2,16.4,16.4,0,0,0,5.4-.9,4.8,4.8,0,0,0-.7,2.2,4.9,4.9,0,0,0,5.1,4.7c2.5,0,6.1-1.6,6.1-5.7s-2.3-6.2-6.9-6.2-6.6,1.1-13.4,1.1-9.5-1.1-13.5-1.1-6.9,2.6-6.9,6.2"/><path class="cls-4" d="M110.6,173.6c-6.6,0-10.7,1.1-13.5,3H94.9c-2.8-1.9-6.9-3-13.6-3V155.5a8.2,8.2,0,0,1,2.2.5v16c5,0,8.4.6,11.5,2.4h1.9c3.2-1.8,6.8-2.4,11.6-2.4V156a7.6,7.6,0,0,1,2.1-.5Zm-3.7-20v17a24.3,24.3,0,0,0-10.1,2V156c2.1-1.9,6.5-2.4,10.1-2.4m-21.8,0c3.6,0,7.9.5,10.1,2.4v16.6a24.3,24.3,0,0,0-10.1-2Zm23.4.8v-2.1c-4.8,0-9.1.3-12.5,2.4-3.7-2.1-7.5-2.4-12.5-2.4v2.1a13.5,13.5,0,0,0-3.8-.5v21.6c8.1,0,12,1.1,14.8,2.7h3c2.7-1.6,6.6-2.7,14.7-2.7V153.9a13.2,13.2,0,0,0-3.7.5"/><path class="cls-4" d="M123.1,226.1c-6.2,0-6.4,5.7-12.3,5.7s-6.4-5.8-12.3-5.8c-3.2,0-5,1.5-6.6,3l1.3,1.4c1.4-1.2,2.8-2.4,5.2-2.4,5.1,0,6,5.6,12.4,5.6s6.9-5.6,12.3-5.6,5.9,5.9,12.3,5.6v-1.8c-5.9,0-5.9-5.7-12.3-5.7"/><path class="cls-4" d="M123.1,233.7c-6.2,0-6.4,5.7-12.3,5.7s-6.4-5.8-12.3-5.8l-1.8.2,2.1,1.8c4.8.2,5.6,5.7,12,5.7s6.9-5.7,12.3-5.7,5.9,5.9,12.3,5.7v-1.9c-5.9,0-5.9-5.7-12.3-5.7"/><path class="cls-4" d="M123.2,241.4c-4.3,0-5.7,2.6-8,4.3a10.1,10.1,0,0,0,1.8.9c1.8-1.6,3.2-3.3,6.2-3.3,5.5,0,6,5.9,12.3,5.6V247c-5.9,0-5.9-5.6-12.3-5.6"/><path class="cls-4" d="M87.8,224.3l1.2,1.3c3.7-1,5-5,9.4-5s6,5.7,12.4,5.7,6.9-5.7,12.3-5.7,5.9,5.9,12.3,5.7v-1.9c-5.9,0-5.9-5.7-12.3-5.7s-6.4,5.7-12.3,5.7-6.4-5.8-12.3-5.8-6.9,4.4-10.7,5.7"/><path class="cls-4" d="M96.4,219.4h2v-4.3a2.1,2.1,0,0,0,1.5.5,6.1,6.1,0,0,0,5.7-5.8l5.1-5.3-1-.8-5,4.8a2.2,2.2,0,0,0-1.6-.5,4.7,4.7,0,0,0,2.3-4.2l5.3-5.2-1-.8-5,4.9a2.1,2.1,0,0,0-1.5-.5,5.5,5.5,0,0,0,2.4-4l5.1-5.4-1-.9-4.8,5a1.8,1.8,0,0,0-1.7-.8,4.9,4.9,0,0,0-2.9,1.1,3.9,3.9,0,0,0,.4-2.1,5.7,5.7,0,0,0-2.4-4.7l-.2-5.8H96.8l-.2,5.8a5.8,5.8,0,0,0-2.5,4.7,7.7,7.7,0,0,0,.3,2,5.6,5.6,0,0,0-2.9-1,1.8,1.8,0,0,0-1.5.6l-4.9-4.8-1,.9,5,5.2a5.6,5.6,0,0,0,1.9,4.1,2.3,2.3,0,0,0-1.4.4L85,197.8l-1,.8,5,5.2a5.5,5.5,0,0,0,2.1,4.1,2.8,2.8,0,0,0-1.3.4L85,203.7l-1,.8,5.1,5.1c0,3.1,3,6,5.7,6a2.5,2.5,0,0,0,1.6-.5Zm1-13a4,4,0,0,0-2-2.7c1,0,1.9-.2,2-1.6.2,1.4,1,1.6,2,1.6a4.3,4.3,0,0,0-2,2.7m2.4,7.9c-.9,0-1.2-.5-1.2-1.1a4.4,4.4,0,0,1,4-3.9c.8,0,1.5.2,1.5.8a4.5,4.5,0,0,1-4.3,4.2m-4.9,0a4.5,4.5,0,0,1-4.3-4.2c0-.6.5-.8,1-.8,2.5,0,4.7,2.1,4.7,3.9s-.5,1.1-1.4,1.1m2.5-1.9a4.5,4.5,0,0,0-1.8-2.8c1,0,1.7-.3,1.8-1.4.2,1.1.9,1.4,1.9,1.4a4.6,4.6,0,0,0-1.9,2.8m2.2-4.1c-.8,0-1-.4-1-.9a4.2,4.2,0,0,1,4-3.7c.8,0,1.1.1,1.1.8a3.9,3.9,0,0,1-4.1,3.8m-8.3-4.8c2.8,0,5,2.4,5,3.9s-.5.9-1.2.9c-2.5,0-4.6-2.1-4.6-4s.3-.8.8-.8m11.6-6a.9.9,0,0,1,1,1,4.5,4.5,0,0,1-4.3,4c-.7,0-1-.3-1-.9s2.1-4.1,4.3-4.1m-11.1,0c2.1,0,4.5,2.6,4.5,4.1s-.5.9-1.4.9a4.7,4.7,0,0,1-4.3-4c0-.6.4-1,1.2-1m5.6-5.9c.7,0,2,1.9,2,3.8s-1.1,3.9-2,3.9-2-1.6-2-3.9,1.4-3.8,2-3.8"/><path class="cls-4" d="M160,235.2a4.2,4.2,0,0,0-3.1-.2,3.8,3.8,0,0,0-2.3,2,4.2,4.2,0,0,0-.3,3.1,4.8,4.8,0,0,0,2,2.4,3.9,3.9,0,0,0,2.6.3h.5a4,4,0,0,0,2.4-2,3.7,3.7,0,0,0,.2-3.1,4,4,0,0,0-2-2.4m.5,4.8a2.6,2.6,0,0,1-4.7-2.3,2.6,2.6,0,0,1,1.6-1.3,2.4,2.4,0,0,1,2,.1,3.2,3.2,0,0,1,1.3,1.5,2.7,2.7,0,0,1-.2,2"/><path class="cls-4" d="M177.4,229.9a3.6,3.6,0,0,0-2.5-.2,3.3,3.3,0,0,0-2.1,4.1,3.2,3.2,0,0,0,1.7,1.9,3.4,3.4,0,0,0,2,.3h.4a3.1,3.1,0,0,0,1.9-1.6,3.1,3.1,0,0,0,.2-2.5,3.3,3.3,0,0,0-1.6-1.9m.2,3.8a1.8,1.8,0,0,1-1.1,1,1.7,1.7,0,0,1-1.4-.2,1.8,1.8,0,0,1-1-1.1,1.9,1.9,0,0,1,1.2-2.4h.3a2.5,2.5,0,0,1,1.2.2,1.8,1.8,0,0,1,1,1.1,2,2,0,0,1-.2,1.5"/><path class="cls-4" d="M185.7,233.1c-.9-1.4-2.8-1.4-3.8-1.4l-.5-1.3a5,5,0,0,0,2.3-3.2v-.4l-2.6-2.3h-.5a4.9,4.9,0,0,0-2.8,2.7l-1.3-.3a4.1,4.1,0,0,0-1.9-3.7l-.3-.2-3,1v.3a4.4,4.4,0,0,0,.7,4.1l-.8,1a4.7,4.7,0,0,0-3.9-.5h-.5l-.7,3.5.3.3.8.6a4.6,4.6,0,0,0-2.5.8l-.9-1.1a4.1,4.1,0,0,0,1.2-3.6v-.3l-2.8-1.4h-.3a3.8,3.8,0,0,0-2.3,3h-1.4a3.7,3.7,0,0,0-1.6-3.3l-.3-.2-3.1,1-.2.3a3.9,3.9,0,0,0,.7,3.7l-1.1.9a3.7,3.7,0,0,0-3.6-1.1h-.3l-1.4,2.8v.3a4,4,0,0,0,3.1,2.2l-.2,1.4c-1,0-2.7.3-3.3,1.6l-.2.3,1,3,.3.2c1.2.6,2.8-.1,3.7-.6l.9,1a4.1,4.1,0,0,0-1.2,3.6v.3l2.8,1.4h.3a3.9,3.9,0,0,0,2.3-3h1.4a3.9,3.9,0,0,0,1.6,3.3l.3.2,3.2-1V249a4.4,4.4,0,0,0-.7-3.7l1-.9a3.9,3.9,0,0,0,3.7,1.1h.3l1.4-2.8v-.3c-.4-1.4-2-1.9-3-2.2v-1.4a7,7,0,0,0,2.2-.7,2.2,2.2,0,0,0-.1.8v.3l2.4,2.3.4-.2a5.1,5.1,0,0,0,3-2.7l1.3.3a4.3,4.3,0,0,0,1.8,3.8l.3.2,3.1-1.1.2-.3a4,4,0,0,0-.9-4.1l.9-1a4.6,4.6,0,0,0,4,.4h.5l.6-3.2Zm-16.2,3.1-.7-2.2h1.3l.4,1.3-1,.8m-4,1h-.7l-.4,4.3h.8a3.3,3.3,0,0,1,2.3.9l-.8,1.6c-1.1.1-2.2-1.2-2.2-1.2l-.5-.7-3.3,2.9.5.6a3.4,3.4,0,0,1,.9,2.4l-1.6.5a3.6,3.6,0,0,1-.7-2.4v-.8l-4.3-.4v.8s-.1,1.7-1.1,2.3l-1.6-.8a5.2,5.2,0,0,1,1.4-2.2l.6-.5-2.9-3.2-.6.4a4.6,4.6,0,0,1-2.3,1l-.6-1.7a4,4,0,0,1,2.5-.6h.7l.4-4.3h-.7a4.3,4.3,0,0,1-2.4-1.1l.8-1.5a3.7,3.7,0,0,1,2.2,1.3l.5.6,3.3-3-.5-.5a4.1,4.1,0,0,1-1-2.3l1.8-.6a3.7,3.7,0,0,1,.6,2.4v.8l4.4.4v-.8a4.1,4.1,0,0,1,1.1-2.3l1.5.8a3.7,3.7,0,0,1-1.3,2.2l-.5.5,2.8,3.2.6-.4a4.3,4.3,0,0,1,2.4-.9l.5,1.5a4.9,4.9,0,0,1-2.5.7m18.4-1.8a2.7,2.7,0,0,1-2.6-.7l-.6-.5-2.9,3.1.6.6a3.3,3.3,0,0,1,1,2.6l-1.7.6c-1-.9-.7-2.8-.7-2.8v-.7l-3.4-.7-.7-.2-.2.8a3.3,3.3,0,0,1-1.8,2.1l-1.1-1.1c.1-1,1.4-1.8,1.9-2l.6-.3-1.2-3.8h-.6a4.9,4.9,0,0,1-2.8-.5l.4-1.6a2.8,2.8,0,0,1,2.5.7l.6.6,2.8-3.2-.5-.5c0-.1-1.3-1.4-1-2.7l1.6-.5c1,.8.8,2.7.8,2.7v.7l3.3.8h.8l.2-.8a2.9,2.9,0,0,1,1.7-2l1.2,1.1a5.4,5.4,0,0,1-2,2l-.6.3,1.4,3.7h.6a3.5,3.5,0,0,1,2.7.5Z"/><path class="cls-4" d="M198.8,201.7l-12,9v-8.1l-12.7,8.1v-5.9l-12.5,7.6v2.3l10.9-6.6v5.8l12.7-8.1v8.1L201.4,202l-1.5-1.8h5v5.7l-1.9-2-20.1,15.6v-8.3L170.7,219v-5.1L159.4,221v2.3l9.7-6.2v5.1l12.2-7.8v8.7L203,205.9l3.6,3.9V198.6H196.4Zm-18.2-11.9v6.5l11.7-6.9v6.9l10.8-7.5-1.4-1.8h5v5.4l-2-2.1-14.5,10.6v-7.2l-12.9,8.1v-5.7l-12,7v2.3l10.4-6.1v5.8l12.8-8.1v7.2l16.2-11.8,3.6,3.9V185.4h-10l2.3,2.9-6.7,4.8v-6.9l-11.7,6.9v-6.5l-13.6,7.3v2.4Z"/><path class="cls-1" d="M140.7,199.5a3.4,3.4,0,0,0,2,.9,3.1,3.1,0,0,0,1.9-.9V179.1h10.6V175H144.6v-9.5h-3.9V175H130.1v4.1h10.6Zm5.6,1.3a13.1,13.1,0,0,1-3.6,1.6,10.9,10.9,0,0,1-3.6-1.6v-20H128.3v-7.4h10.8v-9.7h7.2v9.7H157v7.4H146.3Z"/><polygon class="cls-1" points="142.3 210 142.3 210.9 138.8 210.9 138.8 206.6 142.2 206.6 142.2 207.5 139.8 207.5 139.8 208.4 141.8 208.4 141.8 209.2 139.8 209.2 139.8 210 142.3 210"/><polygon class="cls-1" points="146.8 207.6 145.3 207.6 145.3 210.9 144.4 210.9 144.4 207.6 142.9 207.6 142.9 206.6 146.8 206.6 146.8 207.6"/><polygon class="cls-1" points="153.5 205.9 154.1 206.6 151.8 208.8 148.8 205.7 149.5 205 151.9 207.5 153.5 205.9"/><path class="cls-1" d="M157.1,202.7l-1.2-.3-1.1,1.7c.1.3.4.6.6,1l-.6.8c-1.6-2.5-2.4-4.1-2.4-4.1l.6-.9,4.7.9Zm-2-.5-1.7-.3.9,1.4Z"/><path class="cls-1" d="M158.7,196.7c.8.4.9,1,.5,2l-1,2.2-4-1.8.9-2c.4-.9,1-1.1,1.6-.8a.8.8,0,0,1,.6.8,1,1,0,0,1,1.4-.4m-3.3,1.9.8.3.5-1c.1-.3.1-.5-.2-.7s-.5,0-.7.4Zm2.9-.3c.2-.4.2-.6-.1-.7s-.5,0-.7.4l-.6,1.3.9.3Z"/><path class="cls-1" d="M156.5,192.8a2.1,2.1,0,0,1,2.7-1.8,2.2,2.2,0,0,1,1.6,2.8,2.1,2.1,0,0,1-2.7,1.8,2.1,2.1,0,0,1-1.6-2.8m3.4.8a1.2,1.2,0,0,0-1-1.6,1.1,1.1,0,0,0-1.5,1c-.2.8,0,1.4.9,1.6a1.2,1.2,0,0,0,1.6-1"/><path class="cls-1" d="M161.6,187.4l-1.3.6h0v1.1h1.3v1l-4.3-.3v-2.1c.1-1.1.7-1.7,1.7-1.6a1.2,1.2,0,0,1,1.2.8l1.6-.8Zm-2.3,1.8v-1.1c0-.6-.2-.8-.6-.8s-.7.1-.7.7v1.1Z"/><polygon class="cls-1" points="127.8 188.9 126.8 189 127 191 126.2 191.1 126 189.1 124.4 189.2 124.3 188.2 128.6 187.8 128.9 191.2 128 191.3 127.8 188.9"/><rect class="cls-1" x="124.9" y="192.5" width="4.3" height="0.98" transform="translate(-37.4 30.7) rotate(-12)"/><path class="cls-1" d="M130.2,196c.6,1.6.2,2.6-1.1,3.1s-2.3,0-2.9-1.6l-.7-1.6,4.1-1.5Zm-3.1,1.3c.3.8.8,1.1,1.6.8s1-.8.7-1.7l-.4-.8-2.2.9Z"/><polygon class="cls-1" points="130.6 204.1 129.9 204.6 128 201.7 131.7 199.3 133.5 202.2 132.7 202.6 131.4 200.7 130.7 201.1 131.7 202.9 131.1 203.3 130 201.6 129.3 202 130.6 204.1"/><path class="cls-1" d="M134.5,205.7h.3c.2-.2.3-.5-.2-1s-.7-.5-1-.3,1.7,2.2.5,3.3-1.3.4-2.2-.5-.9-1.8-.3-2.3a2.1,2.1,0,0,1,.7.5c-.3.4-.3.7.2,1.3s.7.5,1,.3-1.8-2.2-.5-3.3,1.3-.5,2.2.5.8,1.7.4,2.1l-.5.2Z"/></svg>