<?xml version="1.0" encoding="utf-8"?>
<!-- Generator: Adobe Illustrator 24.0.0, SVG Export Plug-In . SVG Version: 6.00 Build 0)  -->
<svg version="1.1" id="Capa_1" xmlns:svg="http://www.w3.org/2000/svg"
	 xmlns="http://www.w3.org/2000/svg" xmlns:xlink="http://www.w3.org/1999/xlink" x="0px" y="0px" viewBox="0 0 775 775"
	 style="enable-background:new 0 0 775 775;" xml:space="preserve">
<style type="text/css">
	.st0{fill:#FF7B00;}
</style>
<g>
	<path class="st0" d="M273.4,604.3c-23.7,0-46.1-4.8-66.6-13.4c-30.7-13-56.8-34.7-75.3-62s-29.2-60.2-29.2-95.7v-22.8
		c0-39.4,8-76.9,22.4-111c21.6-51.2,57.8-94.7,103.3-125.5s100.3-48.7,159.5-48.7c39.4,0,76.9,8,111,22.4
		c51.2,21.6,94.7,57.8,125.5,103.3s48.7,100.3,48.7,159.5v22.8c0,30-6.1,58.4-17,84.4c-16.4,38.9-43.9,72-78.5,95.4
		s-76.3,37-121.2,37c-4.8,0-9.2-1-13.3-2.7c-6.1-2.6-11.4-6.9-15.1-12.4s-5.8-12-5.8-19.1c0-4.8,1-9.2,2.7-13.3
		c2.6-6.1,6.9-11.4,12.4-15.1c5.5-3.7,12-5.8,19.1-5.8c20.4,0,40-4.1,57.7-11.7c26.6-11.3,49.3-30.1,65.2-53.7
		c16-23.7,25.3-52.3,25.3-82.9v-22.8c0-29.9-6.1-58.4-17-84.4c-16.5-38.9-43.9-72-78.5-95.4s-76.3-37-121.2-37
		c-29.9,0-58.4,6.1-84.4,17c-38.9,16.5-72,43.9-95.4,78.5s-37,76.3-37,121.2v22.8c0,14.1,2.9,27.7,8.1,40
		c7.8,18.4,20.8,34.1,37.2,45.2c16.4,11.1,36.2,17.5,57.4,17.5H456c14.1,0,27.7-2.9,40-8.1c18.4-7.8,34.1-20.8,45.2-37.2
		c11.1-16.4,17.5-36.2,17.5-57.4v-22.8c0-23.6-4.8-46.1-13.5-66.6c-13-30.7-34.7-56.8-62-75.3s-60.3-29.2-95.7-29.2
		c-23.6,0-46.1,4.8-66.6,13.5c-30.7,13-56.8,34.7-75.3,62c-18.4,27.3-29.2,60.3-29.2,95.7v22.8c0,7.8,1.6,15.4,4.5,22.2
		c4.3,10.3,11.6,18.9,20.7,25.1c9.1,6.1,20.1,9.8,31.9,9.7c7.8,0,15.4-1.6,22.2-4.5c10.3-4.3,18.9-11.6,25.1-20.7
		c6.1-9.1,9.8-20.1,9.7-31.9v-22.8c0-7.9,1.6-15.4,4.5-22.2c4.3-10.2,11.6-19,20.7-25.1c9.1-6.2,20-9.7,31.9-9.7
		c7.9,0,15.4,1.6,22.2,4.5c10.2,4.3,19,11.6,25.1,20.7c6.2,9.1,9.7,20,9.7,31.9v22.8c0,6.3,5.1,11.4,11.4,11.4s11.4-5.1,11.4-11.4
		v-22.8c0-11-2.2-21.5-6.3-31.1c-6.1-14.3-16.2-26.5-28.9-35.1c-12.7-8.6-28.2-13.6-44.7-13.6c-11,0-21.5,2.2-31.1,6.3
		c-14.3,6.1-26.5,16.2-35.1,28.9c-8.6,12.7-13.7,28.2-13.6,44.7v22.8c0,4.8-1,9.2-2.7,13.3c-2.6,6.1-6.9,11.4-12.4,15.1
		s-12,5.8-19.1,5.8c-4.8,0-9.2-1-13.3-2.7c-6.1-2.6-11.4-6.9-15.1-12.4c-3.7-5.5-5.8-12-5.8-19.1v-22.8c0-20.5,4.1-40,11.7-57.7
		c11.2-26.6,30.1-49.3,53.7-65.3c23.7-16,52.2-25.3,82.9-25.3c20.5,0,40,4.2,57.7,11.7c26.6,11.2,49.3,30.1,65.3,53.7
		c16,23.7,25.3,52.2,25.3,82.9v22.8c0,11.1-2.2,21.5-6.3,31.1c-6.1,14.3-16.2,26.5-28.9,35.1C487.8,508,472.5,513,456,513H273.4
		c-11.1,0-21.5-2.2-31.1-6.3c-14.3-6.1-26.5-16.2-35.1-28.9c-8.6-12.8-13.6-28.1-13.6-44.6v-22.8c0-26.8,5.4-52.3,15.2-75.5
		c14.7-34.8,39.3-64.4,70.3-85.3s68.2-33.1,108.4-33.1c26.8,0,52.3,5.4,75.5,15.2c34.8,14.7,64.4,39.3,85.3,70.3
		s33.1,68.2,33.1,108.4v22.8c0,17.4-3.5,33.8-9.9,48.8c-9.5,22.5-25.4,41.7-45.5,55.2c-20,13.5-44.1,21.4-70.2,21.4
		c-7.8,0-15.4,1.6-22.2,4.5c-10.3,4.3-18.9,11.6-25.1,20.7c-6.1,9.1-9.8,20.1-9.7,31.9c0,7.8,1.6,15.4,4.5,22.2
		c4.3,10.3,11.6,18.9,20.7,25.1c9.1,6.1,20.1,9.8,31.9,9.7c33,0,64.6-6.7,93.3-18.8c43-18.2,79.6-48.6,105.4-86.8
		c25.8-38.2,40.9-84.4,40.9-134v-22.8c0-42.5-8.6-83-24.2-119.9c-23.4-55.3-62.4-102.3-111.6-135.5
		c-49.1-33.2-108.5-52.6-172.2-52.6c-42.5,0-83,8.6-119.9,24.2c-55.3,23.4-102.3,62.4-135.5,111.6c-33.2,49.1-52.6,108.5-52.6,172.2
		v22.8c0,26.7,5.4,52.3,15.2,75.5c14.7,34.8,39.3,64.4,70.3,85.3c30.9,20.9,68.3,33.1,108.4,33.1c6.3,0,11.4-5.1,11.4-11.4
		S279.7,604.3,273.4,604.3z M456,627.1c26.7,0,52.3-5.4,75.5-15.2c34.8-14.7,64.4-39.3,85.3-70.3c20.9-30.9,33.1-68.3,33.1-108.4
		v-22.8c0-36.2-7.3-70.7-20.6-102.1c-19.9-47.1-53.2-87.1-95.1-115.4s-92.4-44.8-146.7-44.8c-36.2,0-70.7,7.3-102.1,20.6
		c-47.1,19.9-87.1,53.2-115.4,95.1s-44.8,92.4-44.8,146.7v22.8c0,20.4,4.1,40,11.7,57.7c11.3,26.6,30.1,49.3,53.7,65.2
		c23.7,16,52.3,25.3,82.9,25.3c4.8,0,9.2,1,13.3,2.7c6.1,2.6,11.4,6.9,15.1,12.4s5.8,12,5.8,19.1c0,4.8-1,9.2-2.7,13.3
		c-2.6,6.1-6.9,11.4-12.4,15.1c-5.5,3.7-12,5.8-19.1,5.8c-30,0-58.4-6.1-84.4-17c-38.9-16.4-72-43.9-95.4-78.5s-37-76.3-37-121.2
		v-22.8c0-45.7,9.3-89.2,26-128.8c25.1-59.4,67.1-109.9,119.9-145.6s116.4-56.5,185-56.5c45.7,0,89.2,9.3,128.8,26
		c59.4,25.1,109.9,67.1,145.6,119.9s56.5,116.4,56.5,185v22.8c0,36.3-7.3,70.7-20.6,102.1c-19.9,47.1-53.2,87.2-95.1,115.5
		c-41.9,28.3-92.3,44.8-146.7,44.8c-11.1,0-21.5-2.2-31.1-6.3c-14.3-6.1-26.5-16.2-35.1-28.9c-8.6-12.8-13.6-28.1-13.6-44.6V410.3
		c0-1.6,0.3-3.1,0.9-4.4c0.9-2,2.3-3.8,4.1-5c1.8-1.2,4-1.9,6.4-1.9c1.6,0,3.1,0.3,4.4,0.9c2,0.9,3.8,2.3,5,4.1
		c1.2,1.8,1.9,4,1.9,6.4v22.8c0,7.8,1.6,15.4,4.5,22.2c4.3,10.3,11.6,18.9,20.7,25.1c9.1,6.1,20.1,9.8,31.9,9.7
		c7.8,0,15.4-1.6,22.2-4.5c10.3-4.3,18.9-11.6,25.1-20.7c6.1-9.1,9.8-20.1,9.7-31.9v-22.8c0-17.3-3.5-33.8-9.9-48.9
		c-9.5-22.5-25.4-41.7-45.5-55.2c-20-13.5-44.2-21.4-70.2-21.4c-17.3,0-33.8,3.5-48.9,9.9c-22.5,9.5-41.7,25.4-55.2,45.5
		c-13.5,20-21.4,44.2-21.4,70.2v22.8c0,6.3,5.1,11.4,11.4,11.4s11.4-5.1,11.4-11.4v-22.8c0-14.2,2.9-27.7,8.1-40
		c7.8-18.4,20.8-34.1,37.2-45.2c16.4-11.1,36.1-17.5,57.4-17.5c14.2,0,27.7,2.9,40,8.1c18.4,7.8,34.1,20.8,45.2,37.2
		c11.1,16.4,17.5,36.1,17.5,57.4v22.8c0,4.8-1,9.2-2.7,13.3c-2.6,6.1-6.9,11.4-12.4,15.1s-12,5.8-19.1,5.8c-4.8,0-9.2-1-13.3-2.7
		c-6.1-2.6-11.4-6.9-15.1-12.4s-5.8-12-5.8-19.1v-22.8c0-4.7-1-9.2-2.7-13.3c-2.6-6.2-6.9-11.4-12.4-15c-5.4-3.7-12.1-5.9-19.1-5.9
		c-4.7,0-9.2,1-13.3,2.7c-6.2,2.6-11.4,6.9-15,12.4c-3.7,5.4-5.9,12.1-5.9,19.1v205.4c0,14.1,2.9,27.7,8.1,40
		c7.8,18.4,20.8,34.1,37.2,45.2c16.4,11.1,36.2,17.5,57.4,17.5c39.3,0,76.9-8,111-22.4c51.2-21.7,94.7-57.8,125.5-103.3
		s48.7-100.4,48.7-159.5v-22.8c0-48.8-9.9-95.3-27.8-137.7c-26.9-63.5-71.7-117.5-128.1-155.6C529,79.1,460.9,56.8,387.7,56.8
		c-48.8,0-95.3,9.9-137.7,27.8c-63.5,26.9-117.5,71.7-155.6,128.1C56.1,269,33.8,337.1,33.8,410.3v22.8c0,33,6.7,64.6,18.8,93.3
		c18.2,43,48.6,79.6,86.8,105.4c38.2,25.8,84.4,40.9,134,40.9c7.8,0,15.4-1.6,22.2-4.5c10.3-4.3,18.9-11.6,25.1-20.7
		c6.1-9.1,9.8-20.1,9.7-31.9c0-7.8-1.6-15.4-4.5-22.2c-4.3-10.3-11.6-18.9-20.7-25.1c-9.1-6.1-20.1-9.8-31.9-9.7
		c-17.4,0-33.8-3.5-48.8-9.9c-22.5-9.5-41.7-25.4-55.2-45.5c-13.5-20-21.4-44.1-21.4-70.2v-22.8c0-33.1,6.7-64.6,18.8-93.2
		c18.2-43,48.6-79.6,86.8-105.4c38.3-25.8,84.3-40.9,133.9-40.9c33.1,0,64.6,6.7,93.3,18.8c43,18.2,79.6,48.6,105.4,86.8
		c25.8,38.3,40.9,84.3,40.9,133.9V433c0,23.7-4.8,46.1-13.4,66.6c-13,30.7-34.7,56.8-62,75.3s-60.2,29.2-95.7,29.2
		c-6.3,0-11.4,5.1-11.4,11.4S449.6,627.1,456,627.1z"/>
</g>
</svg>
